{
.appVersion = "913";
DisplayStrings = (
"py "
);
classes = (
{
code = "a d j l q t w y G W";
name = aalt1;
},
{
code = "a.alt d.alt j.alt l.alt q.alt t.alt w.alt y.alt G.alt W.alt";
name = aalt2;
},
{
code = "zero.lnum one.lnum two.lnum three.lnum four.lnum five.lnum six.lnum seven.lnum eight.lnum nine.lnum";
name = lnum1;
},
{
code = "zero one two three four five six seven eight nine";
name = onum1;
},
{
code = "a b c d e f g h i j k l m n o p q r s t u v w x y z";
name = smcp1;
},
{
code = "A.sc B.sc C.sc D.sc E.sc F.sc G.sc H.sc I.sc J.sc K.sc L.sc M.sc N.sc O.sc P.sc Q.sc R.sc S.sc T.sc U.sc V.sc W.sc X.sc Y.sc Z.sc";
name = smcp2;
}
);
copyright = "Copyright (c) 2010 - 2013, Matt McInerney (matt@pixelspread.com), Pablo Impallari (impallari@gmail.com), Rodrigo Fuenzalida (hello@rfuenzalida.com) with Reserved Font Name \"Raleway\"";
customParameters = (
{
name = licenseURL;
value = "http://scripts.sil.org/OFL";
},
{
name = description;
value = "Raleway is an elegant sans-serif typeface family. Initially designed by Matt McInerney as a single thin weight, it was expanded into a 9 weight family by Pablo Impallari and Rodrigo Fuenzalida in 2012 and iKerned by Igino Marini. It is a display face and the download features both old style and lining numerals, standard and discretionary ligatures, a pretty complete set of diacritics, as well as a stylistic alternate inspired by more geometric sans-serif typefaces than its neo-grotesque inspired default character set.";
},
{
name = trademark;
value = "Raleway is a trademark of Matt McInerney.";
},
{
name = license;
value = "This Font Software is licensed under the SIL Open Font License, Version 1.1. This license is available with a FAQ at: http://scripts.sil.org/OFL";
},
{
name = panose;
value = (
2,
11,
10,
3,
3,
1,
1,
6,
0,
3
);
}
);
date = "2013-09-24 10:20:45 +0000";
designer = "Matt McInerney, Pablo Impallari, Rodrigo Fuenzalida";
designerURL = "http://pixelspread.com";
familyName = Original;
features = (
{

glyphs = (
{
glyphname = A;
lastChange = "2016-08-18 21:45:13 +0000";
layers = (
{
anchors = (
{
name = bottom;
position = "{571, 0}";
},
{
name = top;
position = "{334, 710}";
}
);
background = {
paths = (
{
closed = 1;
nodes = (
"-2 0 LINE",
"197 0 LINE",
"239 139 LINE",
"428 139 LINE",
"471 0 LINE",
"669 0 LINE",
"423 710 LINE",
"245 710 LINE"
);
},
{
closed = 1;
nodes = (
"268 269 LINE",
"334 489 LINE",
"397 269 LINE"
);
}
);
};
layerId = UUID0;
paths = (
{
closed = 1;
nodes = (
"-2 0 LINE",
"197 0 LINE",
"239 139 LINE",
"428 139 LINE",
"471 0 LINE",
"669 0 LINE",
"423 710 LINE",
"245 710 LINE"
);
},
{
closed = 1;
nodes = (
"268 269 LINE",
"334 489 LINE",
"397 269 LINE"
);
}
);
width = 667;
}
);
leftKerningGroup = A;
rightKerningGroup = A;
unicode = 0041;
},
{
glyphname = AE;
lastChange = "2016-08-18 21:45:13 +0000";
layers = (
{
anchors = (
{
name = top;
position = "{625, 710}";
}
);
background = {
paths = (
{
closed = 1;
nodes = (
"-26 0 LINE",
"180 0 LINE",
"255 139 LINE",
"456 139 LINE",
"456 0 LINE",
"941 0 LINE",
"941 170 LINE",
"650 170 LINE",
"650 276 LINE",
"878 276 LINE",
"878 446 LINE",
"650 446 LINE",
"650 540 LINE",
"932 540 LINE",
"932 710 LINE",
"405 710 LINE"
);
},
{
closed = 1;
nodes = (
"337 309 LINE",
"441 495 LINE",
"441 309 LINE"
);
}
);
};
layerId = UUID0;
paths = (
{
closed = 1;
nodes = (
"-26 0 LINE",
"180 0 LINE",
"255 139 LINE",
"456 139 LINE",
"456 0 LINE",
"941 0 LINE",
"941 170 LINE",
"650 170 LINE",
"650 276 LINE",
"878 276 LINE",
"878 446 LINE",
"650 446 LINE",
"650 540 LINE",
"932 540 LINE",
"932 710 LINE",
"405 710 LINE"
);
},
{
closed = 1;
nodes = (
"337 309 LINE",
"441 495 LINE",
"441 309 LINE"
);
}
);
width = 971;
}
);
leftKerningGroup = AE;
rightKerningGroup = E;
unicode = 00C6;
},
{
glyphname = B;
lastChange = "2016-08-18 21:45:13 +0000";
layers = (
{
background = {
paths = (
{
closed = 1;
nodes = (
"665 281 OFFCURVE",
"614 340 OFFCURVE",
"533 364 CURVE",
"601 394 OFFCURVE",
"635 462 OFFCURVE",
"635 528 CURVE SMOOTH",
"635 618 OFFCURVE",
"573 710 OFFCURVE",
"473 710 CURVE SMOOTH",
"61 710 LINE",
"61 0 LINE",
"410 0 LINE SMOOTH",
"550 0 OFFCURVE",
"665 54 OFFCURVE",
"665 182 CURVE SMOOTH"
);
},
{
closed = 1;
nodes = (
"467 185 OFFCURVE",
"442 164 OFFCURVE",
"410 164 CURVE SMOOTH",
"256 164 LINE",
"256 283 LINE",
"417 283 LINE SMOOTH",
"446 283 OFFCURVE",
"467 257 OFFCURVE",
"467 222 CURVE SMOOTH"
);
},
{
closed = 1;
nodes = (
"395 544 LINE SMOOTH",
"420 544 OFFCURVE",
"442 529 OFFCURVE",
"442 490 CURVE SMOOTH",
"442 446 OFFCURVE",
"415 435 OFFCURVE",
"389 435 CURVE SMOOTH",
"256 435 LINE",
"256 544 LINE"
);
}
);
};
layerId = UUID0;
paths = (
{
closed = 1;
nodes = (
"665 182 LINE SMOOTH",
"665 281 OFFCURVE",
"614 340 OFFCURVE",
"533 364 CURVE",
"601 394 OFFCURVE",
"635 462 OFFCURVE",
"635 528 CURVE SMOOTH",
"635 618 OFFCURVE",
"573 710 OFFCURVE",
"473 710 CURVE SMOOTH",
"61 710 LINE",
"61 0 LINE",
"410 0 LINE SMOOTH",
"550 0 OFFCURVE",
"665 54 OFFCURVE",
"665 182 CURVE SMOOTH"
);
},
{
closed = 1;
nodes = (
"467 222 LINE SMOOTH",
"467 185 OFFCURVE",
"442 164 OFFCURVE",
"410 164 CURVE SMOOTH",
"256 164 LINE",
"256 283 LINE",
"417 283 LINE SMOOTH",
"446 283 OFFCURVE",
"467 257 OFFCURVE",
"467 222 CURVE SMOOTH"
);
},
{
closed = 1;
nodes = (
"395 544 LINE SMOOTH",
"420 544 OFFCURVE",
"442 529 OFFCURVE",
"442 490 CURVE SMOOTH",
"442 446 OFFCURVE",
"415 435 OFFCURVE",
"389 435 CURVE SMOOTH",
"256 435 LINE",
"256 544 LINE"
);
}
);
width = 690;
}
);
leftKerningGroup = I;
unicode = 0042;
},
{
glyphname = C;
lastChange = "2016-08-18 21:45:13 +0000";
layers = (
{
anchors = (
{
name = bottom;
position = "{379, 0}";
},
{
name = top;
position = "{385, 710}";
}
);
background = {
paths = (
{
closed = 1;
nodes = (
"22 179 OFFCURVE",
"169 -6 OFFCURVE",
"379 -6 CURVE SMOOTH",
"500 -6 OFFCURVE",
"641 54 OFFCURVE",
"683 159 CURVE",
"524 254 LINE",
"500 190 OFFCURVE",
"436 167 OFFCURVE",
"383 167 CURVE SMOOTH",
"281 167 OFFCURVE",
"220 256 OFFCURVE",
"220 355 CURVE SMOOTH",
"220 444 OFFCURVE",
"269 541 OFFCURVE",
"381 541 CURVE SMOOTH",
"434 541 OFFCURVE",
"500 522 OFFCURVE",
"527 453 CURVE",
"676 559 LINE",
"627 652 OFFCURVE",
"521 714 OFFCURVE",
"385 714 CURVE SMOOTH",
"157 714 OFFCURVE",
"22 534 OFFCURVE",
"22 361 CURVE SMOOTH"
);
}
);
};
layerId = UUID0;
paths = (
{
closed = 1;
nodes = (
"22 361 LINE SMOOTH",
"22 179 OFFCURVE",
"169 -6 OFFCURVE",
"379 -6 CURVE SMOOTH",
"500 -6 OFFCURVE",
"641 54 OFFCURVE",
"683 159 CURVE",
"524 254 LINE",
"500 190 OFFCURVE",
"436 167 OFFCURVE",
"383 167 CURVE SMOOTH",
"281 167 OFFCURVE",
"220 256 OFFCURVE",
"220 355 CURVE SMOOTH",
"220 444 OFFCURVE",
"269 541 OFFCURVE",
"381 541 CURVE SMOOTH",
"434 541 OFFCURVE",
"500 522 OFFCURVE",
"527 453 CURVE",
"676 559 LINE",
"627 652 OFFCURVE",
"521 714 OFFCURVE",
"385 714 CURVE SMOOTH",
"157 714 OFFCURVE",
"22 534 OFFCURVE",
"22 361 CURVE SMOOTH"
);
}
);
width = 691;
}
);
leftKerningGroup = O;
rightKerningGroup = C;
unicode = 0043;
},
{
glyphname = D;
lastChange = "2016-08-18 21:45:13 +0000";
layers = (
{
anchors = (
{
name = top;
position = "{317, 710}";
}
);
background = {
paths = (
{
closed = 1;
nodes = (
"334 0 LINE SMOOTH",
"550 0 OFFCURVE",
"692 141 OFFCURVE",
"692 356 CURVE SMOOTH",
"692 552 OFFCURVE",
"570 710 OFFCURVE",
"334 710 CURVE SMOOTH",
"61 710 LINE",
"61 0 LINE"
);
},
{
closed = 1;
nodes = (
"494 249 OFFCURVE",
"436 170 OFFCURVE",
"334 170 CURVE SMOOTH",
"256 170 LINE",
"256 540 LINE",
"334 540 LINE SMOOTH",
"434 540 OFFCURVE",
"494 466 OFFCURVE",
"494 356 CURVE SMOOTH"
);
}
);
};
layerId = UUID0;
paths = (
{
closed = 1;
nodes = (
"334 0 LINE SMOOTH",
"550 0 OFFCURVE",
"692 141 OFFCURVE",
"692 356 CURVE SMOOTH",
"692 552 OFFCURVE",
"570 710 OFFCURVE",
"334 710 CURVE SMOOTH",
"61 710 LINE",
"61 0 LINE"
);
},
{
closed = 1;
nodes = (
"494 356 LINE SMOOTH",
"494 249 OFFCURVE",
"436 170 OFFCURVE",
"334 170 CURVE SMOOTH",
"256 170 LINE",
"256 540 LINE",
"334 540 LINE SMOOTH",
"434 540 OFFCURVE",
"494 466 OFFCURVE",
"494 356 CURVE SMOOTH"
);
}
);
width = 716;
}
);
leftKerningGroup = I;
rightKerningGroup = D;
unicode = 0044;
},
{
glyphname = Eth;
lastChange = "2016-08-18 21:45:13 +0000";
layers = (
{
background = {
paths = (
{
closed = 1;
nodes = (
"374 287 LINE",
"374 427 LINE",
"28 427 LINE",
"28 287 LINE"
);
}
);
};
components = (
{
name = D;
transform = "{1, 0, 0, 1, 4, 0}";
}
);
layerId = UUID0;
paths = (
{
closed = 1;
nodes = (
"374 287 LINE",
"374 427 LINE",
"28 427 LINE",
"28 287 LINE"
);
}
);
width = 720;
}
);
leftKerningGroup = I;
rightKerningGroup = D;
unicode = 00D0;
},
{
glyphname = Dcroat;
lastChange = "2016-08-18 21:45:13 +0000";
layers = (
{
background = {
paths = (
{
closed = 1;
nodes = (
"374 287 LINE",
"374 427 LINE",
"28 427 LINE",
"28 287 LINE"
);
}
);
};
components = (
{
name = D;
transform = "{1, 0, 0, 1, 4, 0}";
}
);
layerId = UUID0;
paths = (
{
closed = 1;
nodes = (
"374 287 LINE",
"374 427 LINE",
"28 427 LINE",
"28 287 LINE"
);
}
);
width = 720;
}
);
leftKerningGroup = I;
rightKerningGroup = D;
unicode = 0110;
},
{
glyphname = E;
lastChange = "2016-08-18 21:45:13 +0000";
layers = (
{
anchors = (
{
name = bottom;
position = "{316, 0}";
},
{
name = top;
position = "{316, 710}";
}
);
background = {
paths = (
{
closed = 1;
nodes = (
"256 170 LINE",
"256 282 LINE",
"514 282 LINE",
"514 440 LINE",
"256 440 LINE",
"256 540 LINE",
"558 540 LINE",
"558 710 LINE",
"61 710 LINE",
"61 0 LINE",
"567 0 LINE",
"567 170 LINE"
);
}
);
};
layerId = UUID0;
paths = (
{
closed = 1;
nodes = (
"256 170 LINE",
"256 282 LINE",
"514 282 LINE",
"514 440 LINE",
"256 440 LINE",
"256 540 LINE",
"558 540 LINE",
"558 710 LINE",
"61 710 LINE",
"61 0 LINE",
"567 0 LINE",
"567 170 LINE"
);
}
);
width = 597;
}
);
leftKerningGroup = I;
rightKerningGroup = E;
unicode = 0045;
},
{
glyphname = F;
lastChange = "2016-08-18 21:45:13 +0000";
layers = (
{
background = {
paths = (
{
closed = 1;
nodes = (
"256 0 LINE",
"256 264 LINE",
"494 264 LINE",
"494 422 LINE",
"256 422 LINE",
"256 540 LINE",
"548 540 LINE",
"548 710 LINE",
"61 710 LINE",
"61 0 LINE"
);
}
);
};
layerId = UUID0;
paths = (
{
closed = 1;
nodes = (
"256 0 LINE",
"256 264 LINE",
"494 264 LINE",
"494 422 LINE",
"256 422 LINE",
"256 540 LINE",
"548 540 LINE",
"548 710 LINE",
"61 710 LINE",
"61 0 LINE"
);
}
);
width = 563;
}
);
leftKerningGroup = I;
unicode = 0046;
},
{
glyphname = G;
lastChange = "2016-08-18 21:45:13 +0000";
layers = (
{
anchors = (
{
name = bottom;
position = "{368, 0}";
},
{
name = top;
position = "{387, 710}";
}
);
background = {
paths = (
{
closed = 1;
nodes = (
"440 -5 OFFCURVE",
"498 18 OFFCURVE",
"553 68 CURVE",
"553 258 LINE",
"506 200 OFFCURVE",
"448 168 OFFCURVE",
"385 168 CURVE SMOOTH",
"287 168 OFFCURVE",
"221 243 OFFCURVE",
"221 354 CURVE SMOOTH",
"221 464 OFFCURVE",
"287 542 OFFCURVE",
"380 542 CURVE SMOOTH",
"442 542 OFFCURVE",
"504 505 OFFCURVE",
"532 449 CURVE",
"677 560 LINE",
"626 656 OFFCURVE",
"515 715 OFFCURVE",
"387 715 CURVE SMOOTH",
"182 715 OFFCURVE",
"23 560 OFFCURVE",
"23 361 CURVE SMOOTH",
"23 130 OFFCURVE",
"183 -5 OFFCURVE",
"368 -5 CURVE SMOOTH"
);
},
{
closed = 1;
nodes = (
"543 0 LINE",
"704 0 LINE",
"704 378 LINE",
"412 378 LINE",
"412 238 LINE",
"543 238 LINE"
);
}
);
};
layerId = UUID0;
paths = (
{
closed = 1;
nodes = (
"368 -5 LINE SMOOTH",
"440 -5 OFFCURVE",
"498 18 OFFCURVE",
"553 68 CURVE",
"553 258 LINE",
"506 200 OFFCURVE",
"448 168 OFFCURVE",
"385 168 CURVE SMOOTH",
"287 168 OFFCURVE",
"221 243 OFFCURVE",
"221 354 CURVE SMOOTH",
"221 464 OFFCURVE",
"287 542 OFFCURVE",
"380 542 CURVE SMOOTH",
"442 542 OFFCURVE",
"504 505 OFFCURVE",
"532 449 CURVE",
"677 560 LINE",
"626 656 OFFCURVE",
"515 715 OFFCURVE",
"387 715 CURVE SMOOTH",
"182 715 OFFCURVE",
"23 560 OFFCURVE",
"23 361 CURVE SMOOTH",
"23 130 OFFCURVE",
"183 -5 OFFCURVE",
"368 -5 CURVE SMOOTH"
);
},
{
closed = 1;
nodes = (
"543 0 LINE",
"704 0 LINE",
"704 378 LINE",
"412 378 LINE",
"412 238 LINE",
"543 238 LINE"
);
}
);
width = 739;
}
);
leftKerningGroup = O;
rightKerningGroup = G;
unicode = 0047;
},
{
glyphname = H;
lastChange = "2016-08-18 21:45:13 +0000";
layers = (
{
anchors = (
{
name = top;
position = "{378, 709}";
}
);
background = {
paths = (
{
closed = 1;
nodes = (
"494 710 LINE",
"494 448 LINE",
"256 448 LINE",
"256 710 LINE",
"61 710 LINE",
"61 0 LINE",
"256 0 LINE",
"256 278 LINE",
"494 278 LINE",
"494 0 LINE",
"689 0 LINE",
"689 710 LINE"
);
}
);
};
layerId = UUID0;
paths = (
{
closed = 1;
nodes = (
"494 710 LINE",
"494 448 LINE",
"256 448 LINE",
"256 710 LINE",
"61 710 LINE",
"61 0 LINE",
"256 0 LINE",
"256 278 LINE",
"494 278 LINE",
"494 0 LINE",
"689 0 LINE",
"689 710 LINE"
);
}
);
width = 750;
}
);
leftKerningGroup = I;
rightKerningGroup = I;
unicode = 0048;
},
{
glyphname = Hbar;
lastChange = "2016-08-18 21:45:13 +0000";
layers = (
{
background = {
paths = (
{
closed = 1;
nodes = (
"742 538 LINE",
"742 626 LINE",
"14 626 LINE",
"14 538 LINE"
);
}
);
};
components = (
{
name = H;
transform = "{1, 0, 0, 1, 3, 0}";
}
);
layerId = UUID0;
paths = (
{
closed = 1;
nodes = (
"742 538 LINE",
"742 626 LINE",
"14 626 LINE",
"14 538 LINE"
);
}
);
width = 756;
}
);
leftKerningGroup = I;
rightKerningGroup = I;
unicode = 0126;
},
{
glyphname = I;
lastChange = "2016-08-18 21:45:13 +0000";
layers = (
{
anchors = (
{
name = bottom;
position = "{158, 0}";
},
{
name = top;
position = "{158, 710}";
}
);
background = {
paths = (
{
closed = 1;
nodes = (
"256 0 LINE",
"256 710 LINE",
"61 710 LINE",
"61 0 LINE"
);
}
);
};
layerId = UUID0;
paths = (
{
closed = 1;
nodes = (
"256 0 LINE",
"256 710 LINE",
"61 710 LINE",
"61 0 LINE"
);
}
);
width = 317;
}
);
leftKerningGroup = I;
rightKerningGroup = I;
unicode = 0049;
},
{
glyphname = J;
lastChange = "2016-08-18 21:45:13 +0000";
layers = (
{
anchors = (
{
name = top;
position = "{350, 710}";
}
);
background = {
paths = (
{
closed = 1;
nodes = (
"1 33 LINE",
"43 4 OFFCURVE",
"94 -11 OFFCURVE",
"155 -11 CURVE SMOOTH",
"413 -11 OFFCURVE",
"445 133 OFFCURVE",
"445 349 CURVE SMOOTH",
"445 710 LINE",
"250 710 LINE",
"250 349 LINE SMOOTH",
"250 214 OFFCURVE",
"238 162 OFFCURVE",
"155 162 CURVE SMOOTH",
"98 162 OFFCURVE",
"50 186 OFFCURVE",
"42 192 CURVE"
);
}
);
};
layerId = UUID0;
paths = (
{
closed = 1;
nodes = (
"1 33 LINE",
"43 4 OFFCURVE",
"94 -11 OFFCURVE",
"155 -11 CURVE SMOOTH",
"413 -11 OFFCURVE",
"445 133 OFFCURVE",
"445 349 CURVE SMOOTH",
"445 710 LINE",
"250 710 LINE",
"250 349 LINE SMOOTH",
"250 214 OFFCURVE",
"238 162 OFFCURVE",
"155 162 CURVE SMOOTH",
"98 162 OFFCURVE",
"50 186 OFFCURVE",
"42 192 CURVE"
);
}
);
width = 498;
}
);
leftKerningGroup = J;
rightKerningGroup = J;
unicode = 004A;
},
{
glyphname = K;
lastChange = "2016-08-18 21:45:13 +0000";
layers = (
{
anchors = (
{
name = bottom;
position = "{370, 0}";
}
);
background = {
paths = (
{
closed = 1;
nodes = (
"256 0 LINE",
"256 205 LINE",
"310 261 LINE",
"486 0 LINE",
"710 0 LINE",
"434 392 LINE",
"692 710 LINE",
"472 710 LINE",
"256 440 LINE",
"256 710 LINE",
"61 710 LINE",
"61 0 LINE"
);
}
);
};
layerId = UUID0;
paths = (
{
closed = 1;
nodes = (
"256 0 LINE",
"256 205 LINE",
"310 261 LINE",
"486 0 LINE",
"710 0 LINE",
"434 392 LINE",
"692 710 LINE",
"472 710 LINE",
"256 440 LINE",
"256 710 LINE",
"61 710 LINE",
"61 0 LINE"
);
}
);
width = 690;
}
);
leftKerningGroup = I;
rightKerningGroup = K;
unicode = 004B;
},
{
glyphname = L;
lastChange = "2016-08-18 21:45:13 +0000";
layers = (
{
anchors = (
{
name = bottom;
position = "{337, 0}";
},
{
name = top;
position = "{371, 710}";
}
);
background = {
paths = (
{
closed = 1;
nodes = (
"578 0 LINE",
"578 170 LINE",
"256 170 LINE",
"256 710 LINE",
"61 710 LINE",
"61 0 LINE"
);
}
);
};
layerId = UUID0;
paths = (
{
closed = 1;
nodes = (
"578 0 LINE",
"578 170 LINE",
"256 170 LINE",
"256 710 LINE",
"61 710 LINE",
"61 0 LINE"
);
}
);
width = 585;
}
);
leftKerningGroup = I;
rightKerningGroup = L;
unicode = 004C;
},
{
glyphname = Lslash;
lastChange = "2016-08-18 21:45:13 +0000";
layers = (
{
background = {
paths = (
{
closed = 1;
nodes = (
"382 426 LINE",
"339 527 LINE",
"-17 353 LINE",
"26 252 LINE"
);
}
);
};
components = (
{
name = L;
transform = "{1, 0, 0, 1, 12, 0}";
}
);
layerId = UUID0;
paths = (
{
closed = 1;
nodes = (
"382 426 LINE",
"339 527 LINE",
"-17 353 LINE",
"26 252 LINE"
);
}
);
width = 597;
}
);
leftKerningGroup = I;
rightKerningGroup = L;
unicode = 0141;
},
{
glyphname = M;
lastChange = "2016-08-18 21:45:13 +0000";
layers = (
{
background = {
paths = (
{
closed = 1;
nodes = (
"793 0 LINE",
"793 710 LINE",
"581 710 LINE",
"427 376 LINE",
"274 710 LINE",
"61 710 LINE",
"61 0 LINE",
"256 0 LINE",
"256 374 LINE",
"375 111 LINE",
"479 111 LINE",
"598 374 LINE",
"598 0 LINE"
);
}
);
};
layerId = UUID0;
paths = (
{
closed = 1;
nodes = (
"793 0 LINE",
"793 710 LINE",
"581 710 LINE",
"427 376 LINE",
"274 710 LINE",
"61 710 LINE",
"61 0 LINE",
"256 0 LINE",
"256 374 LINE",
"375 111 LINE",
"479 111 LINE",
"598 374 LINE",
"598 0 LINE"
);
}
);
width = 854;
}
);
leftKerningGroup = I;
rightKerningGroup = I;
unicode = 004D;
},
{
glyphname = N;
lastChange = "2016-08-18 21:45:13 +0000";
layers = (
{
anchors = (
{
name = bottom;
position = "{374, 0}";
},
{
name = top;
position = "{374, 709}";
}
);
background = {
paths = (
{
closed = 1;
nodes = (
"538 0 LINE",
"693 0 LINE",
"693 710 LINE",
"498 710 LINE",
"498 349 LINE",
"213 710 LINE",
"61 710 LINE",
"61 0 LINE",
"256 0 LINE",
"256 349 LINE"
);
}
);
};
layerId = UUID0;
paths = (
{
closed = 1;
nodes = (
"538 0 LINE",
"693 0 LINE",
"693 710 LINE",
"498 710 LINE",
"498 349 LINE",
"213 710 LINE",
"61 710 LINE",
"61 0 LINE",
"256 0 LINE",
"256 349 LINE"
);
}
);
width = 754;
}
);
leftKerningGroup = I;
rightKerningGroup = I;
unicode = 004E;
},
{
glyphname = Eng;
lastChange = "2016-08-18 21:45:13 +0000";
layers = (
{
background = {
paths = (
{
closed = 1;
nodes = (
"483 44 LINE",
"483 -3 LINE SMOOTH",
"483 -30 OFFCURVE",
"468 -46 OFFCURVE",
"443 -46 CURVE SMOOTH",
"425 -46 OFFCURVE",
"407 -38 OFFCURVE",
"396 -26 CURVE",
"318 -155 LINE",
"359 -190 OFFCURVE",
"412 -209 OFFCURVE",
"467 -209 CURVE SMOOTH",
"584 -209 OFFCURVE",
"673 -125 OFFCURVE",
"673 5 CURVE SMOOTH",
"673 709 LINE",
"478 709 LINE",
"478 359 LINE",
"211 710 LINE",
"61 710 LINE",
"61 0 LINE",
"256 0 LINE",
"256 343 LINE"
);
}
);
};
layerId = UUID0;
paths = (
{
closed = 1;
nodes = (
"483 44 LINE",
"483 -3 LINE SMOOTH",
"483 -30 OFFCURVE",
"468 -46 OFFCURVE",
"443 -46 CURVE SMOOTH",
"425 -46 OFFCURVE",
"407 -38 OFFCURVE",
"396 -26 CURVE",
"318 -155 LINE",
"359 -190 OFFCURVE",
"412 -209 OFFCURVE",
"467 -209 CURVE SMOOTH",
"584 -209 OFFCURVE",
"673 -125 OFFCURVE",
"673 5 CURVE SMOOTH",
"673 709 LINE",
"478 709 LINE",
"478 359 LINE",
"211 710 LINE",
"61 710 LINE",
"61 0 LINE",
"256 0 LINE",
"256 343 LINE"
);
}
);
width = 735;
}
);
leftKerningGroup = I;
rightKerningGroup = I;
unicode = 014A;
},
{
glyphname = O;
lastChange = "2016-08-18 21:45:13 +0000";
layers = (
{
anchors = (
{
name = bottom;
position = "{381, 0}";
},
{
name = top;
position = "{385, 710}";
}
);
background = {
paths = (
{
closed = 1;
nodes = (
"593 -6 OFFCURVE",
"743 166 OFFCURVE",
"743 352 CURVE SMOOTH",
"743 533 OFFCURVE",
"601 714 OFFCURVE",
"385 714 CURVE SMOOTH",
"174 714 OFFCURVE",
"22 544 OFFCURVE",
"22 356 CURVE SMOOTH",
"22 173 OFFCURVE",
"166 -6 OFFCURVE",
"381 -6 CURVE SMOOTH"
);
},
{
closed = 1;
nodes = (
"220 447 OFFCURVE",
"270 541 OFFCURVE",
"382 541 CURVE SMOOTH",
"492 541 OFFCURVE",
"545 452 OFFCURVE",
"545 356 CURVE SMOOTH",
"545 263 OFFCURVE",
"496 167 OFFCURVE",
"383 167 CURVE SMOOTH",
"272 167 OFFCURVE",
"220 259 OFFCURVE",
"220 354 CURVE SMOOTH"
);
}
);
};
layerId = UUID0;
paths = (
{
closed = 1;
nodes = (
"381 -6 LINE SMOOTH",
"593 -6 OFFCURVE",
"743 166 OFFCURVE",
"743 352 CURVE SMOOTH",
"743 533 OFFCURVE",
"601 714 OFFCURVE",
"385 714 CURVE SMOOTH",
"174 714 OFFCURVE",
"22 544 OFFCURVE",
"22 356 CURVE SMOOTH",
"22 173 OFFCURVE",
"166 -6 OFFCURVE",
"381 -6 CURVE SMOOTH"
);
},
{
closed = 1;
nodes = (
"220 354 LINE SMOOTH",
"220 447 OFFCURVE",
"270 541 OFFCURVE",
"382 541 CURVE SMOOTH",
"492 541 OFFCURVE",
"545 452 OFFCURVE",
"545 356 CURVE SMOOTH",
"545 263 OFFCURVE",
"496 167 OFFCURVE",
"383 167 CURVE SMOOTH",
"272 167 OFFCURVE",
"220 259 OFFCURVE",
"220 354 CURVE SMOOTH"
);
}
);
width = 765;
}
);
leftKerningGroup = O;
rightKerningGroup = O;
unicode = 004F;
},
{
glyphname = OE;
lastChange = "2016-08-18 21:45:13 +0000";
layers = (
{
background = {
paths = (
{
closed = 1;
nodes = (
"709 170 LINE",
"709 276 LINE",
"937 276 LINE",
"937 446 LINE",
"709 446 LINE",
"709 540 LINE",
"991 540 LINE",
"991 710 LINE",
"514 710 LINE",
"514 670 LINE",
"470 698 OFFCURVE",
"420 715 OFFCURVE",
"365 715 CURVE SMOOTH",
"166 715 OFFCURVE",
"22 544 OFFCURVE",
"22 356 CURVE SMOOTH",
"22 173 OFFCURVE",
"158 -5 OFFCURVE",
"361 -5 CURVE SMOOTH",
"417 -5 OFFCURVE",
"469 13 OFFCURVE",
"514 41 CURVE",
"514 0 LINE",
"1000 0 LINE",
"1000 170 LINE"
);
},
{
closed = 1;
nodes = (
"266 168 OFFCURVE",
"220 259 OFFCURVE",
"220 354 CURVE SMOOTH",
"220 447 OFFCURVE",
"264 542 OFFCURVE",
"362 542 CURVE SMOOTH",
"458 542 OFFCURVE",
"505 452 OFFCURVE",
"505 356 CURVE SMOOTH",
"505 263 OFFCURVE",
"462 168 OFFCURVE",
"363 168 CURVE SMOOTH"
);
}
);
};
layerId = UUID0;
paths = (
{
closed = 1;
nodes = (
"709 170 LINE",
"709 276 LINE",
"937 276 LINE",
"937 446 LINE",
"709 446 LINE",
"709 540 LINE",
"991 540 LINE",
"991 710 LINE",
"514 710 LINE",
"514 670 LINE",
"470 698 OFFCURVE",
"420 715 OFFCURVE",
"365 715 CURVE SMOOTH",
"166 715 OFFCURVE",
"22 544 OFFCURVE",
"22 356 CURVE SMOOTH",
"22 173 OFFCURVE",
"158 -5 OFFCURVE",
"361 -5 CURVE SMOOTH",
"417 -5 OFFCURVE",
"469 13 OFFCURVE",
"514 41 CURVE",
"514 0 LINE",
"1000 0 LINE",
"1000 170 LINE"
);
},
{
closed = 1;
nodes = (
"363 168 LINE SMOOTH",
"266 168 OFFCURVE",
"220 259 OFFCURVE",
"220 354 CURVE SMOOTH",
"220 447 OFFCURVE",
"264 542 OFFCURVE",
"362 542 CURVE SMOOTH",
"458 542 OFFCURVE",
"505 452 OFFCURVE",
"505 356 CURVE SMOOTH",
"505 263 OFFCURVE",
"462 168 OFFCURVE",
"363 168 CURVE SMOOTH"
);
}
);
width = 1030;
}
);
leftKerningGroup = O;
rightKerningGroup = E;
unicode = 0152;
},
{
glyphname = P;
lastChange = "2016-08-18 21:45:13 +0000";
layers = (
{
background = {
paths = (
{
closed = 1;
nodes = (
"256 0 LINE",
"256 218 LINE",
"372 218 LINE SMOOTH",
"512 218 OFFCURVE",
"606 338 OFFCURVE",
"606 464 CURVE SMOOTH",
"606 585 OFFCURVE",
"506 710 OFFCURVE",
"367 710 CURVE SMOOTH",
"61 710 LINE",
"61 0 LINE"
);
},
{
closed = 1;
nodes = (
"256 540 LINE",
"354 540 LINE SMOOTH",
"378 540 OFFCURVE",
"408 523 OFFCURVE",
"408 464 CURVE SMOOTH",
"408 407 OFFCURVE",
"383 388 OFFCURVE",
"359 388 CURVE SMOOTH",
"256 388 LINE"
);
}
);
};
layerId = UUID0;
paths = (
{
closed = 1;
nodes = (
"256 0 LINE",
"256 218 LINE",
"372 218 LINE SMOOTH",
"512 218 OFFCURVE",
"606 338 OFFCURVE",
"606 464 CURVE SMOOTH",
"606 585 OFFCURVE",
"506 710 OFFCURVE",
"367 710 CURVE SMOOTH",
"61 710 LINE",
"61 0 LINE"
);
},
{
closed = 1;
nodes = (
"256 540 LINE",
"354 540 LINE SMOOTH",
"378 540 OFFCURVE",
"408 523 OFFCURVE",
"408 464 CURVE SMOOTH",
"408 407 OFFCURVE",
"383 388 OFFCURVE",
"359 388 CURVE SMOOTH",
"256 388 LINE"
);
}
);
width = 623;
}
);
leftKerningGroup = I;
unicode = 0050;
},
{
glyphname = Thorn;
lastChange = "2016-08-18 21:45:13 +0000";
layers = (
{
background = {
paths = (
{
closed = 1;
nodes = (
"256 592 LINE",
"256 710 LINE",
"61 710 LINE",
"61 0 LINE",
"256 0 LINE",
"256 101 LINE",
"357 101 LINE SMOOTH",
"497 101 OFFCURVE",
"591 220 OFFCURVE",
"591 347 CURVE SMOOTH",
"591 468 OFFCURVE",
"491 592 OFFCURVE",
"352 592 CURVE SMOOTH"
);
},
{
closed = 1;
nodes = (
"256 271 LINE",
"256 422 LINE",
"342 422 LINE SMOOTH",
"367 422 OFFCURVE",
"396 396 OFFCURVE",
"396 347 CURVE SMOOTH",
"396 300 OFFCURVE",
"372 271 OFFCURVE",
"347 271 CURVE SMOOTH"
);
}
);
};
layerId = UUID0;
paths = (
{
closed = 1;
nodes = (
"352 592 LINE",
"256 592 LINE",
"256 710 LINE",
"61 710 LINE",
"61 0 LINE",
"256 0 LINE",
"256 101 LINE",
"357 101 LINE SMOOTH",
"497 101 OFFCURVE",
"591 220 OFFCURVE",
"591 347 CURVE SMOOTH",
"591 468 OFFCURVE",
"491 592 OFFCURVE",
"352 592 CURVE SMOOTH"
);
},
{
closed = 1;
nodes = (
"347 271 LINE",
"256 271 LINE",
"256 422 LINE",
"342 422 LINE SMOOTH",
"367 422 OFFCURVE",
"396 396 OFFCURVE",
"396 347 CURVE SMOOTH",
"396 300 OFFCURVE",
"372 271 OFFCURVE",
"347 271 CURVE SMOOTH"
);
}
);
width = 605;
}
);
leftKerningGroup = I;
unicode = 00DE;
},
{
glyphname = Q;
lastChange = "2016-08-18 21:45:13 +0000";
layers = (
{
background = {
paths = (
{
closed = 1;
nodes = (
"593 -5 OFFCURVE",
"743 166 OFFCURVE",
"743 352 CURVE SMOOTH",
"743 533 OFFCURVE",
"601 715 OFFCURVE",
"385 715 CURVE SMOOTH",
"174 715 OFFCURVE",
"22 544 OFFCURVE",
"22 356 CURVE SMOOTH",
"22 173 OFFCURVE",
"166 -5 OFFCURVE",
"381 -5 CURVE SMOOTH"
);
},
{
closed = 1;
nodes = (
"272 168 OFFCURVE",
"220 259 OFFCURVE",
"220 354 CURVE SMOOTH",
"220 447 OFFCURVE",
"270 542 OFFCURVE",
"382 542 CURVE SMOOTH",
"492 542 OFFCURVE",
"545 452 OFFCURVE",
"545 356 CURVE SMOOTH",
"545 263 OFFCURVE",
"496 168 OFFCURVE",
"383 168 CURVE SMOOTH"
);
},
{
closed = 1;
nodes = (
"579 0 LINE",
"761 0 LINE",
"485 300 LINE",
"303 300 LINE"
);
}
);
};
layerId = UUID0;
paths = (
{
closed = 1;
nodes = (
"381 -5 LINE SMOOTH",
"593 -5 OFFCURVE",
"743 166 OFFCURVE",
"743 352 CURVE SMOOTH",
"743 533 OFFCURVE",
"601 715 OFFCURVE",
"385 715 CURVE SMOOTH",
"174 715 OFFCURVE",
"22 544 OFFCURVE",
"22 356 CURVE SMOOTH",
"22 173 OFFCURVE",
"166 -5 OFFCURVE",
"381 -5 CURVE SMOOTH"
);
},
{
closed = 1;
nodes = (
"383 168 LINE SMOOTH",
"272 168 OFFCURVE",
"220 259 OFFCURVE",
"220 354 CURVE SMOOTH",
"220 447 OFFCURVE",
"270 542 OFFCURVE",
"382 542 CURVE SMOOTH",
"492 542 OFFCURVE",
"545 452 OFFCURVE",
"545 356 CURVE SMOOTH",
"545 263 OFFCURVE",
"496 168 OFFCURVE",
"383 168 CURVE SMOOTH"
);
},
{
closed = 1;
nodes = (
"579 0 LINE",
"761 0 LINE",
"485 300 LINE",
"303 300 LINE"
);
}
);
width = 765;
}
);
leftKerningGroup = O;
rightKerningGroup = O;
unicode = 0051;
},
{
glyphname = R;
lastChange = "2016-08-18 21:45:13 +0000";
layers = (
{
anchors = (
{
name = bottom;
position = "{354, 0}";
},
{
name = top;
position = "{319, 709}";
}
);
background = {
paths = (
{
closed = 1;
nodes = (
"256 0 LINE",
"256 218 LINE",
"329 218 LINE",
"454 0 LINE",
"674 0 LINE",
"524 261 LINE",
"588 306 OFFCURVE",
"626 382 OFFCURVE",
"626 464 CURVE SMOOTH",
"626 585 OFFCURVE",
"526 710 OFFCURVE",
"387 710 CURVE SMOOTH",
"61 710 LINE",
"61 0 LINE"
);
},
{
closed = 1;
nodes = (
"256 540 LINE",
"374 540 LINE SMOOTH",
"398 540 OFFCURVE",
"428 513 OFFCURVE",
"428 464 CURVE SMOOTH",
"428 416 OFFCURVE",
"403 388 OFFCURVE",
"379 388 CURVE SMOOTH",
"256 388 LINE"
);
}
);
};
layerId = UUID0;
paths = (
{
closed = 1;
nodes = (
"256 0 LINE",
"256 218 LINE",
"329 218 LINE",
"454 0 LINE",
"674 0 LINE",
"524 261 LINE",
"588 306 OFFCURVE",
"626 382 OFFCURVE",
"626 464 CURVE SMOOTH",
"626 585 OFFCURVE",
"526 710 OFFCURVE",
"387 710 CURVE SMOOTH",
"61 710 LINE",
"61 0 LINE"
);
},
{
closed = 1;
nodes = (
"256 540 LINE",
"374 540 LINE SMOOTH",
"398 540 OFFCURVE",
"428 513 OFFCURVE",
"428 464 CURVE SMOOTH",
"428 416 OFFCURVE",
"403 388 OFFCURVE",
"379 388 CURVE SMOOTH",
"256 388 LINE"
);
}
);
width = 675;
}
);
leftKerningGroup = I;
rightKerningGroup = R;
unicode = 0052;
},
{
glyphname = S;
lastChange = "2016-08-18 21:45:13 +0000";
layers = (
{
anchors = (
{
name = bottom;
position = "{327, 0}";
},
{
name = top;
position = "{327, 710}";
}
);
background = {
paths = (
{
closed = 1;
nodes = (
"575 639 LINE",
"511 671 OFFCURVE",
"412 716 OFFCURVE",
"309 716 CURVE SMOOTH",
"169 716 OFFCURVE",
"44 633 OFFCURVE",
"44 476 CURVE SMOOTH",
"44 372 OFFCURVE",
"99 319 OFFCURVE",
"224 277 CURVE SMOOTH",
"309 248 OFFCURVE",
"382 239 OFFCURVE",
"382 198 CURVE SMOOTH",
"382 179 OFFCURVE",
"367 167 OFFCURVE",
"325 167 CURVE SMOOTH",
"216 167 OFFCURVE",
"97 245 OFFCURVE",
"97 245 CURVE",
"13 74 LINE",
"98 24 OFFCURVE",
"219 -9 OFFCURVE",
"322 -9 CURVE SMOOTH",
"454 -9 OFFCURVE",
"592 46 OFFCURVE",
"592 217 CURVE SMOOTH",
"592 350 OFFCURVE",
"509 396 OFFCURVE",
"378 437 CURVE SMOOTH",
"296 463 OFFCURVE",
"246 471 OFFCURVE",
"246 508 CURVE SMOOTH",
"246 533 OFFCURVE",
"269 543 OFFCURVE",
"303 543 CURVE SMOOTH",
"388 543 OFFCURVE",
"491 478 OFFCURVE",
"491 478 CURVE"
);
}
);
};
layerId = UUID0;
paths = (
{
closed = 1;
nodes = (
"575 639 LINE",
"511 671 OFFCURVE",
"412 716 OFFCURVE",
"309 716 CURVE SMOOTH",
"169 716 OFFCURVE",
"44 633 OFFCURVE",
"44 476 CURVE SMOOTH",
"44 372 OFFCURVE",
"99 319 OFFCURVE",
"224 277 CURVE SMOOTH",
"309 248 OFFCURVE",
"382 239 OFFCURVE",
"382 198 CURVE SMOOTH",
"382 179 OFFCURVE",
"367 167 OFFCURVE",
"325 167 CURVE SMOOTH",
"216 167 OFFCURVE",
"97 245 OFFCURVE",
"97 245 CURVE",
"13 74 LINE",
"98 24 OFFCURVE",
"219 -9 OFFCURVE",
"322 -9 CURVE SMOOTH",
"454 -9 OFFCURVE",
"592 46 OFFCURVE",
"592 217 CURVE SMOOTH",
"592 350 OFFCURVE",
"509 396 OFFCURVE",
"378 437 CURVE SMOOTH",
"296 463 OFFCURVE",
"246 471 OFFCURVE",
"246 508 CURVE SMOOTH",
"246 533 OFFCURVE",
"269 543 OFFCURVE",
"303 543 CURVE SMOOTH",
"388 543 OFFCURVE",
"491 478 OFFCURVE",
"491 478 CURVE"
);
}
);
width = 617;
}
);
leftKerningGroup = S;
rightKerningGroup = S;
unicode = 0053;
},
{
glyphname = Schwa;
lastChange = "2016-08-18 21:45:13 +0000";
layers = (
{
background = {
paths = (
{
closed = 1;
nodes = (
"611 -5 OFFCURVE",
"736 187 OFFCURVE",
"736 366 CURVE SMOOTH",
"736 523 OFFCURVE",
"607 714 OFFCURVE",
"375 714 CURVE SMOOTH",
"214 714 OFFCURVE",
"99 637 OFFCURVE",
"45 521 CURVE",
"248 464 LINE",
"263 514 OFFCURVE",
"321 543 OFFCURVE",
"377 543 CURVE SMOOTH",
"447 543 OFFCURVE",
"514 505 OFFCURVE",
"523 411 CURVE",
"18 411 LINE",
"15 391 OFFCURVE",
"12 363 OFFCURVE",
"12 338 CURVE SMOOTH",
"12 189 OFFCURVE",
"138 -5 OFFCURVE",
"375 -5 CURVE SMOOTH"
);
},
{
closed = 1;
nodes = (
"298 165 OFFCURVE",
"240 203 OFFCURVE",
"228 268 CURVE",
"518 268 LINE",
"507 203 OFFCURVE",
"453 165 OFFCURVE",
"378 165 CURVE SMOOTH"
);
}
);
};
layerId = UUID0;
paths = (
{
closed = 1;
nodes = (
"375 -5 LINE SMOOTH",
"611 -5 OFFCURVE",
"736 187 OFFCURVE",
"736 366 CURVE SMOOTH",
"736 523 OFFCURVE",
"607 714 OFFCURVE",
"375 714 CURVE SMOOTH",
"214 714 OFFCURVE",
"99 637 OFFCURVE",
"45 521 CURVE",
"248 464 LINE",
"263 514 OFFCURVE",
"321 543 OFFCURVE",
"377 543 CURVE SMOOTH",
"447 543 OFFCURVE",
"514 505 OFFCURVE",
"523 411 CURVE",
"18 411 LINE",
"15 391 OFFCURVE",
"12 363 OFFCURVE",
"12 338 CURVE SMOOTH",
"12 189 OFFCURVE",
"138 -5 OFFCURVE",
"375 -5 CURVE SMOOTH"
);
},
{
closed = 1;
nodes = (
"378 165 LINE SMOOTH",
"298 165 OFFCURVE",
"240 203 OFFCURVE",
"228 268 CURVE",
"518 268 LINE",
"507 203 OFFCURVE",
"453 165 OFFCURVE",
"378 165 CURVE SMOOTH"
);
}
);
width = 758;
}
);
rightKerningGroup = O;
unicode = 018F;
},
{
glyphname = T;
lastChange = "2016-08-18 21:45:13 +0000";
layers = (
{
anchors = (
{
name = bottom;
position = "{320, 0}";
},
{
name = top;
position = "{320, 710}";
}
);
background = {
paths = (
{
closed = 1;
nodes = (
"614 710 LINE",
"10 710 LINE",
"10 540 LINE",
"215 540 LINE",
"215 0 LINE",
"410 0 LINE",
"410 540 LINE",
"614 540 LINE"
);
}
);
};
layerId = UUID0;
paths = (
{
closed = 1;
nodes = (
"614 710 LINE",
"10 710 LINE",
"10 540 LINE",
"215 540 LINE",
"215 0 LINE",
"410 0 LINE",
"410 540 LINE",
"614 540 LINE"
);
}
);
width = 624;
}
);
leftKerningGroup = T;
rightKerningGroup = T;
unicode = 0054;
},
{
glyphname = Tbar;
lastChange = "2016-08-18 21:45:13 +0000";
layers = (
{
background = {
paths = (
{
closed = 1;
nodes = (
"585 268 LINE",
"585 356 LINE",
"61 356 LINE",
"61 268 LINE"
);
}
);
};
components = (
{
name = T;
transform = "{1, 0, 0, 1, 11, 0}";
}
);
layerId = UUID0;
paths = (
{
closed = 1;
nodes = (
"585 268 LINE",
"585 356 LINE",
"61 356 LINE",
"61 268 LINE"
);
}
);
width = 646;
}
);
leftKerningGroup = T;
rightKerningGroup = T;
unicode = 0166;
},
{
glyphname = U;
lastChange = "2016-08-18 21:45:13 +0000";
layers = (
{
anchors = (
{
name = bottom;
position = "{371, 0}";
},
{
name = top;
position = "{371, 710}";
}
);
background = {
paths = (
{
closed = 1;
nodes = (
"281 167 OFFCURVE",
"246 251 OFFCURVE",
"246 345 CURVE SMOOTH",
"246 710 LINE",
"51 710 LINE",
"51 345 LINE SMOOTH",
"51 157 OFFCURVE",
"144 -6 OFFCURVE",
"371 -6 CURVE SMOOTH",
"591 -6 OFFCURVE",
"692 147 OFFCURVE",
"692 345 CURVE SMOOTH",
"692 710 LINE",
"497 710 LINE",
"497 345 LINE SMOOTH",
"497 253 OFFCURVE",
"463 167 OFFCURVE",
"371 167 CURVE SMOOTH"
);
}
);
};
layerId = UUID0;
paths = (
{
closed = 1;
nodes = (
"371 167 LINE SMOOTH",
"281 167 OFFCURVE",
"246 251 OFFCURVE",
"246 345 CURVE SMOOTH",
"246 710 LINE",
"51 710 LINE",
"51 345 LINE SMOOTH",
"51 157 OFFCURVE",
"144 -6 OFFCURVE",
"371 -6 CURVE SMOOTH",
"591 -6 OFFCURVE",
"692 147 OFFCURVE",
"692 345 CURVE SMOOTH",
"692 710 LINE",
"497 710 LINE",
"497 345 LINE SMOOTH",
"497 253 OFFCURVE",
"463 167 OFFCURVE",
"371 167 CURVE SMOOTH"
);
}
);
width = 743;
}
);
leftKerningGroup = U;
rightKerningGroup = U;
unicode = 0055;
},
{
glyphname = V;
lastChange = "2016-08-18 21:45:13 +0000";
layers = (
{
background = {
paths = (
{
closed = 1;
nodes = (
"-8 710 LINE",
"256 0 LINE",
"418 0 LINE",
"679 710 LINE",
"474 710 LINE",
"337 245 LINE",
"198 710 LINE"
);
}
);
};
layerId = UUID0;
paths = (
{
closed = 1;
nodes = (
"-8 710 LINE",
"256 0 LINE",
"418 0 LINE",
"679 710 LINE",
"474 710 LINE",
"337 245 LINE",
"198 710 LINE"
);
}
);
width = 672;
}
);
unicode = 0056;
},
{
glyphname = W;
lastChange = "2016-08-18 21:45:13 +0000";
layers = (
{
anchors = (
{
name = top;
position = "{528, 710}";
}
);
background = {
paths = (
{
closed = 1;
nodes = (
"402 371 LINE",
"353 223 LINE",
"199 710 LINE",
"-12 710 LINE",
"266 0 LINE",
"428 0 LINE",
"528 254 LINE",
"629 0 LINE",
"791 0 LINE",
"1069 710 LINE",
"857 710 LINE",
"704 223 LINE",
"653 371 LINE",
"770 710 LINE",
"591 710 LINE",
"528 491 LINE",
"466 710 LINE",
"287 710 LINE"
);
}
);
};
layerId = UUID0;
paths = (
{
closed = 1;
nodes = (
"402 371 LINE",
"353 223 LINE",
"199 710 LINE",
"-12 710 LINE",
"266 0 LINE",
"428 0 LINE",
"528 254 LINE",
"629 0 LINE",
"791 0 LINE",
"1069 710 LINE",
"857 710 LINE",
"704 223 LINE",
"653 371 LINE",
"770 710 LINE",
"591 710 LINE",
"528 491 LINE",
"466 710 LINE",
"287 710 LINE"
);
}
);
width = 1057;
}
);
leftKerningGroup = W;
rightKerningGroup = W;
unicode = 0057;
},
{
glyphname = X;
lastChange = "2016-08-18 21:45:13 +0000";
layers = (
{
anchors = (
{
name = top;
position = "{329, 710}";
}
);
background = {
paths = (
{
closed = 1;
nodes = (
"-11 710 LINE",
"226 350 LINE",
"-3 0 LINE",
"208 0 LINE",
"329 214 LINE",
"450 0 LINE",
"660 0 LINE",
"431 350 LINE",
"668 710 LINE",
"458 710 LINE",
"329 486 LINE",
"200 710 LINE"
);
}
);
};
layerId = UUID0;
paths = (
{
closed = 1;
nodes = (
"-11 710 LINE",
"226 350 LINE",
"-3 0 LINE",
"208 0 LINE",
"329 214 LINE",
"450 0 LINE",
"660 0 LINE",
"431 350 LINE",
"668 710 LINE",
"458 710 LINE",
"329 486 LINE",
"200 710 LINE"
);
}
);
width = 657;
}
);
unicode = 0058;
},
{
glyphname = Y;
lastChange = "2016-08-18 21:45:13 +0000";
layers = (
{
anchors = (
{
name = top;
position = "{332, 710}";
}
);
background = {
paths = (
{
closed = 1;
nodes = (
"-6 710 LINE",
"235 237 LINE",
"235 0 LINE",
"429 0 LINE",
"429 235 LINE",
"674 710 LINE",
"462 710 LINE",
"332 403 LINE",
"205 710 LINE"
);
}
);
};
layerId = UUID0;
paths = (
{
closed = 1;
nodes = (
"-6 710 LINE",
"235 237 LINE",
"235 0 LINE",
"429 0 LINE",
"429 235 LINE",
"674 710 LINE",
"462 710 LINE",
"332 403 LINE",
"205 710 LINE"
);
}
);
width = 666;
}
);
leftKerningGroup = Y;
rightKerningGroup = Y;
unicode = 0059;
},
{
glyphname = Z;
lastChange = "2016-08-18 21:45:13 +0000";
layers = (
{
anchors = (
{
name = top;
position = "{320, 710}";
}
);
background = {
paths = (
{
closed = 1;
nodes = (
"27 0 LINE",
"590 0 LINE",
"590 170 LINE",
"272 170 LINE",
"584 565 LINE",
"584 710 LINE",
"42 710 LINE",
"42 540 LINE",
"359 540 LINE",
"27 145 LINE"
);
}
);
};
layerId = UUID0;
paths = (
{
closed = 1;
nodes = (
"27 0 LINE",
"590 0 LINE",
"590 170 LINE",
"272 170 LINE",
"584 565 LINE",
"584 710 LINE",
"42 710 LINE",
"42 540 LINE",
"359 540 LINE",
"27 145 LINE"
);
}
);
width = 622;
}
);
leftKerningGroup = Z;
rightKerningGroup = Z;
unicode = 005A;
},
{
glyphname = G.alt;
lastChange = "2016-08-18 21:45:13 +0000";
layers = (
{
background = {
paths = (
{
closed = 1;
nodes = (
"571 -5 OFFCURVE",
"693 137 OFFCURVE",
"693 309 CURVE SMOOTH",
"693 398 LINE",
"371 398 LINE",
"371 228 LINE",
"482 228 LINE",
"464 197 OFFCURVE",
"416 168 OFFCURVE",
"361 168 CURVE SMOOTH",
"256 168 OFFCURVE",
"220 273 OFFCURVE",
"220 356 CURVE SMOOTH",
"220 448 OFFCURVE",
"265 542 OFFCURVE",
"362 542 CURVE SMOOTH",
"450 542 OFFCURVE",
"485 463 OFFCURVE",
"491 449 CURVE",
"646 570 LINE",
"593 664 OFFCURVE",
"496 715 OFFCURVE",
"374 715 CURVE SMOOTH",
"153 715 OFFCURVE",
"22 541 OFFCURVE",
"22 361 CURVE SMOOTH",
"22 171 OFFCURVE",
"169 -5 OFFCURVE",
"381 -5 CURVE SMOOTH"
);
}
);
};
layerId = UUID0;
paths = (
{
closed = 1;
nodes = (
"381 -5 LINE SMOOTH",
"571 -5 OFFCURVE",
"693 137 OFFCURVE",
"693 309 CURVE SMOOTH",
"693 398 LINE",
"371 398 LINE",
"371 228 LINE",
"482 228 LINE",
"464 197 OFFCURVE",
"416 168 OFFCURVE",
"361 168 CURVE SMOOTH",
"256 168 OFFCURVE",
"220 273 OFFCURVE",
"220 356 CURVE SMOOTH",
"220 448 OFFCURVE",
"265 542 OFFCURVE",
"362 542 CURVE SMOOTH",
"450 542 OFFCURVE",
"485 463 OFFCURVE",
"491 449 CURVE",
"646 570 LINE",
"593 664 OFFCURVE",
"496 715 OFFCURVE",
"374 715 CURVE SMOOTH",
"153 715 OFFCURVE",
"22 541 OFFCURVE",
"22 361 CURVE SMOOTH",
"22 171 OFFCURVE",
"169 -5 OFFCURVE",
"381 -5 CURVE SMOOTH"
);
}
);
width = 711;
}
);
leftKerningGroup = O;
},
{
glyphname = W.alt;
lastChange = "2016-08-18 21:45:13 +0000";
layers = (
{
background = {
paths = (
{
closed = 1;
nodes = (
"927 711 LINE",
"809 296 LINE",
"680 710 LINE",
"468 710 LINE",
"340 295 LINE",
"221 710 LINE",
"0 710 LINE",
"219 0 LINE",
"421 0 LINE",
"574 391 LINE",
"728 1 LINE",
"930 1 LINE",
"1149 711 LINE"
);
}
);
};
layerId = UUID0;
paths = (
{
closed = 1;
nodes = (
"927 711 LINE",
"809 296 LINE",
"680 710 LINE",
"468 710 LINE",
"340 295 LINE",
"221 710 LINE",
"0 710 LINE",
"219 0 LINE",
"421 0 LINE",
"574 391 LINE",
"728 1 LINE",
"930 1 LINE",
"1149 711 LINE"
);
}
);
width = 1149;
}
);
},
{
glyphname = a;
lastChange = "2016-08-18 21:45:13 +0000";
layers = (
{
anchors = (
{
name = bottom;
position = "{518, 0}";
},
{
name = top;
position = "{280, 526}";
}
);
background = {
paths = (
{
closed = 1;
nodes = (
"272 -10 OFFCURVE",
"335 22 OFFCURVE",
"382 82 CURVE",
"386 63 LINE SMOOTH",
"396 15 OFFCURVE",
"430 -10 OFFCURVE",
"498 -10 CURVE SMOOTH",
"519 -10 OFFCURVE",
"547 -7 OFFCURVE",
"578 0 CURVE",
"578 160 LINE",
"551 162 OFFCURVE",
"542 174 OFFCURVE",
"542 210 CURVE SMOOTH",
"542 312 LINE SMOOTH",
"542 460 OFFCURVE",
"447 536 OFFCURVE",
"280 536 CURVE SMOOTH",
"190 536 OFFCURVE",
"113 514 OFFCURVE",
"43 469 CURVE",
"98 351 LINE",
"154 388 OFFCURVE",
"202 408 OFFCURVE",
"261 408 CURVE SMOOTH",
"325 408 OFFCURVE",
"352 384 OFFCURVE",
"352 335 CURVE SMOOTH",
"352 319 LINE",
"325 332 OFFCURVE",
"287 339 OFFCURVE",
"246 339 CURVE SMOOTH",
"113 339 OFFCURVE",
"19 265 OFFCURVE",
"19 159 CURVE SMOOTH",
"19 62 OFFCURVE",
"98 -10 OFFCURVE",
"203 -10 CURVE SMOOTH"
);
},
{
closed = 1;
nodes = (
"224 126 OFFCURVE",
"198 147 OFFCURVE",
"198 176 CURVE SMOOTH",
"198 210 OFFCURVE",
"233 236 OFFCURVE",
"279 236 CURVE SMOOTH",
"300 236 OFFCURVE",
"330 230 OFFCURVE",
"352 222 CURVE",
"352 183 LINE SMOOTH",
"352 170 OFFCURVE",
"342 156 OFFCURVE",
"327 146 CURVE SMOOTH",
"309 134 OFFCURVE",
"283 126 OFFCURVE",
"260 126 CURVE SMOOTH"
);
}
);
};
layerId = UUID0;
paths = (
{
closed = 1;
nodes = (
"203 -10 LINE SMOOTH",
"272 -10 OFFCURVE",
"335 22 OFFCURVE",
"382 82 CURVE",
"386 63 LINE SMOOTH",
"396 15 OFFCURVE",
"430 -10 OFFCURVE",
"498 -10 CURVE SMOOTH",
"519 -10 OFFCURVE",
"547 -7 OFFCURVE",
"578 0 CURVE",
"578 160 LINE",
"551 162 OFFCURVE",
"542 174 OFFCURVE",
"542 210 CURVE SMOOTH",
"542 312 LINE SMOOTH",
"542 460 OFFCURVE",
"447 536 OFFCURVE",
"280 536 CURVE SMOOTH",
"190 536 OFFCURVE",
"113 514 OFFCURVE",
"43 469 CURVE",
"98 351 LINE",
"154 388 OFFCURVE",
"202 408 OFFCURVE",
"261 408 CURVE SMOOTH",
"325 408 OFFCURVE",
"352 384 OFFCURVE",
"352 335 CURVE SMOOTH",
"352 319 LINE",
"325 332 OFFCURVE",
"287 339 OFFCURVE",
"246 339 CURVE SMOOTH",
"113 339 OFFCURVE",
"19 265 OFFCURVE",
"19 159 CURVE SMOOTH",
"19 62 OFFCURVE",
"98 -10 OFFCURVE",
"203 -10 CURVE SMOOTH"
);
},
{
closed = 1;
nodes = (
"260 126 LINE SMOOTH",
"224 126 OFFCURVE",
"198 147 OFFCURVE",
"198 176 CURVE SMOOTH",
"198 210 OFFCURVE",
"233 236 OFFCURVE",
"279 236 CURVE SMOOTH",
"300 236 OFFCURVE",
"330 230 OFFCURVE",
"352 222 CURVE",
"352 183 LINE SMOOTH",
"352 170 OFFCURVE",
"342 156 OFFCURVE",
"327 146 CURVE SMOOTH",
"309 134 OFFCURVE",
"283 126 OFFCURVE",
"260 126 CURVE SMOOTH"
);
}
);
width = 599;
}
);
leftKerningGroup = a;
rightKerningGroup = a;
unicode = 0061;
},
{
glyphname = ae;
lastChange = "2016-08-18 21:45:13 +0000";
layers = (
{
anchors = (
{
name = top;
position = "{465, 526}";
}
);
background = {
paths = (
{
closed = 1;
nodes = (
"270 -10 OFFCURVE",
"356 20 OFFCURVE",
"407 92 CURVE",
"455 31 OFFCURVE",
"534 -10 OFFCURVE",
"640 -10 CURVE SMOOTH",
"768 -10 OFFCURVE",
"859 49 OFFCURVE",
"902 133 CURVE",
"741 179 LINE",
"729 146 OFFCURVE",
"687 126 OFFCURVE",
"646 126 CURVE SMOOTH",
"602 126 OFFCURVE",
"558 149 OFFCURVE",
"554 205 CURVE",
"923 205 LINE",
"926 221 OFFCURVE",
"928 243 OFFCURVE",
"928 263 CURVE SMOOTH",
"928 408 OFFCURVE",
"828 536 OFFCURVE",
"640 536 CURVE SMOOTH",
"568 536 OFFCURVE",
"510 517 OFFCURVE",
"465 486 CURVE",
"420 519 OFFCURVE",
"358 536 OFFCURVE",
"280 536 CURVE SMOOTH",
"190 536 OFFCURVE",
"113 514 OFFCURVE",
"43 469 CURVE",
"98 351 LINE",
"154 388 OFFCURVE",
"202 408 OFFCURVE",
"261 408 CURVE SMOOTH",
"325 408 OFFCURVE",
"351 384 OFFCURVE",
"352 335 CURVE",
"352 319 LINE",
"325 332 OFFCURVE",
"287 339 OFFCURVE",
"246 339 CURVE SMOOTH",
"113 339 OFFCURVE",
"19 265 OFFCURVE",
"19 159 CURVE SMOOTH",
"19 62 OFFCURVE",
"98 -10 OFFCURVE",
"203 -10 CURVE SMOOTH"
);
},
{
closed = 1;
nodes = (
"224 126 OFFCURVE",
"198 147 OFFCURVE",
"198 176 CURVE SMOOTH",
"198 210 OFFCURVE",
"233 236 OFFCURVE",
"279 236 CURVE SMOOTH",
"300 236 OFFCURVE",
"330 230 OFFCURVE",
"352 222 CURVE",
"352 183 LINE SMOOTH",
"352 170 OFFCURVE",
"342 156 OFFCURVE",
"327 146 CURVE SMOOTH",
"309 134 OFFCURVE",
"283 126 OFFCURVE",
"260 126 CURVE SMOOTH"
);
},
{
closed = 1;
nodes = (
"550 319 LINE",
"556 370 OFFCURVE",
"589 401 OFFCURVE",
"637 401 CURVE SMOOTH",
"685 401 OFFCURVE",
"718 370 OFFCURVE",
"724 319 CURVE"
);
}
);
};
layerId = UUID0;
paths = (
{
closed = 1;
nodes = (
"203 -10 LINE SMOOTH",
"270 -10 OFFCURVE",
"356 20 OFFCURVE",
"407 92 CURVE",
"455 31 OFFCURVE",
"534 -10 OFFCURVE",
"640 -10 CURVE SMOOTH",
"768 -10 OFFCURVE",
"859 49 OFFCURVE",
"902 133 CURVE",
"741 179 LINE",
"729 146 OFFCURVE",
"687 126 OFFCURVE",
"646 126 CURVE SMOOTH",
"602 126 OFFCURVE",
"558 149 OFFCURVE",
"554 205 CURVE",
"923 205 LINE",
"926 221 OFFCURVE",
"928 243 OFFCURVE",
"928 263 CURVE SMOOTH",
"928 408 OFFCURVE",
"828 536 OFFCURVE",
"640 536 CURVE SMOOTH",
"568 536 OFFCURVE",
"510 517 OFFCURVE",
"465 486 CURVE",
"420 519 OFFCURVE",
"358 536 OFFCURVE",
"280 536 CURVE SMOOTH",
"190 536 OFFCURVE",
"113 514 OFFCURVE",
"43 469 CURVE",
"98 351 LINE",
"154 388 OFFCURVE",
"202 408 OFFCURVE",
"261 408 CURVE SMOOTH",
"325 408 OFFCURVE",
"351 384 OFFCURVE",
"352 335 CURVE",
"352 319 LINE",
"325 332 OFFCURVE",
"287 339 OFFCURVE",
"246 339 CURVE SMOOTH",
"113 339 OFFCURVE",
"19 265 OFFCURVE",
"19 159 CURVE SMOOTH",
"19 62 OFFCURVE",
"98 -10 OFFCURVE",
"203 -10 CURVE SMOOTH"
);
},
{
closed = 1;
nodes = (
"260 126 LINE SMOOTH",
"224 126 OFFCURVE",
"198 147 OFFCURVE",
"198 176 CURVE SMOOTH",
"198 210 OFFCURVE",
"233 236 OFFCURVE",
"279 236 CURVE SMOOTH",
"300 236 OFFCURVE",
"330 230 OFFCURVE",
"352 222 CURVE",
"352 183 LINE SMOOTH",
"352 170 OFFCURVE",
"342 156 OFFCURVE",
"327 146 CURVE SMOOTH",
"309 134 OFFCURVE",
"283 126 OFFCURVE",
"260 126 CURVE SMOOTH"
);
},
{
closed = 1;
nodes = (
"550 319 LINE",
"556 370 OFFCURVE",
"589 401 OFFCURVE",
"637 401 CURVE SMOOTH",
"685 401 OFFCURVE",
"718 370 OFFCURVE",
"724 319 CURVE"
);
}
);
width = 942;
}
);
leftKerningGroup = a;
rightKerningGroup = e;
unicode = 00E6;
},
{
glyphname = b;
lastChange = "2016-08-18 21:45:13 +0000";
layers = (
{
background = {
paths = (
{
closed = 1;
nodes = (
"523 -10 OFFCURVE",
"627 105 OFFCURVE",
"627 261 CURVE SMOOTH",
"627 419 OFFCURVE",
"531 536 OFFCURVE",
"402 536 CURVE SMOOTH",
"326 536 OFFCURVE",
"268 505 OFFCURVE",
"238 448 CURVE",
"238 730 LINE",
"48 730 LINE",
"48 0 LINE",
"213 0 LINE",
"213 82 LINE",
"246 22 OFFCURVE",
"304 -10 OFFCURVE",
"383 -10 CURVE SMOOTH"
);
},
{
closed = 1;
nodes = (
"292 150 OFFCURVE",
"263 168 OFFCURVE",
"238 204 CURVE",
"238 298 LINE",
"256 344 OFFCURVE",
"296 376 OFFCURVE",
"336 376 CURVE SMOOTH",
"391 376 OFFCURVE",
"432 324 OFFCURVE",
"432 260 CURVE SMOOTH",
"432 194 OFFCURVE",
"390 150 OFFCURVE",
"328 150 CURVE SMOOTH"
);
}
);
};
layerId = UUID0;
paths = (
{
closed = 1;
nodes = (
"383 -10 LINE SMOOTH",
"523 -10 OFFCURVE",
"627 105 OFFCURVE",
"627 261 CURVE SMOOTH",
"627 419 OFFCURVE",
"531 536 OFFCURVE",
"402 536 CURVE SMOOTH",
"326 536 OFFCURVE",
"268 505 OFFCURVE",
"238 448 CURVE",
"238 730 LINE",
"48 730 LINE",
"48 0 LINE",
"213 0 LINE",
"213 82 LINE",
"246 22 OFFCURVE",
"304 -10 OFFCURVE",
"383 -10 CURVE SMOOTH"
);
},
{
closed = 1;
nodes = (
"328 150 LINE SMOOTH",
"292 150 OFFCURVE",
"263 168 OFFCURVE",
"238 204 CURVE",
"238 298 LINE",
"256 344 OFFCURVE",
"296 376 OFFCURVE",
"336 376 CURVE SMOOTH",
"391 376 OFFCURVE",
"432 324 OFFCURVE",
"432 260 CURVE SMOOTH",
"432 194 OFFCURVE",
"390 150 OFFCURVE",
"328 150 CURVE SMOOTH"
);
}
);
width = 647;
}
);
leftKerningGroup = h;
rightKerningGroup = b;
unicode = 0062;
},
{
glyphname = c;
lastChange = "2016-08-18 21:45:13 +0000";
layers = (
{
anchors = (
{
name = bottom;
position = "{308, 0}";
},
{
name = top;
position = "{308, 526}";
}
);
background = {
paths = (
{
closed = 1;
nodes = (
"19 119 OFFCURVE",
"122 -10 OFFCURVE",
"308 -10 CURVE SMOOTH",
"435 -10 OFFCURVE",
"522 49 OFFCURVE",
"565 133 CURVE",
"380 189 LINE",
"363 164 OFFCURVE",
"338 150 OFFCURVE",
"307 150 CURVE SMOOTH",
"255 150 OFFCURVE",
"214 192 OFFCURVE",
"214 263 CURVE SMOOTH",
"214 334 OFFCURVE",
"255 376 OFFCURVE",
"307 376 CURVE SMOOTH",
"338 376 OFFCURVE",
"363 362 OFFCURVE",
"380 337 CURVE",
"565 393 LINE",
"522 477 OFFCURVE",
"435 536 OFFCURVE",
"308 536 CURVE SMOOTH",
"122 536 OFFCURVE",
"19 407 OFFCURVE",
"19 263 CURVE SMOOTH"
);
}
);
};
layerId = UUID0;
paths = (
{
closed = 1;
nodes = (
"19 263 LINE SMOOTH",
"19 119 OFFCURVE",
"122 -10 OFFCURVE",
"308 -10 CURVE SMOOTH",
"435 -10 OFFCURVE",
"522 49 OFFCURVE",
"565 133 CURVE",
"380 189 LINE",
"363 164 OFFCURVE",
"338 150 OFFCURVE",
"307 150 CURVE SMOOTH",
"255 150 OFFCURVE",
"214 192 OFFCURVE",
"214 263 CURVE SMOOTH",
"214 334 OFFCURVE",
"255 376 OFFCURVE",
"307 376 CURVE SMOOTH",
"338 376 OFFCURVE",
"363 362 OFFCURVE",
"380 337 CURVE",
"565 393 LINE",
"522 477 OFFCURVE",
"435 536 OFFCURVE",
"308 536 CURVE SMOOTH",
"122 536 OFFCURVE",
"19 407 OFFCURVE",
"19 263 CURVE SMOOTH"
);
}
);
width = 577;
}
);
leftKerningGroup = o;
rightKerningGroup = c;
unicode = 0063;
},
{
glyphname = d;
lastChange = "2016-08-18 21:45:13 +0000";
layers = (
{
anchors = (
{
name = top;
position = "{681, 526}";
}
);
background = {
paths = (
{
closed = 1;
nodes = (
"337 -10 OFFCURVE",
"403 18 OFFCURVE",
"439 82 CURVE",
"443 63 LINE SMOOTH",
"453 14 OFFCURVE",
"491 -10 OFFCURVE",
"555 -10 CURVE SMOOTH",
"575 -10 OFFCURVE",
"601 -7 OFFCURVE",
"635 0 CURVE",
"635 160 LINE",
"608 162 OFFCURVE",
"599 174 OFFCURVE",
"599 210 CURVE SMOOTH",
"599 730 LINE",
"409 730 LINE",
"409 448 LINE",
"379 503 OFFCURVE",
"318 536 OFFCURVE",
"250 536 CURVE SMOOTH",
"115 536 OFFCURVE",
"20 419 OFFCURVE",
"20 264 CURVE SMOOTH",
"20 103 OFFCURVE",
"123 -10 OFFCURVE",
"268 -10 CURVE SMOOTH"
);
},
{
closed = 1;
nodes = (
"258 150 OFFCURVE",
"216 194 OFFCURVE",
"216 260 CURVE SMOOTH",
"216 324 OFFCURVE",
"257 376 OFFCURVE",
"312 376 CURVE SMOOTH",
"352 376 OFFCURVE",
"392 344 OFFCURVE",
"410 298 CURVE",
"410 204 LINE",
"385 168 OFFCURVE",
"356 150 OFFCURVE",
"320 150 CURVE SMOOTH"
);
}
);
};
layerId = UUID0;
paths = (
{
closed = 1;
nodes = (
"268 -10 LINE SMOOTH",
"337 -10 OFFCURVE",
"403 18 OFFCURVE",
"439 82 CURVE",
"443 63 LINE SMOOTH",
"453 14 OFFCURVE",
"491 -10 OFFCURVE",
"555 -10 CURVE SMOOTH",
"575 -10 OFFCURVE",
"601 -7 OFFCURVE",
"635 0 CURVE",
"635 160 LINE",
"608 162 OFFCURVE",
"599 174 OFFCURVE",
"599 210 CURVE SMOOTH",
"599 730 LINE",
"409 730 LINE",
"409 448 LINE",
"379 503 OFFCURVE",
"318 536 OFFCURVE",
"250 536 CURVE SMOOTH",
"115 536 OFFCURVE",
"20 419 OFFCURVE",
"20 264 CURVE SMOOTH",
"20 103 OFFCURVE",
"123 -10 OFFCURVE",
"268 -10 CURVE SMOOTH"
);
},
{
closed = 1;
nodes = (
"320 150 LINE SMOOTH",
"258 150 OFFCURVE",
"216 194 OFFCURVE",
"216 260 CURVE SMOOTH",
"216 324 OFFCURVE",
"257 376 OFFCURVE",
"312 376 CURVE SMOOTH",
"352 376 OFFCURVE",
"392 344 OFFCURVE",
"410 298 CURVE",
"410 204 LINE",
"385 168 OFFCURVE",
"356 150 OFFCURVE",
"320 150 CURVE SMOOTH"
);
}
);
width = 665;
}
);
leftKerningGroup = d;
rightKerningGroup = d;
unicode = 0064;
},
{
glyphname = eth;
lastChange = "2016-08-18 21:45:13 +0000";
layers = (
{
background = {
paths = (
{
closed = 1;
nodes = (
"598 480 OFFCURVE",
"487 667 OFFCURVE",
"338 730 CURVE",
"108 730 LINE",
"277 646 OFFCURVE",
"369 551 OFFCURVE",
"403 425 CURVE",
"365 454 OFFCURVE",
"313 471 OFFCURVE",
"260 471 CURVE SMOOTH",
"126 471 OFFCURVE",
"22 367 OFFCURVE",
"22 234 CURVE SMOOTH",
"22 91 OFFCURVE",
"141 -10 OFFCURVE",
"310 -10 CURVE SMOOTH",
"489 -10 OFFCURVE",
"598 103 OFFCURVE",
"598 291 CURVE SMOOTH"
);
},
{
closed = 1;
nodes = (
"217 286 OFFCURVE",
"254 320 OFFCURVE",
"310 320 CURVE SMOOTH",
"366 320 OFFCURVE",
"403 286 OFFCURVE",
"403 235 CURVE SMOOTH",
"403 184 OFFCURVE",
"366 150 OFFCURVE",
"310 150 CURVE SMOOTH",
"254 150 OFFCURVE",
"217 184 OFFCURVE",
"217 235 CURVE SMOOTH"
);
},
{
closed = 1;
nodes = (
"499 712 LINE",
"376 648 LINE",
"322 634 LINE",
"216 581 LINE",
"268 510 LINE",
"375 563 LINE",
"433 580 LINE",
"551 641 LINE"
);
}
);
};
layerId = UUID0;
paths = (
{
closed = 1;
nodes = (
"598 291 LINE SMOOTH",
"598 480 OFFCURVE",
"487 667 OFFCURVE",
"338 730 CURVE",
"108 730 LINE",
"277 646 OFFCURVE",
"369 551 OFFCURVE",
"403 425 CURVE",
"365 454 OFFCURVE",
"313 471 OFFCURVE",
"260 471 CURVE SMOOTH",
"126 471 OFFCURVE",
"22 367 OFFCURVE",
"22 234 CURVE SMOOTH",
"22 91 OFFCURVE",
"141 -10 OFFCURVE",
"310 -10 CURVE SMOOTH",
"489 -10 OFFCURVE",
"598 103 OFFCURVE",
"598 291 CURVE SMOOTH"
);
},
{
closed = 1;
nodes = (
"217 235 LINE SMOOTH",
"217 286 OFFCURVE",
"254 320 OFFCURVE",
"310 320 CURVE SMOOTH",
"366 320 OFFCURVE",
"403 286 OFFCURVE",
"403 235 CURVE SMOOTH",
"403 184 OFFCURVE",
"366 150 OFFCURVE",
"310 150 CURVE SMOOTH",
"254 150 OFFCURVE",
"217 184 OFFCURVE",
"217 235 CURVE SMOOTH"
);
},
{
closed = 1;
nodes = (
"499 712 LINE",
"376 648 LINE",
"322 634 LINE",
"216 581 LINE",
"268 510 LINE",
"375 563 LINE",
"433 580 LINE",
"551 641 LINE"
);
}
);
width = 621;
}
);
unicode = 00F0;
},
{
glyphname = dcroat;
lastChange = "2016-08-18 21:45:13 +0000";
layers = (
{
background = {
paths = (
{
closed = 1;
nodes = (
"657 579 LINE",
"657 688 LINE",
"322 688 LINE",
"322 579 LINE"
);
}
);
};
components = (
{
name = d;
}
);
layerId = UUID0;
paths = (
{
closed = 1;
nodes = (
"657 579 LINE",
"657 688 LINE",
"322 688 LINE",
"322 579 LINE"
);
}
);
width = 665;
}
);
leftKerningGroup = d;
rightKerningGroup = d;
unicode = 0111;
},
{
glyphname = e;
lastChange = "2016-08-18 21:45:13 +0000";
layers = (
{
anchors = (
{
name = bottom;
position = "{307, 0}";
},
{
name = top;
position = "{307, 526}";
}
);
background = {
paths = (
{
closed = 1;
nodes = (
"435 -10 OFFCURVE",
"526 49 OFFCURVE",
"569 133 CURVE",
"408 179 LINE",
"396 146 OFFCURVE",
"354 126 OFFCURVE",
"313 126 CURVE SMOOTH",
"269 126 OFFCURVE",
"225 149 OFFCURVE",
"221 205 CURVE",
"590 205 LINE",
"593 221 OFFCURVE",
"595 243 OFFCURVE",
"595 263 CURVE SMOOTH",
"595 408 OFFCURVE",
"495 536 OFFCURVE",
"307 536 CURVE SMOOTH",
"119 536 OFFCURVE",
"19 408 OFFCURVE",
"19 256 CURVE SMOOTH",
"19 115 OFFCURVE",
"122 -10 OFFCURVE",
"307 -10 CURVE SMOOTH"
);
},
{
closed = 1;
nodes = (
"217 319 LINE",
"223 370 OFFCURVE",
"256 401 OFFCURVE",
"304 401 CURVE SMOOTH",
"352 401 OFFCURVE",
"385 370 OFFCURVE",
"391 319 CURVE"
);
}
);
};
layerId = UUID0;
paths = (
{
closed = 1;
nodes = (
"307 -10 LINE SMOOTH",
"435 -10 OFFCURVE",
"526 49 OFFCURVE",
"569 133 CURVE",
"408 179 LINE",
"396 146 OFFCURVE",
"354 126 OFFCURVE",
"313 126 CURVE SMOOTH",
"269 126 OFFCURVE",
"225 149 OFFCURVE",
"221 205 CURVE",
"590 205 LINE",
"593 221 OFFCURVE",
"595 243 OFFCURVE",
"595 263 CURVE SMOOTH",
"595 408 OFFCURVE",
"495 536 OFFCURVE",
"307 536 CURVE SMOOTH",
"119 536 OFFCURVE",
"19 408 OFFCURVE",
"19 256 CURVE SMOOTH",
"19 115 OFFCURVE",
"122 -10 OFFCURVE",
"307 -10 CURVE SMOOTH"
);
},
{
closed = 1;
nodes = (
"217 319 LINE",
"223 370 OFFCURVE",
"256 401 OFFCURVE",
"304 401 CURVE SMOOTH",
"352 401 OFFCURVE",
"385 370 OFFCURVE",
"391 319 CURVE"
);
}
);
width = 609;
}
);
leftKerningGroup = o;
rightKerningGroup = e;
unicode = 0065;
},
{
glyphname = schwa;
lastChange = "2016-08-18 21:45:13 +0000";
layers = (
{
background = {
paths = (
{
closed = 1;
nodes = (
"490 -10 OFFCURVE",
"590 118 OFFCURVE",
"590 270 CURVE SMOOTH",
"590 411 OFFCURVE",
"487 536 OFFCURVE",
"302 536 CURVE SMOOTH",
"174 536 OFFCURVE",
"83 477 OFFCURVE",
"40 393 CURVE",
"201 347 LINE",
"213 380 OFFCURVE",
"255 400 OFFCURVE",
"296 400 CURVE SMOOTH",
"340 400 OFFCURVE",
"384 377 OFFCURVE",
"388 321 CURVE",
"19 321 LINE",
"16 305 OFFCURVE",
"14 283 OFFCURVE",
"14 263 CURVE SMOOTH",
"14 118 OFFCURVE",
"114 -10 OFFCURVE",
"302 -10 CURVE SMOOTH"
);
},
{
closed = 1;
nodes = (
"257 125 OFFCURVE",
"224 156 OFFCURVE",
"218 207 CURVE",
"392 207 LINE",
"386 156 OFFCURVE",
"353 125 OFFCURVE",
"305 125 CURVE SMOOTH"
);
}
);
};
layerId = UUID0;
paths = (
{
closed = 1;
nodes = (
"302 -10 LINE SMOOTH",
"490 -10 OFFCURVE",
"590 118 OFFCURVE",
"590 270 CURVE SMOOTH",
"590 411 OFFCURVE",
"487 536 OFFCURVE",
"302 536 CURVE SMOOTH",
"174 536 OFFCURVE",
"83 477 OFFCURVE",
"40 393 CURVE",
"201 347 LINE",
"213 380 OFFCURVE",
"255 400 OFFCURVE",
"296 400 CURVE SMOOTH",
"340 400 OFFCURVE",
"384 377 OFFCURVE",
"388 321 CURVE",
"19 321 LINE",
"16 305 OFFCURVE",
"14 283 OFFCURVE",
"14 263 CURVE SMOOTH",
"14 118 OFFCURVE",
"114 -10 OFFCURVE",
"302 -10 CURVE SMOOTH"
);
},
{
closed = 1;
nodes = (
"305 125 LINE SMOOTH",
"257 125 OFFCURVE",
"224 156 OFFCURVE",
"218 207 CURVE",
"392 207 LINE",
"386 156 OFFCURVE",
"353 125 OFFCURVE",
"305 125 CURVE SMOOTH"
);
}
);
width = 609;
}
);
rightKerningGroup = o;
unicode = 0259;
},
{
glyphname = f;
lastChange = "2016-08-18 21:45:13 +0000";
layers = (
{
background = {
paths = (
{
closed = 1;
nodes = (
"275 0 LINE",
"275 322 LINE",
"390 322 LINE",
"390 465 LINE",
"275 465 LINE",
"275 529 LINE SMOOTH",
"275 563 OFFCURVE",
"290 580 OFFCURVE",
"321 580 CURVE SMOOTH",
"341 580 OFFCURVE",
"370 574 OFFCURVE",
"392 566 CURVE",
"424 710 LINE",
"371 730 OFFCURVE",
"323 740 OFFCURVE",
"278 740 CURVE SMOOTH",
"162 740 OFFCURVE",
"85 654 OFFCURVE",
"85 522 CURVE SMOOTH",
"85 465 LINE",
"20 465 LINE",
"20 322 LINE",
"85 322 LINE",
"85 0 LINE"
);
}
);
};
layerId = UUID0;
paths = (
{
closed = 1;
nodes = (
"275 0 LINE",
"275 322 LINE",
"390 322 LINE",
"390 465 LINE",
"275 465 LINE",
"275 529 LINE SMOOTH",
"275 563 OFFCURVE",
"290 580 OFFCURVE",
"321 580 CURVE SMOOTH",
"341 580 OFFCURVE",
"370 574 OFFCURVE",
"392 566 CURVE",
"424 710 LINE",
"371 730 OFFCURVE",
"323 740 OFFCURVE",
"278 740 CURVE SMOOTH",
"162 740 OFFCURVE",
"85 654 OFFCURVE",
"85 522 CURVE SMOOTH",
"85 465 LINE",
"20 465 LINE",
"20 322 LINE",
"85 322 LINE",
"85 0 LINE"
);
}
);
width = 402;
}
);
leftKerningGroup = f;
rightKerningGroup = f;
unicode = 0066;
},
{
glyphname = g;
lastChange = "2016-08-18 21:45:13 +0000";
layers = (
{
anchors = (
{
name = top;
position = "{353, 526}";
}
);
background = {
paths = (
{
closed = 1;
nodes = (
"317 0 OFFCURVE",
"379 27 OFFCURVE",
"409 82 CURVE",
"409 48 LINE SMOOTH",
"409 -46 OFFCURVE",
"348 -82 OFFCURVE",
"279 -82 CURVE SMOOTH",
"218 -82 OFFCURVE",
"161 -54 OFFCURVE",
"123 -18 CURVE",
"23 -122 LINE",
"87 -187 OFFCURVE",
"168 -223 OFFCURVE",
"279 -223 CURVE SMOOTH",
"471 -223 OFFCURVE",
"599 -116 OFFCURVE",
"599 48 CURVE SMOOTH",
"599 526 LINE",
"434 526 LINE",
"434 448 LINE",
"401 505 OFFCURVE",
"341 536 OFFCURVE",
"266 536 CURVE SMOOTH",
"122 536 OFFCURVE",
"21 421 OFFCURVE",
"21 264 CURVE SMOOTH",
"21 115 OFFCURVE",
"113 0 OFFCURVE",
"250 0 CURVE SMOOTH"
);
},
{
closed = 1;
nodes = (
"258 150 OFFCURVE",
"215 194 OFFCURVE",
"215 259 CURVE SMOOTH",
"215 323 OFFCURVE",
"256 376 OFFCURVE",
"310 376 CURVE SMOOTH",
"350 376 OFFCURVE",
"390 346 OFFCURVE",
"409 298 CURVE",
"409 204 LINE",
"384 168 OFFCURVE",
"356 150 OFFCURVE",
"318 150 CURVE SMOOTH"
);
}
);
};
layerId = UUID0;
paths = (
{
closed = 1;
nodes = (
"250 0 LINE SMOOTH",
"317 0 OFFCURVE",
"379 27 OFFCURVE",
"409 82 CURVE",
"409 48 LINE SMOOTH",
"409 -46 OFFCURVE",
"348 -82 OFFCURVE",
"279 -82 CURVE SMOOTH",
"218 -82 OFFCURVE",
"161 -54 OFFCURVE",
"123 -18 CURVE",
"23 -122 LINE",
"87 -187 OFFCURVE",
"168 -223 OFFCURVE",
"279 -223 CURVE SMOOTH",
"471 -223 OFFCURVE",
"599 -116 OFFCURVE",
"599 48 CURVE SMOOTH",
"599 526 LINE",
"434 526 LINE",
"434 448 LINE",
"401 505 OFFCURVE",
"341 536 OFFCURVE",
"266 536 CURVE SMOOTH",
"122 536 OFFCURVE",
"21 421 OFFCURVE",
"21 264 CURVE SMOOTH",
"21 115 OFFCURVE",
"113 0 OFFCURVE",
"250 0 CURVE SMOOTH"
);
},
{
closed = 1;
nodes = (
"318 150 LINE SMOOTH",
"258 150 OFFCURVE",
"215 194 OFFCURVE",
"215 259 CURVE SMOOTH",
"215 323 OFFCURVE",
"256 376 OFFCURVE",
"310 376 CURVE SMOOTH",
"350 376 OFFCURVE",
"390 346 OFFCURVE",
"409 298 CURVE",
"409 204 LINE",
"384 168 OFFCURVE",
"356 150 OFFCURVE",
"318 150 CURVE SMOOTH"
);
}
);
width = 647;
}
);
leftKerningGroup = d;
rightKerningGroup = a.alt;
unicode = 0067;
},
{
glyphname = h;
lastChange = "2016-08-18 21:45:13 +0000";
layers = (
{
anchors = (
{
name = top;
position = "{381, 525}";
}
);
background = {
paths = (
{
closed = 1;
nodes = (
"577 346 LINE SMOOTH",
"577 423 OFFCURVE",
"560 536 OFFCURVE",
"412 536 CURVE SMOOTH",
"338 536 OFFCURVE",
"275 505 OFFCURVE",
"238 448 CURVE",
"238 730 LINE",
"48 730 LINE",
"48 0 LINE",
"238 0 LINE",
"238 295 LINE",
"256 341 OFFCURVE",
"301 370 OFFCURVE",
"326 370 CURVE SMOOTH",
"361 370 OFFCURVE",
"387 348 OFFCURVE",
"387 296 CURVE SMOOTH",
"387 0 LINE",
"577 0 LINE"
);
}
);
};
layerId = UUID0;
paths = (
{
closed = 1;
nodes = (
"577 346 LINE SMOOTH",
"577 423 OFFCURVE",
"560 536 OFFCURVE",
"412 536 CURVE SMOOTH",
"338 536 OFFCURVE",
"275 505 OFFCURVE",
"238 448 CURVE",
"238 730 LINE",
"48 730 LINE",
"48 0 LINE",
"238 0 LINE",
"238 295 LINE",
"256 341 OFFCURVE",
"301 370 OFFCURVE",
"326 370 CURVE SMOOTH",
"361 370 OFFCURVE",
"387 348 OFFCURVE",
"387 296 CURVE SMOOTH",
"387 0 LINE",
"577 0 LINE"
);
}
);
width = 621;
}
);
leftKerningGroup = h;
rightKerningGroup = h;
unicode = 0068;
},
{
glyphname = hbar;
lastChange = "2016-08-18 21:45:13 +0000";
layers = (
{
background = {
paths = (
{
closed = 1;
nodes = (
"353 579 LINE",
"353 688 LINE",
"18 688 LINE",
"18 579 LINE"
);
}
);
};
components = (
{
name = h;
}
);
layerId = UUID0;
paths = (
{
closed = 1;
nodes = (
"353 579 LINE",
"353 688 LINE",
"18 688 LINE",
"18 579 LINE"
);
}
);
width = 621;
}
);
leftKerningGroup = h;
rightKerningGroup = h;
unicode = 0127;
},
{
glyphname = i;
lastChange = "2016-08-18 21:45:13 +0000";
layers = (
{
background = {
paths = (
{
closed = 1;
nodes = (
"238 0 LINE",
"238 526 LINE",
"48 526 LINE",
"48 0 LINE"
);
},
{
closed = 1;
nodes = (
"238 570 LINE",
"238 730 LINE",
"48 730 LINE",
"48 570 LINE"
);
}
);
};
layerId = UUID0;
paths = (
{
closed = 1;
nodes = (
"238 0 LINE",
"238 526 LINE",
"48 526 LINE",
"48 0 LINE"
);
},
{
closed = 1;
nodes = (
"238 570 LINE",
"238 730 LINE",
"48 730 LINE",
"48 570 LINE"
);
}
);
width = 286;
}
);
leftKerningGroup = i;
rightKerningGroup = i;
unicode = 0069;
},
{
glyphname = dotlessi;
lastChange = "2016-08-18 21:45:13 +0000";
layers = (
{
anchors = (
{
name = bottom;
position = "{143, 0}";
},
{
name = top;
position = "{143, 526}";
}
);
background = {
paths = (
{
closed = 1;
nodes = (
"238 0 LINE",
"238 526 LINE",
"48 526 LINE",
"48 0 LINE"
);
}
);
};
layerId = UUID0;
paths = (
{
closed = 1;
nodes = (
"238 0 LINE",
"238 526 LINE",
"48 526 LINE",
"48 0 LINE"
);
}
);
width = 286;
}
);
leftKerningGroup = i;
rightKerningGroup = i;
unicode = 0131;
},
{
glyphname = j;
lastChange = "2016-08-18 21:45:13 +0000";
layers = (
{
background = {
paths = (
{
closed = 1;
nodes = (
"157 -209 OFFCURVE",
"242 -119 OFFCURVE",
"242 12 CURVE SMOOTH",
"242 526 LINE",
"52 526 LINE",
"52 -3 LINE SMOOTH",
"52 -30 OFFCURVE",
"37 -46 OFFCURVE",
"12 -46 CURVE SMOOTH",
"-6 -46 OFFCURVE",
"-24 -38 OFFCURVE",
"-35 -26 CURVE",
"-113 -155 LINE",
"-72 -190 OFFCURVE",
"-19 -209 OFFCURVE",
"36 -209 CURVE SMOOTH"
);
},
{
closed = 1;
nodes = (
"242 570 LINE",
"242 730 LINE",
"52 730 LINE",
"52 570 LINE"
);
}
);
};
layerId = UUID0;
paths = (
{
closed = 1;
nodes = (
"36 -209 LINE SMOOTH",
"157 -209 OFFCURVE",
"242 -119 OFFCURVE",
"242 12 CURVE SMOOTH",
"242 526 LINE",
"52 526 LINE",
"52 -3 LINE SMOOTH",
"52 -30 OFFCURVE",
"37 -46 OFFCURVE",
"12 -46 CURVE SMOOTH",
"-6 -46 OFFCURVE",
"-24 -38 OFFCURVE",
"-35 -26 CURVE",
"-113 -155 LINE",
"-72 -190 OFFCURVE",
"-19 -209 OFFCURVE",
"36 -209 CURVE SMOOTH"
);
},
{
closed = 1;
nodes = (
"242 570 LINE",
"242 730 LINE",
"52 730 LINE",
"52 570 LINE"
);
}
);
width = 290;
}
);
leftKerningGroup = i;
rightKerningGroup = i;
unicode = 006A;
},
{
glyphname = dotlessj;
lastChange = "2016-08-18 21:45:13 +0000";
layers = (
{
anchors = (
{
name = top;
position = "{143, 526}";
}
);
background = {
paths = (
{
closed = 1;
nodes = (
"153 -209 OFFCURVE",
"238 -119 OFFCURVE",
"238 12 CURVE SMOOTH",
"238 526 LINE",
"48 526 LINE",
"48 -3 LINE SMOOTH",
"48 -30 OFFCURVE",
"33 -46 OFFCURVE",
"8 -46 CURVE SMOOTH",
"-10 -46 OFFCURVE",
"-28 -38 OFFCURVE",
"-39 -26 CURVE",
"-117 -155 LINE",
"-76 -190 OFFCURVE",
"-23 -209 OFFCURVE",
"32 -209 CURVE SMOOTH"
);
}
);
};
layerId = UUID0;
paths = (
{
closed = 1;
nodes = (
"32 -209 LINE SMOOTH",
"153 -209 OFFCURVE",
"238 -119 OFFCURVE",
"238 12 CURVE SMOOTH",
"238 526 LINE",
"48 526 LINE",
"48 -3 LINE SMOOTH",
"48 -30 OFFCURVE",
"33 -46 OFFCURVE",
"8 -46 CURVE SMOOTH",
"-10 -46 OFFCURVE",
"-28 -38 OFFCURVE",
"-39 -26 CURVE",
"-117 -155 LINE",
"-76 -190 OFFCURVE",
"-23 -209 OFFCURVE",
"32 -209 CURVE SMOOTH"
);
}
);
width = 286;
}
);
leftKerningGroup = i;
rightKerningGroup = i;
unicode = 0237;
},
{
glyphname = k;
lastChange = "2016-08-18 21:45:13 +0000";
layers = (
{
anchors = (
{
name = bottom;
position = "{300, 0}";
}
);
background = {
paths = (
{
closed = 1;
nodes = (
"596 0 LINE",
"397 296 LINE",
"578 526 LINE",
"378 526 LINE",
"238 331 LINE",
"238 730 LINE",
"48 730 LINE",
"48 0 LINE",
"238 0 LINE",
"238 150 LINE",
"276 192 LINE",
"395 0 LINE"
);
}
);
};
layerId = UUID0;
paths = (
{
closed = 1;
nodes = (
"596 0 LINE",
"397 296 LINE",
"578 526 LINE",
"378 526 LINE",
"238 331 LINE",
"238 730 LINE",
"48 730 LINE",
"48 0 LINE",
"238 0 LINE",
"238 150 LINE",
"276 192 LINE",
"395 0 LINE"
);
}
);
width = 582;
}
);
leftKerningGroup = h;
rightKerningGroup = k;
unicode = 006B;
},
{
glyphname = kgreenlandic;
lastChange = "2016-08-18 21:45:13 +0000";
layers = (
{
background = {
paths = (
{
closed = 1;
nodes = (
"596 0 LINE",
"397 296 LINE",
"578 526 LINE",
"378 526 LINE",
"238 331 LINE",
"238 526 LINE",
"48 526 LINE",
"48 0 LINE",
"238 0 LINE",
"238 150 LINE",
"276 192 LINE",
"395 0 LINE"
);
}
);
};
layerId = UUID0;
paths = (
{
closed = 1;
nodes = (
"596 0 LINE",
"397 296 LINE",
"578 526 LINE",
"378 526 LINE",
"238 331 LINE",
"238 526 LINE",
"48 526 LINE",
"48 0 LINE",
"238 0 LINE",
"238 150 LINE",
"276 192 LINE",
"395 0 LINE"
);
}
);
width = 582;
}
);
unicode = 0138;
},
{
glyphname = l;
lastChange = "2016-08-18 21:45:13 +0000";
layers = (
{
anchors = (
{
name = bottom;
position = "{202, 0}";
},
{
name = top;
position = "{371, 525}";
}
);
background = {
paths = (
{
closed = 1;
nodes = (
"44 142 LINE SMOOTH",
"44 44 OFFCURVE",
"101 -10 OFFCURVE",
"202 -10 CURVE SMOOTH",
"252 -10 OFFCURVE",
"314 3 OFFCURVE",
"359 24 CURVE",
"335 164 LINE",
"319 155 OFFCURVE",
"299 149 OFFCURVE",
"283 149 CURVE SMOOTH",
"251 149 OFFCURVE",
"234 170 OFFCURVE",
"234 209 CURVE SMOOTH",
"234 730 LINE",
"44 730 LINE"
);
}
);
};
layerId = UUID0;
paths = (
{
closed = 1;
nodes = (
"44 142 LINE SMOOTH",
"44 44 OFFCURVE",
"101 -10 OFFCURVE",
"202 -10 CURVE SMOOTH",
"252 -10 OFFCURVE",
"314 3 OFFCURVE",
"359 24 CURVE",
"335 164 LINE",
"319 155 OFFCURVE",
"299 149 OFFCURVE",
"283 149 CURVE SMOOTH",
"251 149 OFFCURVE",
"234 170 OFFCURVE",
"234 209 CURVE SMOOTH",
"234 730 LINE",
"44 730 LINE"
);
}
);
width = 355;
}
);
leftKerningGroup = l;
rightKerningGroup = l;
unicode = 006C;
},
{
glyphname = lslash;
lastChange = "2016-08-18 21:45:13 +0000";
layers = (
{
background = {
paths = (
{
closed = 1;
nodes = (
"388 426 LINE",
"345 527 LINE",
"-11 353 LINE",
"32 252 LINE"
);
}
);
};
components = (
{
name = l;
transform = "{1, 0, 0, 1, 28, 0}";
}
);
layerId = UUID0;
paths = (
{
closed = 1;
nodes = (
"388 426 LINE",
"345 527 LINE",
"-11 353 LINE",
"32 252 LINE"
);
}
);
width = 387;
}
);
leftKerningGroup = l;
rightKerningGroup = l;
unicode = 0142;
},
{
glyphname = m;
lastChange = "2016-08-18 21:45:13 +0000";
layers = (
{
background = {
paths = (
{
closed = 1;
nodes = (
"896 346 LINE SMOOTH",
"896 418 OFFCURVE",
"879 536 OFFCURVE",
"741 536 CURVE SMOOTH",
"659 536 OFFCURVE",
"591 502 OFFCURVE",
"554 445 CURVE",
"539 492 OFFCURVE",
"498 536 OFFCURVE",
"412 536 CURVE SMOOTH",
"323 536 OFFCURVE",
"256 505 OFFCURVE",
"219 448 CURVE",
"219 526 LINE",
"48 526 LINE",
"48 0 LINE",
"238 0 LINE",
"238 295 LINE",
"254 339 OFFCURVE",
"294 370 OFFCURVE",
"324 370 CURVE SMOOTH",
"353 370 OFFCURVE",
"377 348 OFFCURVE",
"377 296 CURVE SMOOTH",
"377 0 LINE",
"567 0 LINE",
"567 295 LINE",
"583 339 OFFCURVE",
"623 370 OFFCURVE",
"653 370 CURVE SMOOTH",
"682 370 OFFCURVE",
"706 348 OFFCURVE",
"706 296 CURVE SMOOTH",
"706 0 LINE",
"896 0 LINE"
);
}
);
};
layerId = UUID0;
paths = (
{
closed = 1;
nodes = (
"896 346 LINE SMOOTH",
"896 418 OFFCURVE",
"879 536 OFFCURVE",
"741 536 CURVE SMOOTH",
"659 536 OFFCURVE",
"591 502 OFFCURVE",
"554 445 CURVE",
"539 492 OFFCURVE",
"498 536 OFFCURVE",
"412 536 CURVE SMOOTH",
"323 536 OFFCURVE",
"256 505 OFFCURVE",
"219 448 CURVE",
"219 526 LINE",
"48 526 LINE",
"48 0 LINE",
"238 0 LINE",
"238 295 LINE",
"254 339 OFFCURVE",
"294 370 OFFCURVE",
"324 370 CURVE SMOOTH",
"353 370 OFFCURVE",
"377 348 OFFCURVE",
"377 296 CURVE SMOOTH",
"377 0 LINE",
"567 0 LINE",
"567 295 LINE",
"583 339 OFFCURVE",
"623 370 OFFCURVE",
"653 370 CURVE SMOOTH",
"682 370 OFFCURVE",
"706 348 OFFCURVE",
"706 296 CURVE SMOOTH",
"706 0 LINE",
"896 0 LINE"
);
}
);
width = 940;
}
);
leftKerningGroup = n;
rightKerningGroup = n;
unicode = 006D;
},
{
glyphname = n;
lastChange = "2016-08-18 21:45:13 +0000";
layers = (
{
anchors = (
{
name = bottom;
position = "{311, 0}";
},
{
name = top;
position = "{333, 526}";
}
);
background = {
paths = (
{
closed = 1;
nodes = (
"577 346 LINE SMOOTH",
"577 418 OFFCURVE",
"560 536 OFFCURVE",
"417 536 CURVE SMOOTH",
"326 536 OFFCURVE",
"256 505 OFFCURVE",
"219 448 CURVE",
"219 526 LINE",
"48 526 LINE",
"48 0 LINE",
"238 0 LINE",
"238 295 LINE",
"255 339 OFFCURVE",
"297 370 OFFCURVE",
"329 370 CURVE SMOOTH",
"360 370 OFFCURVE",
"387 348 OFFCURVE",
"387 296 CURVE SMOOTH",
"387 0 LINE",
"577 0 LINE"
);
}
);
};
layerId = UUID0;
paths = (
{
closed = 1;
nodes = (
"577 346 LINE SMOOTH",
"577 418 OFFCURVE",
"560 536 OFFCURVE",
"417 536 CURVE SMOOTH",
"326 536 OFFCURVE",
"256 505 OFFCURVE",
"219 448 CURVE",
"219 526 LINE",
"48 526 LINE",
"48 0 LINE",
"238 0 LINE",
"238 295 LINE",
"255 339 OFFCURVE",
"297 370 OFFCURVE",
"329 370 CURVE SMOOTH",
"360 370 OFFCURVE",
"387 348 OFFCURVE",
"387 296 CURVE SMOOTH",
"387 0 LINE",
"577 0 LINE"
);
}
);
width = 621;
}
);
leftKerningGroup = n;
rightKerningGroup = n;
unicode = 006E;
},
{
glyphname = eng;
lastChange = "2016-08-18 21:45:13 +0000";
layers = (
{
background = {
paths = (
{
closed = 1;
nodes = (
"489 -209 OFFCURVE",
"576 -119 OFFCURVE",
"576 12 CURVE SMOOTH",
"576 346 LINE SMOOTH",
"576 418 OFFCURVE",
"561 536 OFFCURVE",
"417 536 CURVE SMOOTH",
"326 536 OFFCURVE",
"256 505 OFFCURVE",
"219 448 CURVE",
"219 526 LINE",
"48 526 LINE",
"48 0 LINE",
"238 0 LINE",
"238 295 LINE",
"255 339 OFFCURVE",
"297 370 OFFCURVE",
"329 370 CURVE SMOOTH",
"360 370 OFFCURVE",
"387 348 OFFCURVE",
"387 296 CURVE SMOOTH",
"387 -3 LINE SMOOTH",
"387 -30 OFFCURVE",
"371 -46 OFFCURVE",
"346 -46 CURVE SMOOTH",
"328 -46 OFFCURVE",
"310 -38 OFFCURVE",
"299 -26 CURVE",
"221 -155 LINE",
"262 -190 OFFCURVE",
"315 -209 OFFCURVE",
"370 -209 CURVE SMOOTH"
);
}
);
};
layerId = UUID0;
paths = (
{
closed = 1;
nodes = (
"370 -209 LINE SMOOTH",
"489 -209 OFFCURVE",
"576 -119 OFFCURVE",
"576 12 CURVE SMOOTH",
"576 346 LINE SMOOTH",
"576 418 OFFCURVE",
"561 536 OFFCURVE",
"417 536 CURVE SMOOTH",
"326 536 OFFCURVE",
"256 505 OFFCURVE",
"219 448 CURVE",
"219 526 LINE",
"48 526 LINE",
"48 0 LINE",
"238 0 LINE",
"238 295 LINE",
"255 339 OFFCURVE",
"297 370 OFFCURVE",
"329 370 CURVE SMOOTH",
"360 370 OFFCURVE",
"387 348 OFFCURVE",
"387 296 CURVE SMOOTH",
"387 -3 LINE SMOOTH",
"387 -30 OFFCURVE",
"371 -46 OFFCURVE",
"346 -46 CURVE SMOOTH",
"328 -46 OFFCURVE",
"310 -38 OFFCURVE",
"299 -26 CURVE",
"221 -155 LINE",
"262 -190 OFFCURVE",
"315 -209 OFFCURVE",
"370 -209 CURVE SMOOTH"
);
}
);
width = 620;
}
);
leftKerningGroup = n;
rightKerningGroup = n;
unicode = 014B;
},
{
glyphname = o;
lastChange = "2016-08-18 21:45:13 +0000";
layers = (
{
anchors = (
{
name = bottom;
position = "{307, 0}";
},
{
name = top;
position = "{307, 526}";
}
);
background = {
paths = (
{
closed = 1;
nodes = (
"495 -10 OFFCURVE",
"595 119 OFFCURVE",
"595 263 CURVE SMOOTH",
"595 408 OFFCURVE",
"495 536 OFFCURVE",
"307 536 CURVE SMOOTH",
"119 536 OFFCURVE",
"19 408 OFFCURVE",
"19 263 CURVE SMOOTH",
"19 119 OFFCURVE",
"119 -10 OFFCURVE",
"307 -10 CURVE SMOOTH"
);
},
{
closed = 1;
nodes = (
"214 333 OFFCURVE",
"253 376 OFFCURVE",
"307 376 CURVE SMOOTH",
"361 376 OFFCURVE",
"400 333 OFFCURVE",
"400 263 CURVE SMOOTH",
"400 193 OFFCURVE",
"361 150 OFFCURVE",
"307 150 CURVE SMOOTH",
"253 150 OFFCURVE",
"214 193 OFFCURVE",
"214 263 CURVE SMOOTH"
);
}
);
};
layerId = UUID0;
paths = (
{
closed = 1;
nodes = (
"307 -10 LINE SMOOTH",
"495 -10 OFFCURVE",
"595 119 OFFCURVE",
"595 263 CURVE SMOOTH",
"595 408 OFFCURVE",
"495 536 OFFCURVE",
"307 536 CURVE SMOOTH",
"119 536 OFFCURVE",
"19 408 OFFCURVE",
"19 263 CURVE SMOOTH",
"19 119 OFFCURVE",
"119 -10 OFFCURVE",
"307 -10 CURVE SMOOTH"
);
},
{
closed = 1;
nodes = (
"214 263 LINE SMOOTH",
"214 333 OFFCURVE",
"253 376 OFFCURVE",
"307 376 CURVE SMOOTH",
"361 376 OFFCURVE",
"400 333 OFFCURVE",
"400 263 CURVE SMOOTH",
"400 193 OFFCURVE",
"361 150 OFFCURVE",
"307 150 CURVE SMOOTH",
"253 150 OFFCURVE",
"214 193 OFFCURVE",
"214 263 CURVE SMOOTH"
);
}
);
width = 614;
}
);
leftKerningGroup = o;
rightKerningGroup = o;
unicode = 006F;
},
{
glyphname = oslash;
lastChange = "2016-08-18 21:45:13 +0000";
layers = (
{
background = {
paths = (
{
closed = 1;
nodes = (
"495 -10 OFFCURVE",
"595 119 OFFCURVE",
"595 263 CURVE SMOOTH",
"595 408 OFFCURVE",
"495 536 OFFCURVE",
"307 536 CURVE SMOOTH",
"119 536 OFFCURVE",
"19 408 OFFCURVE",
"19 263 CURVE SMOOTH",
"19 119 OFFCURVE",
"119 -10 OFFCURVE",
"307 -10 CURVE SMOOTH"
);
},
{
closed = 1;
nodes = (
"253 150 OFFCURVE",
"214 193 OFFCURVE",
"214 263 CURVE SMOOTH",
"214 333 OFFCURVE",
"253 376 OFFCURVE",
"307 376 CURVE SMOOTH",
"361 376 OFFCURVE",
"400 333 OFFCURVE",
"400 263 CURVE SMOOTH",
"400 193 OFFCURVE",
"361 150 OFFCURVE",
"307 150 CURVE SMOOTH"
);
},
{
closed = 1;
nodes = (
"14 -6 LINE",
"114 -6 LINE",
"211 104 LINE",
"159 158 LINE"
);
},
{
closed = 1;
nodes = (
"221 121 LINE",
"452 381 LINE",
"395 418 LINE",
"174 169 LINE"
);
},
{
closed = 1;
nodes = (
"467 393 LINE",
"591 532 LINE",
"490 532 LINE",
"404 435 LINE"
);
}
);
};
layerId = UUID0;
paths = (
{
closed = 1;
nodes = (
"307 -10 LINE SMOOTH",
"495 -10 OFFCURVE",
"595 119 OFFCURVE",
"595 263 CURVE SMOOTH",
"595 408 OFFCURVE",
"495 536 OFFCURVE",
"307 536 CURVE SMOOTH",
"119 536 OFFCURVE",
"19 408 OFFCURVE",
"19 263 CURVE SMOOTH",
"19 119 OFFCURVE",
"119 -10 OFFCURVE",
"307 -10 CURVE SMOOTH"
);
},
{
closed = 1;
nodes = (
"307 150 LINE SMOOTH",
"253 150 OFFCURVE",
"214 193 OFFCURVE",
"214 263 CURVE SMOOTH",
"214 333 OFFCURVE",
"253 376 OFFCURVE",
"307 376 CURVE SMOOTH",
"361 376 OFFCURVE",
"400 333 OFFCURVE",
"400 263 CURVE SMOOTH",
"400 193 OFFCURVE",
"361 150 OFFCURVE",
"307 150 CURVE SMOOTH"
);
},
{
closed = 1;
nodes = (
"114 -6 LINE",
"211 104 LINE",
"159 158 LINE",
"14 -6 LINE"
);
},
{
closed = 1;
nodes = (
"221 121 LINE",
"452 381 LINE",
"395 418 LINE",
"174 169 LINE"
);
},
{
closed = 1;
nodes = (
"467 393 LINE",
"591 532 LINE",
"490 532 LINE",
"404 435 LINE"
);
}
);
width = 614;
}
);
leftKerningGroup = o;
rightKerningGroup = o;
unicode = 00F8;
},
{
glyphname = oe;
lastChange = "2016-08-18 21:45:13 +0000";
layers = (
{
background = {
paths = (
{
closed = 1;
nodes = (
"375 -10 OFFCURVE",
"423 10 OFFCURVE",
"497 70 CURVE",
"571 11 OFFCURVE",
"621 -10 OFFCURVE",
"692 -10 CURVE SMOOTH",
"807 -10 OFFCURVE",
"905 44 OFFCURVE",
"951 133 CURVE",
"795 179 LINE",
"782 146 OFFCURVE",
"741 122 OFFCURVE",
"698 122 CURVE SMOOTH",
"646 122 OFFCURVE",
"606 157 OFFCURVE",
"603 205 CURVE",
"972 205 LINE",
"975 221 OFFCURVE",
"977 243 OFFCURVE",
"977 263 CURVE SMOOTH",
"977 422 OFFCURVE",
"859 536 OFFCURVE",
"693 536 CURVE SMOOTH",
"616 536 OFFCURVE",
"559 511 OFFCURVE",
"497 450 CURVE",
"443 509 OFFCURVE",
"383 536 OFFCURVE",
"303 536 CURVE SMOOTH",
"137 536 OFFCURVE",
"19 423 OFFCURVE",
"19 263 CURVE SMOOTH",
"19 103 OFFCURVE",
"137 -10 OFFCURVE",
"305 -10 CURVE SMOOTH"
);
},
{
closed = 1;
nodes = (
"251 150 OFFCURVE",
"214 195 OFFCURVE",
"214 263 CURVE SMOOTH",
"214 331 OFFCURVE",
"251 376 OFFCURVE",
"307 376 CURVE SMOOTH",
"363 376 OFFCURVE",
"400 331 OFFCURVE",
"400 263 CURVE SMOOTH",
"400 195 OFFCURVE",
"363 150 OFFCURVE",
"307 150 CURVE SMOOTH"
);
},
{
closed = 1;
nodes = (
"597 319 LINE",
"602 369 OFFCURVE",
"637 401 OFFCURVE",
"687 401 CURVE SMOOTH",
"736 401 OFFCURVE",
"771 369 OFFCURVE",
"777 319 CURVE"
);
}
);
};
layerId = UUID0;
paths = (
{
closed = 1;
nodes = (
"305 -10 LINE SMOOTH",
"375 -10 OFFCURVE",
"423 10 OFFCURVE",
"497 70 CURVE",
"571 11 OFFCURVE",
"621 -10 OFFCURVE",
"692 -10 CURVE SMOOTH",
"807 -10 OFFCURVE",
"905 44 OFFCURVE",
"951 133 CURVE",
"795 179 LINE",
"782 146 OFFCURVE",
"741 122 OFFCURVE",
"698 122 CURVE SMOOTH",
"646 122 OFFCURVE",
"606 157 OFFCURVE",
"603 205 CURVE",
"972 205 LINE",
"975 221 OFFCURVE",
"977 243 OFFCURVE",
"977 263 CURVE SMOOTH",
"977 422 OFFCURVE",
"859 536 OFFCURVE",
"693 536 CURVE SMOOTH",
"616 536 OFFCURVE",
"559 511 OFFCURVE",
"497 450 CURVE",
"443 509 OFFCURVE",
"383 536 OFFCURVE",
"303 536 CURVE SMOOTH",
"137 536 OFFCURVE",
"19 423 OFFCURVE",
"19 263 CURVE SMOOTH",
"19 103 OFFCURVE",
"137 -10 OFFCURVE",
"305 -10 CURVE SMOOTH"
);
},
{
closed = 1;
nodes = (
"307 150 LINE SMOOTH",
"251 150 OFFCURVE",
"214 195 OFFCURVE",
"214 263 CURVE SMOOTH",
"214 331 OFFCURVE",
"251 376 OFFCURVE",
"307 376 CURVE SMOOTH",
"363 376 OFFCURVE",
"400 331 OFFCURVE",
"400 263 CURVE SMOOTH",
"400 195 OFFCURVE",
"363 150 OFFCURVE",
"307 150 CURVE SMOOTH"
);
},
{
closed = 1;
nodes = (
"597 319 LINE",
"602 369 OFFCURVE",
"637 401 OFFCURVE",
"687 401 CURVE SMOOTH",
"736 401 OFFCURVE",
"771 369 OFFCURVE",
"777 319 CURVE"
);
}
);
width = 991;
}
);
leftKerningGroup = o;
rightKerningGroup = e;
unicode = 0153;
},
{
glyphname = p;
lastChange = "2016-08-18 21:45:13 +0000";
layers = (
{
background = {
paths = (
{
closed = 1;
nodes = (
"531 -10 OFFCURVE",
"626 107 OFFCURVE",
"626 265 CURVE SMOOTH",
"626 421 OFFCURVE",
"523 536 OFFCURVE",
"383 536 CURVE SMOOTH",
"304 536 OFFCURVE",
"250 504 OFFCURVE",
"213 447 CURVE",
"213 526 LINE",
"48 526 LINE",
"48 -213 LINE",
"238 -213 LINE",
"238 78 LINE",
"268 21 OFFCURVE",
"326 -10 OFFCURVE",
"402 -10 CURVE SMOOTH"
);
},
{
closed = 1;
nodes = (
"296 150 OFFCURVE",
"256 185 OFFCURVE",
"238 231 CURVE",
"238 322 LINE",
"263 358 OFFCURVE",
"292 376 OFFCURVE",
"328 376 CURVE SMOOTH",
"390 376 OFFCURVE",
"432 332 OFFCURVE",
"432 266 CURVE SMOOTH",
"432 202 OFFCURVE",
"391 150 OFFCURVE",
"336 150 CURVE SMOOTH"
);
}
);
};
layerId = UUID0;
paths = (
{
closed = 1;
nodes = (
"402 -10 LINE SMOOTH",
"531 -10 OFFCURVE",
"626 107 OFFCURVE",
"626 265 CURVE SMOOTH",
"626 421 OFFCURVE",
"523 536 OFFCURVE",
"383 536 CURVE SMOOTH",
"304 536 OFFCURVE",
"250 504 OFFCURVE",
"213 447 CURVE",
"213 526 LINE",
"48 526 LINE",
"48 -213 LINE",
"238 -213 LINE",
"238 78 LINE",
"268 21 OFFCURVE",
"326 -10 OFFCURVE",
"402 -10 CURVE SMOOTH"
);
},
{
closed = 1;
nodes = (
"336 150 LINE SMOOTH",
"296 150 OFFCURVE",
"256 185 OFFCURVE",
"238 231 CURVE",
"238 322 LINE",
"263 358 OFFCURVE",
"292 376 OFFCURVE",
"328 376 CURVE SMOOTH",
"390 376 OFFCURVE",
"432 332 OFFCURVE",
"432 266 CURVE SMOOTH",
"432 202 OFFCURVE",
"391 150 OFFCURVE",
"336 150 CURVE SMOOTH"
);
}
);
width = 647;
}
);
leftKerningGroup = n;
rightKerningGroup = b;
unicode = 0070;
},
{
glyphname = thorn;
lastChange = "2016-08-18 21:45:13 +0000";
layers = (
{
background = {
paths = (
{
closed = 1;
nodes = (
"581 393 OFFCURVE",
"478 544 OFFCURVE",
"319 544 CURVE SMOOTH",
"262 544 OFFCURVE",
"243 525 OFFCURVE",
"243 525 CURVE",
"243 710 LINE",
"48 710 LINE",
"48 -213 LINE",
"243 -213 LINE",
"243 -13 LINE",
"243 -15 OFFCURVE",
"262 -31 OFFCURVE",
"312 -31 CURVE SMOOTH",
"457 -31 OFFCURVE",
"581 104 OFFCURVE",
"581 255 CURVE SMOOTH"
);
},
{
closed = 1;
nodes = (
"386 187 OFFCURVE",
"352 139 OFFCURVE",
"305 139 CURVE SMOOTH",
"270 139 OFFCURVE",
"243 166 OFFCURVE",
"243 179 CURVE",
"243 327 LINE",
"259 356 OFFCURVE",
"276 374 OFFCURVE",
"307 374 CURVE SMOOTH",
"359 374 OFFCURVE",
"386 323 OFFCURVE",
"386 259 CURVE SMOOTH"
);
}
);
};
layerId = UUID0;
paths = (
{
closed = 1;
nodes = (
"581 255 LINE SMOOTH",
"581 393 OFFCURVE",
"478 544 OFFCURVE",
"319 544 CURVE SMOOTH",
"262 544 OFFCURVE",
"243 525 OFFCURVE",
"243 525 CURVE",
"243 710 LINE",
"48 710 LINE",
"48 -213 LINE",
"243 -213 LINE",
"243 -13 LINE",
"243 -15 OFFCURVE",
"262 -31 OFFCURVE",
"312 -31 CURVE SMOOTH",
"457 -31 OFFCURVE",
"581 104 OFFCURVE",
"581 255 CURVE SMOOTH"
);
},
{
closed = 1;
nodes = (
"386 259 LINE SMOOTH",
"386 187 OFFCURVE",
"352 139 OFFCURVE",
"305 139 CURVE SMOOTH",
"270 139 OFFCURVE",
"243 166 OFFCURVE",
"243 179 CURVE",
"243 327 LINE",
"259 356 OFFCURVE",
"276 374 OFFCURVE",
"307 374 CURVE SMOOTH",
"359 374 OFFCURVE",
"386 323 OFFCURVE",
"386 259 CURVE SMOOTH"
);
}
);
width = 599;
}
);
leftKerningGroup = h;
rightKerningGroup = b;
unicode = 00FE;
},
{
glyphname = q;
lastChange = "2016-08-18 21:45:13 +0000";
layers = (
{
background = {
paths = (
{
closed = 1;
nodes = (
"321 -10 OFFCURVE",
"379 21 OFFCURVE",
"409 78 CURVE",
"409 -96 LINE SMOOTH",
"409 -167 OFFCURVE",
"469 -213 OFFCURVE",
"540 -213 CURVE SMOOTH",
"569 -213 OFFCURVE",
"612 -209 OFFCURVE",
"645 -203 CURVE",
"645 -43 LINE",
"610 -41 OFFCURVE",
"599 -29 OFFCURVE",
"599 7 CURVE SMOOTH",
"599 526 LINE",
"434 526 LINE",
"434 445 LINE",
"397 502 OFFCURVE",
"343 536 OFFCURVE",
"264 536 CURVE SMOOTH",
"124 536 OFFCURVE",
"21 421 OFFCURVE",
"21 265 CURVE SMOOTH",
"21 107 OFFCURVE",
"116 -10 OFFCURVE",
"245 -10 CURVE SMOOTH"
);
},
{
closed = 1;
nodes = (
"257 150 OFFCURVE",
"215 194 OFFCURVE",
"215 260 CURVE SMOOTH",
"215 324 OFFCURVE",
"256 376 OFFCURVE",
"311 376 CURVE SMOOTH",
"351 376 OFFCURVE",
"391 344 OFFCURVE",
"409 298 CURVE",
"409 204 LINE",
"384 168 OFFCURVE",
"355 150 OFFCURVE",
"319 150 CURVE SMOOTH"
);
}
);
};
layerId = UUID0;
paths = (
{
closed = 1;
nodes = (
"245 -10 LINE SMOOTH",
"321 -10 OFFCURVE",
"379 21 OFFCURVE",
"409 78 CURVE",
"409 -96 LINE SMOOTH",
"409 -167 OFFCURVE",
"469 -213 OFFCURVE",
"540 -213 CURVE SMOOTH",
"569 -213 OFFCURVE",
"612 -209 OFFCURVE",
"645 -203 CURVE",
"645 -43 LINE",
"610 -41 OFFCURVE",
"599 -29 OFFCURVE",
"599 7 CURVE SMOOTH",
"599 526 LINE",
"434 526 LINE",
"434 445 LINE",
"397 502 OFFCURVE",
"343 536 OFFCURVE",
"264 536 CURVE SMOOTH",
"124 536 OFFCURVE",
"21 421 OFFCURVE",
"21 265 CURVE SMOOTH",
"21 107 OFFCURVE",
"116 -10 OFFCURVE",
"245 -10 CURVE SMOOTH"
);
},
{
closed = 1;
nodes = (
"319 150 LINE SMOOTH",
"257 150 OFFCURVE",
"215 194 OFFCURVE",
"215 260 CURVE SMOOTH",
"215 324 OFFCURVE",
"256 376 OFFCURVE",
"311 376 CURVE SMOOTH",
"351 376 OFFCURVE",
"391 344 OFFCURVE",
"409 298 CURVE",
"409 204 LINE",
"384 168 OFFCURVE",
"355 150 OFFCURVE",
"319 150 CURVE SMOOTH"
);
}
);
width = 647;
}
);
leftKerningGroup = d;
rightKerningGroup = a.alt;
unicode = 0071;
},
{
glyphname = r;
lastChange = "2016-08-18 21:45:13 +0000";
layers = (
{
anchors = (
{
name = bottom;
position = "{136, 0}";
},
{
name = top;
position = "{259, 526}";
}
);
background = {
paths = (
{
closed = 1;
nodes = (
"405 535 LINE",
"400 536 OFFCURVE",
"395 536 OFFCURVE",
"381 536 CURVE SMOOTH",
"318 536 OFFCURVE",
"259 496 OFFCURVE",
"222 426 CURVE",
"222 526 LINE",
"48 526 LINE",
"48 0 LINE",
"238 0 LINE",
"238 312 LINE",
"267 349 OFFCURVE",
"332 364 OFFCURVE",
"405 364 CURVE"
);
}
);
};
layerId = UUID0;
paths = (
{
closed = 1;
nodes = (
"405 535 LINE",
"400 536 OFFCURVE",
"395 536 OFFCURVE",
"381 536 CURVE SMOOTH",
"318 536 OFFCURVE",
"259 496 OFFCURVE",
"222 426 CURVE",
"222 526 LINE",
"48 526 LINE",
"48 0 LINE",
"238 0 LINE",
"238 312 LINE",
"267 349 OFFCURVE",
"332 364 OFFCURVE",
"405 364 CURVE"
);
}
);
width = 416;
}
);
leftKerningGroup = n;
rightKerningGroup = r;
unicode = 0072;
},
{
glyphname = s;
lastChange = "2016-08-18 21:45:13 +0000";
layers = (
{
anchors = (
{
name = bottom;
position = "{265, 0}";
},
{
name = top;
position = "{242, 526}";
}
);
background = {
paths = (
{
closed = 1;
nodes = (
"400 -10 OFFCURVE",
"484 57 OFFCURVE",
"484 165 CURVE SMOOTH",
"484 251 OFFCURVE",
"435 292 OFFCURVE",
"282 333 CURVE SMOOTH",
"220 349 OFFCURVE",
"203 359 OFFCURVE",
"203 379 CURVE SMOOTH",
"203 397 OFFCURVE",
"219 406 OFFCURVE",
"242 406 CURVE SMOOTH",
"281 406 OFFCURVE",
"321 389 OFFCURVE",
"386 347 CURVE",
"458 461 LINE",
"387 522 OFFCURVE",
"320 537 OFFCURVE",
"242 537 CURVE SMOOTH",
"117 537 OFFCURVE",
"27 460 OFFCURVE",
"27 352 CURVE SMOOTH",
"27 273 OFFCURVE",
"77 238 OFFCURVE",
"225 195 CURVE SMOOTH",
"284 178 OFFCURVE",
"301 166 OFFCURVE",
"301 148 CURVE SMOOTH",
"301 131 OFFCURVE",
"288 123 OFFCURVE",
"261 123 CURVE SMOOTH",
"210 123 OFFCURVE",
"148 148 OFFCURVE",
"83 192 CURVE",
"18 78 LINE",
"79 21 OFFCURVE",
"174 -10 OFFCURVE",
"265 -10 CURVE SMOOTH"
);
}
);
};
layerId = UUID0;
paths = (
{
closed = 1;
nodes = (
"265 -10 LINE SMOOTH",
"400 -10 OFFCURVE",
"484 57 OFFCURVE",
"484 165 CURVE SMOOTH",
"484 251 OFFCURVE",
"435 292 OFFCURVE",
"282 333 CURVE SMOOTH",
"220 349 OFFCURVE",
"203 359 OFFCURVE",
"203 379 CURVE SMOOTH",
"203 397 OFFCURVE",
"219 406 OFFCURVE",
"242 406 CURVE SMOOTH",
"281 406 OFFCURVE",
"321 389 OFFCURVE",
"386 347 CURVE",
"458 461 LINE",
"387 522 OFFCURVE",
"320 537 OFFCURVE",
"242 537 CURVE SMOOTH",
"117 537 OFFCURVE",
"27 460 OFFCURVE",
"27 352 CURVE SMOOTH",
"27 273 OFFCURVE",
"77 238 OFFCURVE",
"225 195 CURVE SMOOTH",
"284 178 OFFCURVE",
"301 166 OFFCURVE",
"301 148 CURVE SMOOTH",
"301 131 OFFCURVE",
"288 123 OFFCURVE",
"261 123 CURVE SMOOTH",
"210 123 OFFCURVE",
"148 148 OFFCURVE",
"83 192 CURVE",
"18 78 LINE",
"79 21 OFFCURVE",
"174 -10 OFFCURVE",
"265 -10 CURVE SMOOTH"
);
}
);
width = 501;
}
);
leftKerningGroup = s;
rightKerningGroup = s;
unicode = 0073;
},
{
glyphname = germandbls;
lastChange = "2016-08-18 21:45:13 +0000";
layers = (
{
background = {
paths = (
{
closed = 1;
nodes = (
"254 -6 LINE",
"389 -6 OFFCURVE",
"544 40 OFFCURVE",
"544 213 CURVE SMOOTH",
"544 309 OFFCURVE",
"496 374 OFFCURVE",
"421 403 CURVE",
"458 422 OFFCURVE",
"492 479 OFFCURVE",
"492 546 CURVE SMOOTH",
"492 653 OFFCURVE",
"406 714 OFFCURVE",
"288 714 CURVE SMOOTH",
"153 714 OFFCURVE",
"48 635 OFFCURVE",
"48 529 CURVE SMOOTH",
"48 0 LINE",
"228 0 LINE",
"228 494 LINE SMOOTH",
"228 507 OFFCURVE",
"228 554 OFFCURVE",
"269 554 CURVE SMOOTH",
"271 554 OFFCURVE",
"312 554 OFFCURVE",
"312 512 CURVE SMOOTH",
"312 490 OFFCURVE",
"301 473 OFFCURVE",
"273 473 CURVE SMOOTH",
"252 473 LINE",
"252 303 LINE",
"275 303 LINE SMOOTH",
"298 303 OFFCURVE",
"344 285 OFFCURVE",
"344 237 CURVE SMOOTH",
"344 192 OFFCURVE",
"303 168 OFFCURVE",
"254 168 CURVE"
);
}
);
};
layerId = UUID0;
paths = (
{
closed = 1;
nodes = (
"254 -6 LINE",
"389 -6 OFFCURVE",
"544 40 OFFCURVE",
"544 213 CURVE SMOOTH",
"544 309 OFFCURVE",
"496 374 OFFCURVE",
"421 403 CURVE",
"458 422 OFFCURVE",
"492 479 OFFCURVE",
"492 546 CURVE SMOOTH",
"492 653 OFFCURVE",
"406 714 OFFCURVE",
"288 714 CURVE SMOOTH",
"153 714 OFFCURVE",
"48 635 OFFCURVE",
"48 529 CURVE SMOOTH",
"48 0 LINE",
"228 0 LINE",
"228 494 LINE SMOOTH",
"228 507 OFFCURVE",
"228 554 OFFCURVE",
"269 554 CURVE SMOOTH",
"271 554 OFFCURVE",
"312 554 OFFCURVE",
"312 512 CURVE SMOOTH",
"312 490 OFFCURVE",
"301 473 OFFCURVE",
"273 473 CURVE SMOOTH",
"252 473 LINE",
"252 303 LINE",
"275 303 LINE SMOOTH",
"298 303 OFFCURVE",
"344 285 OFFCURVE",
"344 237 CURVE SMOOTH",
"344 192 OFFCURVE",
"303 168 OFFCURVE",
"254 168 CURVE"
);
}
);
width = 563;
}
);
leftKerningGroup = h;
unicode = 00DF;
},
{
glyphname = t;
lastChange = "2016-08-18 21:45:13 +0000";
layers = (
{
anchors = (
{
name = bottom;
position = "{242, 0}";
},
{
name = top;
position = "{366, 526}";
}
);
background = {
paths = (
{
closed = 1;
nodes = (
"383 179 LINE",
"359 169 OFFCURVE",
"334 162 OFFCURVE",
"315 162 CURVE SMOOTH",
"290 162 OFFCURVE",
"274 174 OFFCURVE",
"274 209 CURVE SMOOTH",
"274 383 LINE",
"377 383 LINE",
"377 526 LINE",
"274 526 LINE",
"274 691 LINE",
"84 691 LINE",
"84 526 LINE",
"19 526 LINE",
"19 383 LINE",
"84 383 LINE",
"84 142 LINE SMOOTH",
"84 28 OFFCURVE",
"156 -11 OFFCURVE",
"242 -11 CURVE SMOOTH",
"300 -11 OFFCURVE",
"364 6 OFFCURVE",
"417 29 CURVE"
);
}
);
};
layerId = UUID0;
paths = (
{
closed = 1;
nodes = (
"383 179 LINE",
"359 169 OFFCURVE",
"334 162 OFFCURVE",
"315 162 CURVE SMOOTH",
"290 162 OFFCURVE",
"274 174 OFFCURVE",
"274 209 CURVE SMOOTH",
"274 383 LINE",
"377 383 LINE",
"377 526 LINE",
"274 526 LINE",
"274 691 LINE",
"84 691 LINE",
"84 526 LINE",
"19 526 LINE",
"19 383 LINE",
"84 383 LINE",
"84 142 LINE SMOOTH",
"84 28 OFFCURVE",
"156 -11 OFFCURVE",
"242 -11 CURVE SMOOTH",
"300 -11 OFFCURVE",
"364 6 OFFCURVE",
"417 29 CURVE"
);
}
);
width = 423;
}
);
leftKerningGroup = t;
rightKerningGroup = t;
unicode = 0074;
},
{
glyphname = tbar;
lastChange = "2016-08-18 21:45:13 +0000";
layers = (
{
background = {
paths = (
{
closed = 1;
nodes = (
"378 227 LINE",
"378 336 LINE",
"20 336 LINE",
"20 227 LINE"
);
}
);
};
components = (
{
name = t;
transform = "{1, 0, 0, 1, 1, 0}";
}
);
layerId = UUID0;
paths = (
{
closed = 1;
nodes = (
"378 227 LINE",
"378 336 LINE",
"20 336 LINE",
"20 227 LINE"
);
}
);
width = 424;
}
);
leftKerningGroup = t;
rightKerningGroup = t;
unicode = 0167;
},
{
glyphname = u;
lastChange = "2016-08-18 21:45:13 +0000";
layers = (
{
anchors = (
{
name = bottom;
position = "{528, 0}";
},
{
name = top;
position = "{308, 526}";
}
);
background = {
paths = (
{
closed = 1;
nodes = (
"294 -10 OFFCURVE",
"363 17 OFFCURVE",
"412 82 CURVE",
"416 63 LINE SMOOTH",
"426 14 OFFCURVE",
"464 -10 OFFCURVE",
"528 -10 CURVE SMOOTH",
"548 -10 OFFCURVE",
"574 -7 OFFCURVE",
"608 0 CURVE",
"608 160 LINE",
"581 162 OFFCURVE",
"572 174 OFFCURVE",
"572 210 CURVE SMOOTH",
"572 526 LINE",
"382 526 LINE",
"382 204 LINE",
"351 159 OFFCURVE",
"320 150 OFFCURVE",
"291 150 CURVE SMOOTH",
"255 150 OFFCURVE",
"233 177 OFFCURVE",
"233 223 CURVE SMOOTH",
"233 526 LINE",
"43 526 LINE",
"43 180 LINE SMOOTH",
"43 57 OFFCURVE",
"101 -10 OFFCURVE",
"207 -10 CURVE SMOOTH"
);
}
);
};
layerId = UUID0;
paths = (
{
closed = 1;
nodes = (
"207 -10 LINE SMOOTH",
"294 -10 OFFCURVE",
"363 17 OFFCURVE",
"412 82 CURVE",
"416 63 LINE SMOOTH",
"426 14 OFFCURVE",
"464 -10 OFFCURVE",
"528 -10 CURVE SMOOTH",
"548 -10 OFFCURVE",
"574 -7 OFFCURVE",
"608 0 CURVE",
"608 160 LINE",
"581 162 OFFCURVE",
"572 174 OFFCURVE",
"572 210 CURVE SMOOTH",
"572 526 LINE",
"382 526 LINE",
"382 204 LINE",
"351 159 OFFCURVE",
"320 150 OFFCURVE",
"291 150 CURVE SMOOTH",
"255 150 OFFCURVE",
"233 177 OFFCURVE",
"233 223 CURVE SMOOTH",
"233 526 LINE",
"43 526 LINE",
"43 180 LINE SMOOTH",
"43 57 OFFCURVE",
"101 -10 OFFCURVE",
"207 -10 CURVE SMOOTH"
);
}
);
width = 638;
}
);
leftKerningGroup = u;
rightKerningGroup = u;
unicode = 0075;
},
{
glyphname = v;
lastChange = "2016-08-18 21:45:13 +0000";
layers = (
{
background = {
paths = (
{
closed = 1;
nodes = (
"385 0 LINE",
"562 526 LINE",
"385 526 LINE",
"290 149 LINE",
"196 526 LINE",
"1 526 LINE",
"178 0 LINE"
);
}
);
};
layerId = UUID0;
paths = (
{
closed = 1;
nodes = (
"385 0 LINE",
"562 526 LINE",
"385 526 LINE",
"290 149 LINE",
"196 526 LINE",
"1 526 LINE",
"178 0 LINE"
);
}
);
width = 563;
}
);
unicode = 0076;
},
{
glyphname = w;
lastChange = "2016-08-18 21:45:13 +0000";
layers = (
{
anchors = (
{
name = top;
position = "{431, 526}";
}
);
background = {
paths = (
{
closed = 1;
nodes = (
"566 173 LINE",
"533 286 LINE",
"627 526 LINE",
"476 526 LINE",
"431 372 LINE",
"386 526 LINE",
"235 526 LINE",
"329 286 LINE",
"296 173 LINE",
"169 526 LINE",
"-10 526 LINE",
"205 0 LINE",
"360 0 LINE",
"431 200 LINE",
"502 0 LINE",
"657 0 LINE",
"872 526 LINE",
"693 526 LINE"
);
}
);
};
layerId = UUID0;
paths = (
{
closed = 1;
nodes = (
"566 173 LINE",
"533 286 LINE",
"627 526 LINE",
"476 526 LINE",
"431 372 LINE",
"386 526 LINE",
"235 526 LINE",
"329 286 LINE",
"296 173 LINE",
"169 526 LINE",
"-10 526 LINE",
"205 0 LINE",
"360 0 LINE",
"431 200 LINE",
"502 0 LINE",
"657 0 LINE",
"872 526 LINE",
"693 526 LINE"
);
}
);
width = 862;
}
);
leftKerningGroup = w;
rightKerningGroup = w;
unicode = 0077;
},
{
glyphname = x;
lastChange = "2016-08-18 21:45:13 +0000";
layers = (
{
background = {
paths = (
{
closed = 1;
nodes = (
"-1 526 LINE",
"175 263 LINE",
"-6 0 LINE",
"187 0 LINE",
"268 129 LINE",
"277 149 LINE",
"286 129 LINE",
"367 0 LINE",
"560 0 LINE",
"379 263 LINE",
"555 526 LINE",
"362 526 LINE",
"287 397 LINE",
"277 376 LINE",
"267 397 LINE",
"192 526 LINE"
);
}
);
};
layerId = UUID0;
paths = (
{
closed = 1;
nodes = (
"-1 526 LINE",
"175 263 LINE",
"-6 0 LINE",
"187 0 LINE",
"268 129 LINE",
"277 149 LINE",
"286 129 LINE",
"367 0 LINE",
"560 0 LINE",
"379 263 LINE",
"555 526 LINE",
"362 526 LINE",
"287 397 LINE",
"277 376 LINE",
"267 397 LINE",
"192 526 LINE"
);
}
);
width = 554;
}
);
unicode = 0078;
},
{
glyphname = y;
lastChange = "2016-08-18 21:45:13 +0000";
layers = (
{
anchors = (
{
name = top;
position = "{293, 526}";
}
);
background = {
paths = (
{
closed = 1;
nodes = (
"44 -215 LINE",
"76 -228 OFFCURVE",
"109 -234 OFFCURVE",
"142 -234 CURVE SMOOTH",
"250 -234 OFFCURVE",
"342 -166 OFFCURVE",
"373 -63 CURVE SMOOTH",
"551 526 LINE",
"374 526 LINE",
"293 161 LINE",
"193 526 LINE",
"-2 526 LINE",
"189 0 LINE",
"185 -47 OFFCURVE",
"163 -70 OFFCURVE",
"122 -70 CURVE SMOOTH",
"101 -70 OFFCURVE",
"74 -64 OFFCURVE",
"44 -53 CURVE"
);
}
);
};
layerId = UUID0;
paths = (
{
closed = 1;
nodes = (
"44 -215 LINE",
"76 -228 OFFCURVE",
"109 -234 OFFCURVE",
"142 -234 CURVE SMOOTH",
"250 -234 OFFCURVE",
"342 -166 OFFCURVE",
"373 -63 CURVE SMOOTH",
"551 526 LINE",
"374 526 LINE",
"293 161 LINE",
"193 526 LINE",
"-2 526 LINE",
"189 0 LINE",
"185 -47 OFFCURVE",
"163 -70 OFFCURVE",
"122 -70 CURVE SMOOTH",
"101 -70 OFFCURVE",
"74 -64 OFFCURVE",
"44 -53 CURVE"
);
}
);
width = 555;
}
);
leftKerningGroup = y;
rightKerningGroup = y;
unicode = 0079;
},
{
glyphname = z;
lastChange = "2016-08-18 21:45:13 +0000";
layers = (
{
anchors = (
{
name = top;
position = "{243, 526}";
}
);
background = {
paths = (
{
closed = 1;
nodes = (
"22 0 LINE",
"469 0 LINE",
"469 130 LINE",
"221 130 LINE",
"460 414 LINE",
"460 526 LINE",
"37 526 LINE",
"37 396 LINE",
"262 396 LINE",
"22 112 LINE"
);
}
);
};
layerId = UUID0;
paths = (
{
closed = 1;
nodes = (
"22 0 LINE",
"469 0 LINE",
"469 130 LINE",
"221 130 LINE",
"460 414 LINE",
"460 526 LINE",
"37 526 LINE",
"37 396 LINE",
"262 396 LINE",
"22 112 LINE"
);
}
);
width = 494;
}
);
leftKerningGroup = z;
rightKerningGroup = z;
unicode = 007A;
},
{
glyphname = a.alt;
lastChange = "2016-08-18 21:45:13 +0000";
layers = (
{
background = {
paths = (
{
closed = 1;
nodes = (
"337 -10 OFFCURVE",
"380 16 OFFCURVE",
"410 69 CURVE",
"410 0 LINE",
"599 0 LINE",
"599 518 LINE",
"409 518 LINE",
"409 448 LINE",
"379 503 OFFCURVE",
"319 536 OFFCURVE",
"249 536 CURVE SMOOTH",
"116 536 OFFCURVE",
"20 419 OFFCURVE",
"20 264 CURVE SMOOTH",
"20 103 OFFCURVE",
"123 -10 OFFCURVE",
"268 -10 CURVE SMOOTH"
);
},
{
closed = 1;
nodes = (
"410 204 LINE",
"385 168 OFFCURVE",
"357 150 OFFCURVE",
"319 150 CURVE SMOOTH",
"259 150 OFFCURVE",
"216 194 OFFCURVE",
"216 260 CURVE SMOOTH",
"216 323 OFFCURVE",
"257 376 OFFCURVE",
"311 376 CURVE SMOOTH",
"351 376 OFFCURVE",
"391 346 OFFCURVE",
"410 298 CURVE"
);
}
);
};
layerId = UUID0;
paths = (
{
closed = 1;
nodes = (
"268 -10 LINE SMOOTH",
"337 -10 OFFCURVE",
"380 16 OFFCURVE",
"410 69 CURVE",
"410 0 LINE",
"599 0 LINE",
"599 518 LINE",
"409 518 LINE",
"409 448 LINE",
"379 503 OFFCURVE",
"319 536 OFFCURVE",
"249 536 CURVE SMOOTH",
"116 536 OFFCURVE",
"20 419 OFFCURVE",
"20 264 CURVE SMOOTH",
"20 103 OFFCURVE",
"123 -10 OFFCURVE",
"268 -10 CURVE SMOOTH"
);
},
{
closed = 1;
nodes = (
"410 204 LINE",
"385 168 OFFCURVE",
"357 150 OFFCURVE",
"319 150 CURVE SMOOTH",
"259 150 OFFCURVE",
"216 194 OFFCURVE",
"216 260 CURVE SMOOTH",
"216 323 OFFCURVE",
"257 376 OFFCURVE",
"311 376 CURVE SMOOTH",
"351 376 OFFCURVE",
"391 346 OFFCURVE",
"410 298 CURVE"
);
}
);
width = 647;
}
);
leftKerningGroup = d;
rightKerningGroup = a.alt;
},
{
glyphname = d.alt;
lastChange = "2016-08-18 21:45:13 +0000";
layers = (
{
background = {
paths = (
{
closed = 1;
nodes = (
"599 0 LINE",
"599 730 LINE",
"409 730 LINE",
"409 448 LINE",
"379 503 OFFCURVE",
"319 536 OFFCURVE",
"249 536 CURVE SMOOTH",
"116 536 OFFCURVE",
"20 419 OFFCURVE",
"20 264 CURVE SMOOTH",
"20 103 OFFCURVE",
"123 -10 OFFCURVE",
"268 -10 CURVE SMOOTH",
"337 -10 OFFCURVE",
"380 16 OFFCURVE",
"410 69 CURVE",
"410 0 LINE"
);
},
{
closed = 1;
nodes = (
"410 204 LINE",
"385 168 OFFCURVE",
"357 150 OFFCURVE",
"319 150 CURVE SMOOTH",
"259 150 OFFCURVE",
"216 194 OFFCURVE",
"216 260 CURVE SMOOTH",
"216 323 OFFCURVE",
"257 376 OFFCURVE",
"311 376 CURVE SMOOTH",
"351 376 OFFCURVE",
"391 346 OFFCURVE",
"410 298 CURVE"
);
}
);
};
layerId = UUID0;
paths = (
{
closed = 1;
nodes = (
"599 0 LINE",
"599 730 LINE",
"409 730 LINE",
"409 448 LINE",
"379 503 OFFCURVE",
"319 536 OFFCURVE",
"249 536 CURVE SMOOTH",
"116 536 OFFCURVE",
"20 419 OFFCURVE",
"20 264 CURVE SMOOTH",
"20 103 OFFCURVE",
"123 -10 OFFCURVE",
"268 -10 CURVE SMOOTH",
"337 -10 OFFCURVE",
"380 16 OFFCURVE",
"410 69 CURVE",
"410 0 LINE"
);
},
{
closed = 1;
nodes = (
"410 204 LINE",
"385 168 OFFCURVE",
"357 150 OFFCURVE",
"319 150 CURVE SMOOTH",
"259 150 OFFCURVE",
"216 194 OFFCURVE",
"216 260 CURVE SMOOTH",
"216 323 OFFCURVE",
"257 376 OFFCURVE",
"311 376 CURVE SMOOTH",
"351 376 OFFCURVE",
"391 346 OFFCURVE",
"410 298 CURVE"
);
}
);
width = 647;
}
);
leftKerningGroup = d;
},
{
glyphname = j.alt;
lastChange = "2016-08-18 21:45:13 +0000";
layers = (
{
background = {
paths = (
{
closed = 1;
nodes = (
"48 -213 LINE",
"238 -213 LINE",
"238 517 LINE",
"48 517 LINE"
);
},
{
closed = 1;
nodes = (
"48 570 LINE",
"237 570 LINE",
"237 730 LINE",
"48 730 LINE"
);
}
);
};
layerId = UUID0;
paths = (
{
closed = 1;
nodes = (
"48 -213 LINE",
"238 -213 LINE",
"238 517 LINE",
"48 517 LINE"
);
},
{
closed = 1;
nodes = (
"48 570 LINE",
"237 570 LINE",
"237 730 LINE",
"48 730 LINE"
);
}
);
width = 286;
}
);
leftKerningGroup = i;
rightKerningGroup = i;
},
{
glyphname = l.alt;
lastChange = "2016-08-18 21:45:13 +0000";
layers = (
{
background = {
paths = (
{
closed = 1;
nodes = (
"48 0 LINE",
"116 0 OFFCURVE",
"238 0 OFFCURVE",
"238 0 CURVE",
"238 730 LINE",
"48 730 LINE"
);
}
);
};
layerId = UUID0;
paths = (
{
closed = 1;
nodes = (
"48 0 LINE",
"116 0 OFFCURVE",
"238 0 OFFCURVE",
"238 0 CURVE",
"238 730 LINE",
"48 730 LINE"
);
}
);
width = 286;
}
);
},
{
glyphname = q.alt;
lastChange = "2016-08-18 21:45:13 +0000";
layers = (
{
background = {
paths = (
{
closed = 1;
nodes = (
"321 -10 OFFCURVE",
"379 21 OFFCURVE",
"409 78 CURVE",
"409 -214 LINE",
"599 -214 LINE",
"599 526 LINE",
"434 526 LINE",
"434 445 LINE",
"397 502 OFFCURVE",
"343 536 OFFCURVE",
"264 536 CURVE SMOOTH",
"124 536 OFFCURVE",
"21 421 OFFCURVE",
"21 265 CURVE SMOOTH",
"21 107 OFFCURVE",
"116 -10 OFFCURVE",
"245 -10 CURVE SMOOTH"
);
},
{
closed = 1;
nodes = (
"257 150 OFFCURVE",
"215 194 OFFCURVE",
"215 260 CURVE SMOOTH",
"215 324 OFFCURVE",
"256 376 OFFCURVE",
"311 376 CURVE SMOOTH",
"351 376 OFFCURVE",
"391 344 OFFCURVE",
"409 298 CURVE",
"409 204 LINE",
"384 168 OFFCURVE",
"355 150 OFFCURVE",
"319 150 CURVE SMOOTH"
);
}
);
};
layerId = UUID0;
paths = (
{
closed = 1;
nodes = (
"245 -10 LINE SMOOTH",
"321 -10 OFFCURVE",
"379 21 OFFCURVE",
"409 78 CURVE",
"409 -214 LINE",
"599 -214 LINE",
"599 526 LINE",
"434 526 LINE",
"434 445 LINE",
"397 502 OFFCURVE",
"343 536 OFFCURVE",
"264 536 CURVE SMOOTH",
"124 536 OFFCURVE",
"21 421 OFFCURVE",
"21 265 CURVE SMOOTH",
"21 107 OFFCURVE",
"116 -10 OFFCURVE",
"245 -10 CURVE SMOOTH"
);
},
{
closed = 1;
nodes = (
"319 150 LINE SMOOTH",
"257 150 OFFCURVE",
"215 194 OFFCURVE",
"215 260 CURVE SMOOTH",
"215 324 OFFCURVE",
"256 376 OFFCURVE",
"311 376 CURVE SMOOTH",
"351 376 OFFCURVE",
"391 344 OFFCURVE",
"409 298 CURVE",
"409 204 LINE",
"384 168 OFFCURVE",
"355 150 OFFCURVE",
"319 150 CURVE SMOOTH"
);
}
);
width = 647;
}
);
leftKerningGroup = d;
rightKerningGroup = a.alt;
},
{
glyphname = t.alt;
lastChange = "2016-08-18 21:45:13 +0000";
layers = (
{
background = {
paths = (
{
closed = 1;
nodes = (
"300 0 LINE",
"300 356 LINE",
"420 356 LINE",
"420 526 LINE",
"300 526 LINE",
"300 691 LINE",
"105 691 LINE",
"105 526 LINE",
"25 526 LINE",
"25 356 LINE",
"105 356 LINE",
"105 0 LINE"
);
}
);
};
layerId = UUID0;
paths = (
{
closed = 1;
nodes = (
"300 0 LINE",
"300 356 LINE",
"420 356 LINE",
"420 526 LINE",
"300 526 LINE",
"300 691 LINE",
"105 691 LINE",
"105 526 LINE",
"25 526 LINE",
"25 356 LINE",
"105 356 LINE",
"105 0 LINE"
);
}
);
width = 431;
}
);
},
{
glyphname = u.alt;
lastChange = "2016-08-18 21:45:13 +0000";
layers = (
{
background = {
paths = (
{
closed = 1;
nodes = (
"572 0 LINE",
"572 526 LINE",
"382 526 LINE",
"382 204 LINE",
"351 159 OFFCURVE",
"319 150 OFFCURVE",
"295 150 CURVE SMOOTH",
"253 150 OFFCURVE",
"233 177 OFFCURVE",
"233 223 CURVE SMOOTH",
"233 526 LINE",
"43 526 LINE",
"43 180 LINE SMOOTH",
"43 51 OFFCURVE",
"101 -10 OFFCURVE",
"218 -10 CURVE SMOOTH",
"286 -10 OFFCURVE",
"354 11 OFFCURVE",
"390 70 CURVE",
"390 0 LINE"
);
}
);
};
layerId = UUID0;
paths = (
{
closed = 1;
nodes = (
"572 0 LINE",
"572 526 LINE",
"382 526 LINE",
"382 204 LINE",
"351 159 OFFCURVE",
"319 150 OFFCURVE",
"295 150 CURVE SMOOTH",
"253 150 OFFCURVE",
"233 177 OFFCURVE",
"233 223 CURVE SMOOTH",
"233 526 LINE",
"43 526 LINE",
"43 180 LINE SMOOTH",
"43 51 OFFCURVE",
"101 -10 OFFCURVE",
"218 -10 CURVE SMOOTH",
"286 -10 OFFCURVE",
"354 11 OFFCURVE",
"390 70 CURVE",
"390 0 LINE"
);
}
);
width = 620;
}
);
leftKerningGroup = u;
rightKerningGroup = a.alt;
},
{
glyphname = w.alt;
lastChange = "2016-08-18 21:45:13 +0000";
layers = (
{
background = {
paths = (
{
closed = 1;
nodes = (
"729 0 LINE",
"906 526 LINE",
"711 526 LINE",
"617 224 LINE",
"542 526 LINE",
"365 526 LINE",
"290 224 LINE",
"196 526 LINE",
"1 526 LINE",
"178 0 LINE",
"385 0 LINE",
"453 229 LINE",
"522 0 LINE"
);
}
);
};
layerId = UUID0;
paths = (
{
closed = 1;
nodes = (
"729 0 LINE",
"906 526 LINE",
"711 526 LINE",
"617 224 LINE",
"542 526 LINE",
"365 526 LINE",
"290 224 LINE",
"196 526 LINE",
"1 526 LINE",
"178 0 LINE",
"385 0 LINE",
"453 229 LINE",
"522 0 LINE"
);
}
);
width = 907;
}
);
},
{
glyphname = y.alt;
lastChange = "2016-08-18 21:45:13 +0000";
layers = (
{
background = {
paths = (
{
closed = 1;
nodes = (
"374 526 LINE",
"293 161 LINE",
"193 526 LINE",
"-2 526 LINE",
"189 0 LINE",
"106 -213 LINE",
"328 -213 LINE",
"551 526 LINE"
);
}
);
};
layerId = UUID0;
paths = (
{
closed = 1;
nodes = (
"374 526 LINE",
"293 161 LINE",
"193 526 LINE",
"-2 526 LINE",
"189 0 LINE",
"106 -213 LINE",
"328 -213 LINE",
"551 526 LINE"
);
}
);
width = 555;
}
);
},
{
glyphname = a.alt2;
lastChange = "2016-08-18 21:45:13 +0000";
layers = (
{
background = {
paths = (
{
closed = 1;
nodes = (
"542 0 LINE",
"542 312 LINE SMOOTH",
"542 460 OFFCURVE",
"447 536 OFFCURVE",
"280 536 CURVE SMOOTH",
"190 536 OFFCURVE",
"113 514 OFFCURVE",
"43 469 CURVE",
"98 351 LINE",
"154 388 OFFCURVE",
"202 408 OFFCURVE",
"261 408 CURVE SMOOTH",
"325 408 OFFCURVE",
"352 384 OFFCURVE",
"352 335 CURVE SMOOTH",
"352 319 LINE",
"325 332 OFFCURVE",
"287 339 OFFCURVE",
"246 339 CURVE SMOOTH",
"113 339 OFFCURVE",
"19 265 OFFCURVE",
"19 159 CURVE SMOOTH",
"19 62 OFFCURVE",
"98 -10 OFFCURVE",
"203 -10 CURVE SMOOTH",
"272 -10 OFFCURVE",
"325 16 OFFCURVE",
"359 65 CURVE",
"359 0 LINE"
);
},
{
closed = 1;
nodes = (
"309 134 OFFCURVE",
"283 126 OFFCURVE",
"260 126 CURVE SMOOTH",
"224 126 OFFCURVE",
"198 147 OFFCURVE",
"198 176 CURVE SMOOTH",
"198 210 OFFCURVE",
"233 236 OFFCURVE",
"279 236 CURVE SMOOTH",
"300 236 OFFCURVE",
"330 230 OFFCURVE",
"352 222 CURVE",
"352 183 LINE SMOOTH",
"352 170 OFFCURVE",
"342 156 OFFCURVE",
"327 146 CURVE SMOOTH"
);
}
);
};
layerId = UUID0;
paths = (
{
closed = 1;
nodes = (
"542 0 LINE",
"542 312 LINE SMOOTH",
"542 460 OFFCURVE",
"447 536 OFFCURVE",
"280 536 CURVE SMOOTH",
"190 536 OFFCURVE",
"113 514 OFFCURVE",
"43 469 CURVE",
"98 351 LINE",
"154 388 OFFCURVE",
"202 408 OFFCURVE",
"261 408 CURVE SMOOTH",
"325 408 OFFCURVE",
"352 384 OFFCURVE",
"352 335 CURVE SMOOTH",
"352 319 LINE",
"325 332 OFFCURVE",
"287 339 OFFCURVE",
"246 339 CURVE SMOOTH",
"113 339 OFFCURVE",
"19 265 OFFCURVE",
"19 159 CURVE SMOOTH",
"19 62 OFFCURVE",
"98 -10 OFFCURVE",
"203 -10 CURVE SMOOTH",
"272 -10 OFFCURVE",
"325 16 OFFCURVE",
"359 65 CURVE",
"359 0 LINE"
);
},
{
closed = 1;
nodes = (
"327 146 LINE SMOOTH",
"309 134 OFFCURVE",
"283 126 OFFCURVE",
"260 126 CURVE SMOOTH",
"224 126 OFFCURVE",
"198 147 OFFCURVE",
"198 176 CURVE SMOOTH",
"198 210 OFFCURVE",
"233 236 OFFCURVE",
"279 236 CURVE SMOOTH",
"300 236 OFFCURVE",
"330 230 OFFCURVE",
"352 222 CURVE",
"352 183 LINE SMOOTH",
"352 170 OFFCURVE",
"342 156 OFFCURVE",
"327 146 CURVE SMOOTH"
);
}
);
width = 584;
}
);
leftKerningGroup = a;
},
{
glyphname = c_t;
lastChange = "2016-08-18 21:45:13 +0000";
layers = (
{
background = {
paths = (
{
closed = 1;
nodes = (
"962 179 LINE",
"938 169 OFFCURVE",
"913 162 OFFCURVE",
"894 162 CURVE SMOOTH",
"869 162 OFFCURVE",
"853 174 OFFCURVE",
"853 209 CURVE SMOOTH",
"853 383 LINE",
"956 383 LINE",
"956 526 LINE",
"853 526 LINE",
"853 616 OFFCURVE",
"852 730 OFFCURVE",
"653 730 CURVE SMOOTH",
"516 730 OFFCURVE",
"444 676 OFFCURVE",
"444 576 CURVE SMOOTH",
"444 553 OFFCURVE",
"448 527 OFFCURVE",
"458 499 CURVE",
"413 523 OFFCURVE",
"378 536 OFFCURVE",
"315 536 CURVE SMOOTH",
"118 536 OFFCURVE",
"19 407 OFFCURVE",
"19 264 CURVE SMOOTH",
"19 118 OFFCURVE",
"122 -10 OFFCURVE",
"308 -10 CURVE SMOOTH",
"435 -10 OFFCURVE",
"522 49 OFFCURVE",
"565 133 CURVE",
"380 189 LINE",
"363 164 OFFCURVE",
"338 150 OFFCURVE",
"307 150 CURVE SMOOTH",
"255 150 OFFCURVE",
"214 192 OFFCURVE",
"214 263 CURVE SMOOTH",
"214 334 OFFCURVE",
"255 376 OFFCURVE",
"307 376 CURVE SMOOTH",
"338 376 OFFCURVE",
"363 362 OFFCURVE",
"380 337 CURVE",
"565 393 LINE",
"548 430 OFFCURVE",
"520 506 OFFCURVE",
"520 566 CURVE SMOOTH",
"520 614 OFFCURVE",
"538 651 OFFCURVE",
"595 651 CURVE SMOOTH",
"649 651 OFFCURVE",
"662 618 OFFCURVE",
"663 526 CURVE",
"598 526 LINE",
"598 383 LINE",
"663 383 LINE",
"663 142 LINE SMOOTH",
"663 28 OFFCURVE",
"735 -11 OFFCURVE",
"821 -11 CURVE SMOOTH",
"879 -11 OFFCURVE",
"943 6 OFFCURVE",
"996 29 CURVE"
);
}
);
};
layerId = UUID0;
paths = (
{
closed = 1;
nodes = (
"962 179 LINE",
"938 169 OFFCURVE",
"913 162 OFFCURVE",
"894 162 CURVE SMOOTH",
"869 162 OFFCURVE",
"853 174 OFFCURVE",
"853 209 CURVE SMOOTH",
"853 383 LINE",
"956 383 LINE",
"956 526 LINE",
"853 526 LINE",
"853 616 OFFCURVE",
"852 730 OFFCURVE",
"653 730 CURVE SMOOTH",
"516 730 OFFCURVE",
"444 676 OFFCURVE",
"444 576 CURVE SMOOTH",
"444 553 OFFCURVE",
"448 527 OFFCURVE",
"458 499 CURVE",
"413 523 OFFCURVE",
"378 536 OFFCURVE",
"315 536 CURVE SMOOTH",
"118 536 OFFCURVE",
"19 407 OFFCURVE",
"19 264 CURVE SMOOTH",
"19 118 OFFCURVE",
"122 -10 OFFCURVE",
"308 -10 CURVE SMOOTH",
"435 -10 OFFCURVE",
"522 49 OFFCURVE",
"565 133 CURVE",
"380 189 LINE",
"363 164 OFFCURVE",
"338 150 OFFCURVE",
"307 150 CURVE SMOOTH",
"255 150 OFFCURVE",
"214 192 OFFCURVE",
"214 263 CURVE SMOOTH",
"214 334 OFFCURVE",
"255 376 OFFCURVE",
"307 376 CURVE SMOOTH",
"338 376 OFFCURVE",
"363 362 OFFCURVE",
"380 337 CURVE",
"565 393 LINE",
"548 430 OFFCURVE",
"520 506 OFFCURVE",
"520 566 CURVE SMOOTH",
"520 614 OFFCURVE",
"538 651 OFFCURVE",
"595 651 CURVE SMOOTH",
"649 651 OFFCURVE",
"662 618 OFFCURVE",
"663 526 CURVE",
"598 526 LINE",
"598 383 LINE",
"663 383 LINE",
"663 142 LINE SMOOTH",
"663 28 OFFCURVE",
"735 -11 OFFCURVE",
"821 -11 CURVE SMOOTH",
"879 -11 OFFCURVE",
"943 6 OFFCURVE",
"996 29 CURVE"
);
}
);
width = 1002;
}
);
leftKerningGroup = o;
rightKerningGroup = t;
},
{
glyphname = f_f;
lastChange = "2016-08-18 21:45:13 +0000";
layers = (
{
background = {
paths = (
{
closed = 1;
nodes = (
"630 580 OFFCURVE",
"659 574 OFFCURVE",
"681 566 CURVE",
"713 710 LINE",
"660 730 OFFCURVE",
"611 740 OFFCURVE",
"570 740 CURVE SMOOTH",
"506 740 OFFCURVE",
"457 716 OFFCURVE",
"423 676 CURVE",
"370 696 OFFCURVE",
"322 706 OFFCURVE",
"281 706 CURVE SMOOTH",
"161 706 OFFCURVE",
"85 620 OFFCURVE",
"85 488 CURVE SMOOTH",
"85 465 LINE",
"20 465 LINE",
"20 322 LINE",
"85 322 LINE",
"85 0 LINE",
"275 0 LINE",
"275 322 LINE",
"374 322 LINE",
"374 0 LINE",
"564 0 LINE",
"564 322 LINE",
"679 322 LINE",
"679 465 LINE",
"564 465 LINE",
"564 529 LINE SMOOTH",
"564 563 OFFCURVE",
"579 580 OFFCURVE",
"611 580 CURVE SMOOTH"
);
},
{
closed = 1;
nodes = (
"374 465 LINE",
"275 465 LINE",
"275 495 LINE SMOOTH",
"275 529 OFFCURVE",
"290 546 OFFCURVE",
"321 546 CURVE SMOOTH",
"336 546 OFFCURVE",
"356 542 OFFCURVE",
"374 537 CURVE"
);
}
);
};
layerId = UUID0;
paths = (
{
closed = 1;
nodes = (
"611 580 LINE SMOOTH",
"630 580 OFFCURVE",
"659 574 OFFCURVE",
"681 566 CURVE",
"713 710 LINE",
"660 730 OFFCURVE",
"611 740 OFFCURVE",
"570 740 CURVE SMOOTH",
"506 740 OFFCURVE",
"457 716 OFFCURVE",
"423 676 CURVE",
"370 696 OFFCURVE",
"322 706 OFFCURVE",
"281 706 CURVE SMOOTH",
"161 706 OFFCURVE",
"85 620 OFFCURVE",
"85 488 CURVE SMOOTH",
"85 465 LINE",
"20 465 LINE",
"20 322 LINE",
"85 322 LINE",
"85 0 LINE",
"275 0 LINE",
"275 322 LINE",
"374 322 LINE",
"374 0 LINE",
"564 0 LINE",
"564 322 LINE",
"679 322 LINE",
"679 465 LINE",
"564 465 LINE",
"564 529 LINE SMOOTH",
"564 563 OFFCURVE",
"579 580 OFFCURVE",
"611 580 CURVE SMOOTH"
);
},
{
closed = 1;
nodes = (
"374 465 LINE",
"275 465 LINE",
"275 495 LINE SMOOTH",
"275 529 OFFCURVE",
"290 546 OFFCURVE",
"321 546 CURVE SMOOTH",
"336 546 OFFCURVE",
"356 542 OFFCURVE",
"374 537 CURVE"
);
}
);
width = 691;
}
);
leftKerningGroup = f;
rightKerningGroup = f;
unicode = FB00;
},
{
glyphname = f_f_i;
lastChange = "2016-08-18 21:45:13 +0000";
layers = (
{
background = {
paths = (
{
closed = 1;
nodes = (
"85 0 LINE",
"275 0 LINE",
"275 322 LINE",
"374 322 LINE",
"374 0 LINE",
"564 0 LINE",
"564 322 LINE",
"673 322 LINE",
"673 0 LINE",
"864 0 LINE",
"864 465 LINE",
"564 465 LINE",
"564 529 LINE SMOOTH",
"564 563 OFFCURVE",
"585 580 OFFCURVE",
"631 580 CURVE SMOOTH",
"671 580 OFFCURVE",
"728 554 OFFCURVE",
"771 516 CURVE",
"843 660 LINE",
"754 715 OFFCURVE",
"678 740 OFFCURVE",
"610 740 CURVE SMOOTH",
"530 740 OFFCURVE",
"465 716 OFFCURVE",
"423 676 CURVE",
"370 696 OFFCURVE",
"322 706 OFFCURVE",
"281 706 CURVE SMOOTH",
"161 706 OFFCURVE",
"85 620 OFFCURVE",
"85 488 CURVE SMOOTH",
"85 465 LINE",
"20 465 LINE",
"20 322 LINE",
"85 322 LINE"
);
},
{
closed = 1;
nodes = (
"275 465 LINE",
"275 495 LINE SMOOTH",
"275 529 OFFCURVE",
"290 546 OFFCURVE",
"321 546 CURVE SMOOTH",
"336 546 OFFCURVE",
"356 542 OFFCURVE",
"374 537 CURVE",
"374 465 LINE"
);
}
);
};
layerId = UUID0;
paths = (
{
closed = 1;
nodes = (
"85 0 LINE",
"275 0 LINE",
"275 322 LINE",
"374 322 LINE",
"374 0 LINE",
"564 0 LINE",
"564 322 LINE",
"673 322 LINE",
"673 0 LINE",
"864 0 LINE",
"864 465 LINE",
"564 465 LINE",
"564 529 LINE SMOOTH",
"564 563 OFFCURVE",
"585 580 OFFCURVE",
"631 580 CURVE SMOOTH",
"671 580 OFFCURVE",
"728 554 OFFCURVE",
"771 516 CURVE",
"843 660 LINE",
"754 715 OFFCURVE",
"678 740 OFFCURVE",
"610 740 CURVE SMOOTH",
"530 740 OFFCURVE",
"465 716 OFFCURVE",
"423 676 CURVE",
"370 696 OFFCURVE",
"322 706 OFFCURVE",
"281 706 CURVE SMOOTH",
"161 706 OFFCURVE",
"85 620 OFFCURVE",
"85 488 CURVE SMOOTH",
"85 465 LINE",
"20 465 LINE",
"20 322 LINE",
"85 322 LINE"
);
},
{
closed = 1;
nodes = (
"275 465 LINE",
"275 495 LINE SMOOTH",
"275 529 OFFCURVE",
"290 546 OFFCURVE",
"321 546 CURVE SMOOTH",
"336 546 OFFCURVE",
"356 542 OFFCURVE",
"374 537 CURVE",
"374 465 LINE"
);
}
);
width = 911;
}
);
leftKerningGroup = f;
rightKerningGroup = i;
unicode = FB03;
},
{
glyphname = f_f_l;
lastChange = "2016-08-18 21:45:13 +0000";
layers = (
{
background = {
paths = (
{
closed = 1;
nodes = (
"927 -9 OFFCURVE",
"1005 21 OFFCURVE",
"1008 24 CURVE",
"985 176 LINE",
"983 176 OFFCURVE",
"950 160 OFFCURVE",
"928 160 CURVE SMOOTH",
"896 160 OFFCURVE",
"885 192 OFFCURVE",
"885 217 CURVE SMOOTH",
"885 510 LINE SMOOTH",
"885 650 OFFCURVE",
"806 740 OFFCURVE",
"625 740 CURVE SMOOTH",
"539 740 OFFCURVE",
"468 720 OFFCURVE",
"424 676 CURVE",
"371 696 OFFCURVE",
"323 706 OFFCURVE",
"278 706 CURVE SMOOTH",
"162 706 OFFCURVE",
"85 620 OFFCURVE",
"85 488 CURVE SMOOTH",
"85 465 LINE",
"20 465 LINE",
"20 322 LINE",
"85 322 LINE",
"85 0 LINE",
"275 0 LINE",
"275 322 LINE",
"373 322 LINE",
"373 0 LINE",
"563 0 LINE",
"563 322 LINE",
"632 322 LINE",
"632 465 LINE",
"563 465 LINE",
"563 494 LINE SMOOTH",
"563 540 OFFCURVE",
"579 580 OFFCURVE",
"627 580 CURVE SMOOTH",
"687 580 OFFCURVE",
"695 541 OFFCURVE",
"695 483 CURVE SMOOTH",
"695 117 LINE SMOOTH",
"695 49 OFFCURVE",
"755 -9 OFFCURVE",
"855 -9 CURVE SMOOTH"
);
},
{
closed = 1;
nodes = (
"275 465 LINE",
"275 495 LINE SMOOTH",
"275 529 OFFCURVE",
"290 546 OFFCURVE",
"321 546 CURVE SMOOTH",
"335 546 OFFCURVE",
"355 543 OFFCURVE",
"373 538 CURVE",
"373 465 LINE"
);
}
);
};
layerId = UUID0;
paths = (
{
closed = 1;
nodes = (
"855 -9 LINE SMOOTH",
"927 -9 OFFCURVE",
"1005 21 OFFCURVE",
"1008 24 CURVE",
"985 176 LINE",
"983 176 OFFCURVE",
"950 160 OFFCURVE",
"928 160 CURVE SMOOTH",
"896 160 OFFCURVE",
"885 192 OFFCURVE",
"885 217 CURVE SMOOTH",
"885 510 LINE SMOOTH",
"885 650 OFFCURVE",
"806 740 OFFCURVE",
"625 740 CURVE SMOOTH",
"539 740 OFFCURVE",
"468 720 OFFCURVE",
"424 676 CURVE",
"371 696 OFFCURVE",
"323 706 OFFCURVE",
"278 706 CURVE SMOOTH",
"162 706 OFFCURVE",
"85 620 OFFCURVE",
"85 488 CURVE SMOOTH",
"85 465 LINE",
"20 465 LINE",
"20 322 LINE",
"85 322 LINE",
"85 0 LINE",
"275 0 LINE",
"275 322 LINE",
"373 322 LINE",
"373 0 LINE",
"563 0 LINE",
"563 322 LINE",
"632 322 LINE",
"632 465 LINE",
"563 465 LINE",
"563 494 LINE SMOOTH",
"563 540 OFFCURVE",
"579 580 OFFCURVE",
"627 580 CURVE SMOOTH",
"687 580 OFFCURVE",
"695 541 OFFCURVE",
"695 483 CURVE SMOOTH",
"695 117 LINE SMOOTH",
"695 49 OFFCURVE",
"755 -9 OFFCURVE",
"855 -9 CURVE SMOOTH"
);
},
{
closed = 1;
nodes = (
"275 465 LINE",
"275 495 LINE SMOOTH",
"275 529 OFFCURVE",
"290 546 OFFCURVE",
"321 546 CURVE SMOOTH",
"335 546 OFFCURVE",
"355 543 OFFCURVE",
"373 538 CURVE",
"373 465 LINE"
);
}
);
width = 1006;
}
);
leftKerningGroup = f;
rightKerningGroup = l;
unicode = FB04;
},
{
glyphname = f_i;
lastChange = "2016-08-18 21:45:13 +0000";
layers = (
{
background = {
paths = (
{
closed = 1;
nodes = (
"85 0 LINE",
"275 0 LINE",
"275 322 LINE",
"384 322 LINE",
"384 0 LINE",
"574 0 LINE",
"574 465 LINE",
"275 465 LINE",
"275 529 LINE SMOOTH",
"275 563 OFFCURVE",
"298 580 OFFCURVE",
"337 580 CURVE SMOOTH",
"383 580 OFFCURVE",
"436 556 OFFCURVE",
"482 516 CURVE",
"554 660 LINE",
"470 714 OFFCURVE",
"401 740 OFFCURVE",
"324 740 CURVE SMOOTH",
"184 740 OFFCURVE",
"85 654 OFFCURVE",
"85 522 CURVE SMOOTH",
"85 465 LINE",
"20 465 LINE",
"20 322 LINE",
"85 322 LINE"
);
}
);
};
layerId = UUID0;
paths = (
{
closed = 1;
nodes = (
"85 0 LINE",
"275 0 LINE",
"275 322 LINE",
"384 322 LINE",
"384 0 LINE",
"574 0 LINE",
"574 465 LINE",
"275 465 LINE",
"275 529 LINE SMOOTH",
"275 563 OFFCURVE",
"298 580 OFFCURVE",
"337 580 CURVE SMOOTH",
"383 580 OFFCURVE",
"436 556 OFFCURVE",
"482 516 CURVE",
"554 660 LINE",
"470 714 OFFCURVE",
"401 740 OFFCURVE",
"324 740 CURVE SMOOTH",
"184 740 OFFCURVE",
"85 654 OFFCURVE",
"85 522 CURVE SMOOTH",
"85 465 LINE",
"20 465 LINE",
"20 322 LINE",
"85 322 LINE"
);
}
);
width = 621;
}
);
leftKerningGroup = f;
rightKerningGroup = i;
unicode = FB01;
},
{
glyphname = f_l;
lastChange = "2016-08-18 21:45:13 +0000";
layers = (
{
background = {
paths = (
{
closed = 1;
nodes = (
"697 176 LINE",
"695 176 OFFCURVE",
"662 160 OFFCURVE",
"640 160 CURVE SMOOTH",
"608 160 OFFCURVE",
"597 192 OFFCURVE",
"597 217 CURVE SMOOTH",
"597 510 LINE SMOOTH",
"597 650 OFFCURVE",
"518 740 OFFCURVE",
"337 740 CURVE SMOOTH",
"188 740 OFFCURVE",
"85 679 OFFCURVE",
"85 540 CURVE SMOOTH",
"85 465 LINE",
"20 465 LINE",
"20 322 LINE",
"85 322 LINE",
"85 0 LINE",
"275 0 LINE",
"275 322 LINE",
"344 322 LINE",
"344 465 LINE",
"275 465 LINE",
"275 494 LINE SMOOTH",
"275 545 OFFCURVE",
"291 580 OFFCURVE",
"345 580 CURVE SMOOTH",
"399 580 OFFCURVE",
"407 545 OFFCURVE",
"407 473 CURVE SMOOTH",
"407 117 LINE SMOOTH",
"407 49 OFFCURVE",
"467 -9 OFFCURVE",
"567 -9 CURVE SMOOTH",
"639 -9 OFFCURVE",
"717 21 OFFCURVE",
"720 24 CURVE"
);
}
);
};
layerId = UUID0;
paths = (
{
closed = 1;
nodes = (
"697 176 LINE",
"695 176 OFFCURVE",
"662 160 OFFCURVE",
"640 160 CURVE SMOOTH",
"608 160 OFFCURVE",
"597 192 OFFCURVE",
"597 217 CURVE SMOOTH",
"597 510 LINE SMOOTH",
"597 650 OFFCURVE",
"518 740 OFFCURVE",
"337 740 CURVE SMOOTH",
"188 740 OFFCURVE",
"85 679 OFFCURVE",
"85 540 CURVE SMOOTH",
"85 465 LINE",
"20 465 LINE",
"20 322 LINE",
"85 322 LINE",
"85 0 LINE",
"275 0 LINE",
"275 322 LINE",
"344 322 LINE",
"344 465 LINE",
"275 465 LINE",
"275 494 LINE SMOOTH",
"275 545 OFFCURVE",
"291 580 OFFCURVE",
"345 580 CURVE SMOOTH",
"399 580 OFFCURVE",
"407 545 OFFCURVE",
"407 473 CURVE SMOOTH",
"407 117 LINE SMOOTH",
"407 49 OFFCURVE",
"467 -9 OFFCURVE",
"567 -9 CURVE SMOOTH",
"639 -9 OFFCURVE",
"717 21 OFFCURVE",
"720 24 CURVE"
);
}
);
width = 718;
}
);
leftKerningGroup = f;
rightKerningGroup = l;
unicode = FB02;
},
{
glyphname = s_t;
lastChange = "2016-08-18 21:45:13 +0000";
layers = (
{
background = {
paths = (
{
closed = 1;
nodes = (
"870 179 LINE",
"846 169 OFFCURVE",
"821 162 OFFCURVE",
"802 162 CURVE SMOOTH",
"777 162 OFFCURVE",
"761 174 OFFCURVE",
"761 209 CURVE SMOOTH",
"761 383 LINE",
"864 383 LINE",
"864 526 LINE",
"761 526 LINE",
"761 655 OFFCURVE",
"742 730 OFFCURVE",
"557 730 CURVE SMOOTH",
"413 730 OFFCURVE",
"352 664 OFFCURVE",
"352 580 CURVE SMOOTH",
"352 551 OFFCURVE",
"357 527 OFFCURVE",
"371 505 CURVE",
"326 532 OFFCURVE",
"264 537 OFFCURVE",
"236 537 CURVE SMOOTH",
"131 537 OFFCURVE",
"35 463 OFFCURVE",
"35 349 CURVE SMOOTH",
"35 267 OFFCURVE",
"84 235 OFFCURVE",
"222 195 CURVE SMOOTH",
"289 176 OFFCURVE",
"312 170 OFFCURVE",
"312 148 CURVE SMOOTH",
"312 131 OFFCURVE",
"297 123 OFFCURVE",
"264 123 CURVE SMOOTH",
"211 123 OFFCURVE",
"147 144 OFFCURVE",
"78 182 CURVE",
"9 53 LINE",
"73 17 OFFCURVE",
"185 -10 OFFCURVE",
"270 -10 CURVE SMOOTH",
"402 -10 OFFCURVE",
"485 55 OFFCURVE",
"485 170 CURVE SMOOTH",
"485 253 OFFCURVE",
"442 290 OFFCURVE",
"285 333 CURVE SMOOTH",
"225 349 OFFCURVE",
"201 355 OFFCURVE",
"201 378 CURVE SMOOTH",
"201 397 OFFCURVE",
"219 406 OFFCURVE",
"249 406 CURVE SMOOTH",
"286 406 OFFCURVE",
"330 393 OFFCURVE",
"398 359 CURVE",
"467 480 LINE",
"442 508 OFFCURVE",
"428 543 OFFCURVE",
"428 574 CURVE SMOOTH",
"428 616 OFFCURVE",
"456 651 OFFCURVE",
"507 651 CURVE SMOOTH",
"560 651 OFFCURVE",
"570 614 OFFCURVE",
"571 526 CURVE",
"506 526 LINE",
"506 383 LINE",
"571 383 LINE",
"571 142 LINE SMOOTH",
"571 28 OFFCURVE",
"643 -11 OFFCURVE",
"729 -11 CURVE SMOOTH",
"787 -11 OFFCURVE",
"851 6 OFFCURVE",
"904 29 CURVE"
);
}
);
};
layerId = UUID0;
paths = (
{
closed = 1;
nodes = (
"870 179 LINE",
"846 169 OFFCURVE",
"821 162 OFFCURVE",
"802 162 CURVE SMOOTH",
"777 162 OFFCURVE",
"761 174 OFFCURVE",
"761 209 CURVE SMOOTH",
"761 383 LINE",
"864 383 LINE",
"864 526 LINE",
"761 526 LINE",
"761 655 OFFCURVE",
"742 730 OFFCURVE",
"557 730 CURVE SMOOTH",
"413 730 OFFCURVE",
"352 664 OFFCURVE",
"352 580 CURVE SMOOTH",
"352 551 OFFCURVE",
"357 527 OFFCURVE",
"371 505 CURVE",
"326 532 OFFCURVE",
"264 537 OFFCURVE",
"236 537 CURVE SMOOTH",
"131 537 OFFCURVE",
"35 463 OFFCURVE",
"35 349 CURVE SMOOTH",
"35 267 OFFCURVE",
"84 235 OFFCURVE",
"222 195 CURVE SMOOTH",
"289 176 OFFCURVE",
"312 170 OFFCURVE",
"312 148 CURVE SMOOTH",
"312 131 OFFCURVE",
"297 123 OFFCURVE",
"264 123 CURVE SMOOTH",
"211 123 OFFCURVE",
"147 144 OFFCURVE",
"78 182 CURVE",
"9 53 LINE",
"73 17 OFFCURVE",
"185 -10 OFFCURVE",
"270 -10 CURVE SMOOTH",
"402 -10 OFFCURVE",
"485 55 OFFCURVE",
"485 170 CURVE SMOOTH",
"485 253 OFFCURVE",
"442 290 OFFCURVE",
"285 333 CURVE SMOOTH",
"225 349 OFFCURVE",
"201 355 OFFCURVE",
"201 378 CURVE SMOOTH",
"201 397 OFFCURVE",
"219 406 OFFCURVE",
"249 406 CURVE SMOOTH",
"286 406 OFFCURVE",
"330 393 OFFCURVE",
"398 359 CURVE",
"467 480 LINE",
"442 508 OFFCURVE",
"428 543 OFFCURVE",
"428 574 CURVE SMOOTH",
"428 616 OFFCURVE",
"456 651 OFFCURVE",
"507 651 CURVE SMOOTH",
"560 651 OFFCURVE",
"570 614 OFFCURVE",
"571 526 CURVE",
"506 526 LINE",
"506 383 LINE",
"571 383 LINE",
"571 142 LINE SMOOTH",
"571 28 OFFCURVE",
"643 -11 OFFCURVE",
"729 -11 CURVE SMOOTH",
"787 -11 OFFCURVE",
"851 6 OFFCURVE",
"904 29 CURVE"
);
}
);
width = 910;
}
);
leftKerningGroup = s;
rightKerningGroup = t;
unicode = FB06;
},
{
glyphname = A.sc;
lastChange = "2016-08-18 21:45:13 +0000";
layers = (
{
anchors = (
{
name = bottom;
position = "{604, 8}";
},
{
name = top;
position = "{300, 707}";
}
);
background = {
paths = (
{
closed = 1;
nodes = (
"172 0 LINE",
"212 102 LINE",
"387 102 LINE",
"428 0 LINE",
"608 0 LINE",
"369 568 LINE",
"231 568 LINE",
"-9 0 LINE"
);
},
{
closed = 1;
nodes = (
"349 250 LINE",
"248 250 LINE",
"300 363 LINE"
);
}
);
};
layerId = UUID0;
paths = (
{
closed = 1;
nodes = (
"172 0 LINE",
"212 102 LINE",
"387 102 LINE",
"428 0 LINE",
"608 0 LINE",
"369 568 LINE",
"231 568 LINE",
"-9 0 LINE"
);
},
{
closed = 1;
nodes = (
"349 250 LINE",
"248 250 LINE",
"300 363 LINE"
);
}
);
width = 600;
}
);
},
{
glyphname = B.sc;
lastChange = "2016-08-18 21:45:13 +0000";
layers = (
{
background = {
paths = (
{
closed = 1;
nodes = (
"587 226 OFFCURVE",
"542 272 OFFCURVE",
"470 291 CURVE",
"530 315 OFFCURVE",
"560 370 OFFCURVE",
"560 422 CURVE SMOOTH",
"560 494 OFFCURVE",
"505 568 OFFCURVE",
"417 568 CURVE SMOOTH",
"55 568 LINE",
"55 0 LINE",
"363 0 LINE SMOOTH",
"485 0 OFFCURVE",
"587 41 OFFCURVE",
"587 145 CURVE SMOOTH"
);
},
{
closed = 1;
nodes = (
"414 155 OFFCURVE",
"391 143 OFFCURVE",
"363 143 CURVE SMOOTH",
"225 143 LINE",
"225 221 LINE",
"369 221 LINE SMOOTH",
"395 221 OFFCURVE",
"414 205 OFFCURVE",
"414 181 CURVE SMOOTH"
);
},
{
closed = 1;
nodes = (
"349 423 LINE SMOOTH",
"371 423 OFFCURVE",
"391 416 OFFCURVE",
"391 389 CURVE SMOOTH",
"391 356 OFFCURVE",
"368 354 OFFCURVE",
"344 354 CURVE SMOOTH",
"225 354 LINE",
"225 423 LINE"
);
}
);
};
layerId = UUID0;
paths = (
{
closed = 1;
nodes = (
"587 145 LINE SMOOTH",
"587 226 OFFCURVE",
"542 272 OFFCURVE",
"470 291 CURVE",
"530 315 OFFCURVE",
"560 370 OFFCURVE",
"560 422 CURVE SMOOTH",
"560 494 OFFCURVE",
"505 568 OFFCURVE",
"417 568 CURVE SMOOTH",
"55 568 LINE",
"55 0 LINE",
"363 0 LINE SMOOTH",
"485 0 OFFCURVE",
"587 41 OFFCURVE",
"587 145 CURVE SMOOTH"
);
},
{
closed = 1;
nodes = (
"414 181 LINE SMOOTH",
"414 155 OFFCURVE",
"391 143 OFFCURVE",
"363 143 CURVE SMOOTH",
"225 143 LINE",
"225 221 LINE",
"369 221 LINE SMOOTH",
"395 221 OFFCURVE",
"414 205 OFFCURVE",
"414 181 CURVE SMOOTH"
);
},
{
closed = 1;
nodes = (
"349 423 LINE SMOOTH",
"371 423 OFFCURVE",
"391 416 OFFCURVE",
"391 389 CURVE SMOOTH",
"391 356 OFFCURVE",
"368 354 OFFCURVE",
"344 354 CURVE SMOOTH",
"225 354 LINE",
"225 423 LINE"
);
}
);
width = 610;
}
);
leftKerningGroup = I.sc;
},
{
glyphname = C.sc;
lastChange = "2016-08-18 21:45:13 +0000";
layers = (
{
anchors = (
{
name = bottom;
position = "{369, 0}";
},
{
name = top;
position = "{370, 707}";
}
);
background = {
paths = (
{
closed = 1;
nodes = (
"22 143 OFFCURVE",
"147 -5 OFFCURVE",
"325 -5 CURVE SMOOTH",
"427 -5 OFFCURVE",
"544 43 OFFCURVE",
"581 127 CURVE",
"442 211 LINE",
"423 163 OFFCURVE",
"371 146 OFFCURVE",
"329 146 CURVE SMOOTH",
"245 146 OFFCURVE",
"195 211 OFFCURVE",
"195 284 CURVE SMOOTH",
"195 349 OFFCURVE",
"236 420 OFFCURVE",
"327 420 CURVE SMOOTH",
"368 420 OFFCURVE",
"422 406 OFFCURVE",
"444 354 CURVE",
"574 447 LINE",
"534 522 OFFCURVE",
"444 571 OFFCURVE",
"330 571 CURVE SMOOTH",
"136 571 OFFCURVE",
"22 428 OFFCURVE",
"22 289 CURVE SMOOTH"
);
}
);
};
layerId = UUID0;
paths = (
{
closed = 1;
nodes = (
"22 289 LINE SMOOTH",
"22 143 OFFCURVE",
"147 -5 OFFCURVE",
"325 -5 CURVE SMOOTH",
"427 -5 OFFCURVE",
"544 43 OFFCURVE",
"581 127 CURVE",
"442 211 LINE",
"423 163 OFFCURVE",
"371 146 OFFCURVE",
"329 146 CURVE SMOOTH",
"245 146 OFFCURVE",
"195 211 OFFCURVE",
"195 284 CURVE SMOOTH",
"195 349 OFFCURVE",
"236 420 OFFCURVE",
"327 420 CURVE SMOOTH",
"368 420 OFFCURVE",
"422 406 OFFCURVE",
"444 354 CURVE",
"574 447 LINE",
"534 522 OFFCURVE",
"444 571 OFFCURVE",
"330 571 CURVE SMOOTH",
"136 571 OFFCURVE",
"22 428 OFFCURVE",
"22 289 CURVE SMOOTH"
);
}
);
width = 592;
}
);
leftKerningGroup = O.sc;
},
{
glyphname = D.sc;
lastChange = "2016-08-18 21:45:13 +0000";
layers = (
{
anchors = (
{
name = top;
position = "{349, 707}";
}
);
background = {
paths = (
{
closed = 1;
nodes = (
"299 0 LINE SMOOTH",
"493 0 OFFCURVE",
"621 113 OFFCURVE",
"621 285 CURVE SMOOTH",
"621 442 OFFCURVE",
"511 568 OFFCURVE",
"299 568 CURVE SMOOTH",
"55 568 LINE",
"55 0 LINE"
);
},
{
closed = 1;
nodes = (
"448 206 OFFCURVE",
"394 148 OFFCURVE",
"299 148 CURVE SMOOTH",
"225 148 LINE",
"225 420 LINE",
"299 420 LINE SMOOTH",
"392 420 OFFCURVE",
"448 366 OFFCURVE",
"448 285 CURVE SMOOTH"
);
}
);
};
layerId = UUID0;
paths = (
{
closed = 1;
nodes = (
"299 0 LINE SMOOTH",
"493 0 OFFCURVE",
"621 113 OFFCURVE",
"621 285 CURVE SMOOTH",
"621 442 OFFCURVE",
"511 568 OFFCURVE",
"299 568 CURVE SMOOTH",
"55 568 LINE",
"55 0 LINE"
);
},
{
closed = 1;
nodes = (
"448 285 LINE SMOOTH",
"448 206 OFFCURVE",
"394 148 OFFCURVE",
"299 148 CURVE SMOOTH",
"225 148 LINE",
"225 420 LINE",
"299 420 LINE SMOOTH",
"392 420 OFFCURVE",
"448 366 OFFCURVE",
"448 285 CURVE SMOOTH"
);
}
);
width = 645;
}
);
leftKerningGroup = I.sc;
},
{
glyphname = E.sc;
lastChange = "2016-08-18 21:45:13 +0000";
layers = (
{
anchors = (
{
name = bottom;
position = "{340, 0}";
},
{
name = top;
position = "{340, 707}";
}
);
background = {
paths = (
{
closed = 1;
nodes = (
"225 148 LINE",
"225 220 LINE",
"461 220 LINE",
"461 358 LINE",
"225 358 LINE",
"225 420 LINE",
"501 420 LINE",
"501 568 LINE",
"55 568 LINE",
"55 0 LINE",
"509 0 LINE",
"509 148 LINE"
);
}
);
};
layerId = UUID0;
paths = (
{
closed = 1;
nodes = (
"225 148 LINE",
"225 220 LINE",
"461 220 LINE",
"461 358 LINE",
"225 358 LINE",
"225 420 LINE",
"501 420 LINE",
"501 568 LINE",
"55 568 LINE",
"55 0 LINE",
"509 0 LINE",
"509 148 LINE"
);
}
);
width = 540;
}
);
leftKerningGroup = I.sc;
},
{
glyphname = F.sc;
lastChange = "2016-08-18 21:45:13 +0000";
layers = (
{
background = {
paths = (
{
closed = 1;
nodes = (
"225 0 LINE",
"225 204 LINE",
"444 204 LINE",
"444 342 LINE",
"225 342 LINE",
"225 420 LINE",
"492 420 LINE",
"492 568 LINE",
"55 568 LINE",
"55 0 LINE"
);
}
);
};
layerId = UUID0;
paths = (
{
closed = 1;
nodes = (
"225 0 LINE",
"225 204 LINE",
"444 204 LINE",
"444 342 LINE",
"225 342 LINE",
"225 420 LINE",
"492 420 LINE",
"492 568 LINE",
"55 568 LINE",
"55 0 LINE"
);
}
);
width = 508;
}
);
leftKerningGroup = I.sc;
},
{
glyphname = G.sc;
lastChange = "2016-08-18 21:45:13 +0000";
layers = (
{
anchors = (
{
name = bottom;
position = "{371, 0}";
},
{
name = top;
position = "{359, 707}";
}
);
background = {
paths = (
{
closed = 1;
nodes = (
"367 -4 OFFCURVE",
"413 12 OFFCURVE",
"457 49 CURVE",
"457 214 LINE",
"420 172 OFFCURVE",
"373 147 OFFCURVE",
"325 147 CURVE SMOOTH",
"248 147 OFFCURVE",
"195 200 OFFCURVE",
"195 283 CURVE SMOOTH",
"195 366 OFFCURVE",
"247 421 OFFCURVE",
"320 421 CURVE SMOOTH",
"368 421 OFFCURVE",
"417 392 OFFCURVE",
"438 351 CURVE",
"565 448 LINE",
"524 525 OFFCURVE",
"433 572 OFFCURVE",
"326 572 CURVE SMOOTH",
"155 572 OFFCURVE",
"22 450 OFFCURVE",
"22 289 CURVE SMOOTH",
"22 130 OFFCURVE",
"155 -4 OFFCURVE",
"310 -4 CURVE SMOOTH"
);
},
{
closed = 1;
nodes = (
"448 0 LINE",
"589 0 LINE",
"589 306 LINE",
"331 306 LINE",
"331 184 LINE",
"448 184 LINE"
);
}
);
};
layerId = UUID0;
paths = (
{
closed = 1;
nodes = (
"310 -4 LINE SMOOTH",
"367 -4 OFFCURVE",
"413 12 OFFCURVE",
"457 49 CURVE",
"457 214 LINE",
"420 172 OFFCURVE",
"373 147 OFFCURVE",
"325 147 CURVE SMOOTH",
"248 147 OFFCURVE",
"195 200 OFFCURVE",
"195 283 CURVE SMOOTH",
"195 366 OFFCURVE",
"247 421 OFFCURVE",
"320 421 CURVE SMOOTH",
"368 421 OFFCURVE",
"417 392 OFFCURVE",
"438 351 CURVE",
"565 448 LINE",
"524 525 OFFCURVE",
"433 572 OFFCURVE",
"326 572 CURVE SMOOTH",
"155 572 OFFCURVE",
"22 450 OFFCURVE",
"22 289 CURVE SMOOTH",
"22 130 OFFCURVE",
"155 -4 OFFCURVE",
"310 -4 CURVE SMOOTH"
);
},
{
closed = 1;
nodes = (
"448 0 LINE",
"589 0 LINE",
"589 306 LINE",
"331 306 LINE",
"331 184 LINE",
"448 184 LINE"
);
}
);
width = 622;
}
);
leftKerningGroup = O.sc;
},
{
glyphname = H.sc;
lastChange = "2016-08-18 21:45:13 +0000";
layers = (
{
anchors = (
{
name = top;
position = "{363, 707}";
}
);
background = {
paths = (
{
closed = 1;
nodes = (
"447 568 LINE",
"447 365 LINE",
"225 365 LINE",
"225 568 LINE",
"55 568 LINE",
"55 0 LINE",
"225 0 LINE",
"225 216 LINE",
"447 216 LINE",
"447 0 LINE",
"617 0 LINE",
"617 568 LINE"
);
}
);
};
layerId = UUID0;
paths = (
{
closed = 1;
nodes = (
"447 568 LINE",
"447 365 LINE",
"225 365 LINE",
"225 568 LINE",
"55 568 LINE",
"55 0 LINE",
"225 0 LINE",
"225 216 LINE",
"447 216 LINE",
"447 0 LINE",
"617 0 LINE",
"617 568 LINE"
);
}
);
width = 672;
}
);
leftKerningGroup = I.sc;
rightKerningGroup = I.sc;
},
{
glyphname = I.sc;
lastChange = "2016-08-18 21:45:13 +0000";
layers = (
{
anchors = (
{
name = bottom;
position = "{106, 0}";
},
{
name = top;
position = "{105, 707}";
}
);
background = {
paths = (
{
closed = 1;
nodes = (
"225 0 LINE",
"225 568 LINE",
"55 568 LINE",
"55 0 LINE"
);
}
);
};
layerId = UUID0;
paths = (
{
closed = 1;
nodes = (
"225 0 LINE",
"225 568 LINE",
"55 568 LINE",
"55 0 LINE"
);
}
);
width = 280;
}
);
leftKerningGroup = I.sc;
rightKerningGroup = I.sc;
},
{
glyphname = J.sc;
lastChange = "2016-08-18 21:45:13 +0000";
layers = (
{
anchors = (
{
name = top;
position = "{354, 707}";
}
);
background = {
paths = (
{
closed = 1;
nodes = (
"4 26 LINE",
"42 3 OFFCURVE",
"88 -9 OFFCURVE",
"143 -9 CURVE SMOOTH",
"373 -9 OFFCURVE",
"401 106 OFFCURVE",
"401 279 CURVE SMOOTH",
"401 568 LINE",
"231 568 LINE",
"231 279 LINE SMOOTH",
"231 178 OFFCURVE",
"220 142 OFFCURVE",
"143 142 CURVE SMOOTH",
"91 142 OFFCURVE",
"48 162 OFFCURVE",
"40 165 CURVE"
);
}
);
};
layerId = UUID0;
paths = (
{
closed = 1;
nodes = (
"4 26 LINE",
"42 3 OFFCURVE",
"88 -9 OFFCURVE",
"143 -9 CURVE SMOOTH",
"373 -9 OFFCURVE",
"401 106 OFFCURVE",
"401 279 CURVE SMOOTH",
"401 568 LINE",
"231 568 LINE",
"231 279 LINE SMOOTH",
"231 178 OFFCURVE",
"220 142 OFFCURVE",
"143 142 CURVE SMOOTH",
"91 142 OFFCURVE",
"48 162 OFFCURVE",
"40 165 CURVE"
);
}
);
width = 450;
}
);
},
{
glyphname = K.sc;
lastChange = "2016-08-18 21:45:13 +0000";
layers = (
{
anchors = (
{
name = bottom;
position = "{310, 0}";
}
);
background = {
paths = (
{
closed = 1;
nodes = (
"225 0 LINE",
"225 168 LINE",
"285 218 LINE",
"457 0 LINE",
"635 0 LINE",
"386 313 LINE",
"619 568 LINE",
"444 568 LINE",
"225 350 LINE",
"225 568 LINE",
"55 568 LINE",
"55 0 LINE"
);
}
);
};
layerId = UUID0;
paths = (
{
closed = 1;
nodes = (
"225 0 LINE",
"225 168 LINE",
"285 218 LINE",
"457 0 LINE",
"635 0 LINE",
"386 313 LINE",
"619 568 LINE",
"444 568 LINE",
"225 350 LINE",
"225 568 LINE",
"55 568 LINE",
"55 0 LINE"
);
}
);
width = 621;
}
);
leftKerningGroup = I.sc;
},
{
glyphname = L.sc;
lastChange = "2016-08-18 21:45:13 +0000";
layers = (
{
anchors = (
{
name = bottom;
position = "{327, 0}";
},
{
name = top;
position = "{327, 707}";
}
);
background = {
paths = (
{
closed = 1;
nodes = (
"473 0 LINE",
"473 148 LINE",
"225 148 LINE",
"225 568 LINE",
"55 568 LINE",
"55 0 LINE"
);
}
);
};
layerId = UUID0;
paths = (
{
closed = 1;
nodes = (
"473 0 LINE",
"473 148 LINE",
"225 148 LINE",
"225 568 LINE",
"55 568 LINE",
"55 0 LINE"
);
}
);
width = 478;
}
);
leftKerningGroup = I.sc;
},
{
glyphname = M.sc;
lastChange = "2016-08-18 21:45:13 +0000";
layers = (
{
background = {
paths = (
{
closed = 1;
nodes = (
"712 0 LINE",
"712 568 LINE",
"527 568 LINE",
"384 318 LINE",
"241 568 LINE",
"55 568 LINE",
"55 0 LINE",
"225 0 LINE",
"225 275 LINE",
"338 86 LINE",
"429 86 LINE",
"542 275 LINE",
"542 0 LINE"
);
}
);
};
layerId = UUID0;
paths = (
{
closed = 1;
nodes = (
"712 0 LINE",
"712 568 LINE",
"527 568 LINE",
"384 318 LINE",
"241 568 LINE",
"55 568 LINE",
"55 0 LINE",
"225 0 LINE",
"225 275 LINE",
"338 86 LINE",
"429 86 LINE",
"542 275 LINE",
"542 0 LINE"
);
}
);
width = 767;
}
);
leftKerningGroup = I.sc;
rightKerningGroup = I.sc;
},
{
glyphname = N.sc;
lastChange = "2016-08-18 21:45:13 +0000";
layers = (
{
anchors = (
{
name = bottom;
position = "{390, 0}";
},
{
name = top;
position = "{389, 707}";
}
);
background = {
paths = (
{
closed = 1;
nodes = (
"487 0 LINE",
"622 0 LINE",
"622 568 LINE",
"452 568 LINE",
"452 306 LINE",
"188 568 LINE",
"55 568 LINE",
"55 0 LINE",
"225 0 LINE",
"225 253 LINE"
);
}
);
};
layerId = UUID0;
paths = (
{
closed = 1;
nodes = (
"487 0 LINE",
"622 0 LINE",
"622 568 LINE",
"452 568 LINE",
"452 306 LINE",
"188 568 LINE",
"55 568 LINE",
"55 0 LINE",
"225 0 LINE",
"225 253 LINE"
);
}
);
width = 677;
}
);
leftKerningGroup = I.sc;
rightKerningGroup = I.sc;
},
{
glyphname = O.sc;
lastChange = "2016-08-18 21:45:13 +0000";
layers = (
{
anchors = (
{
name = bottom;
position = "{368, 0}";
},
{
name = top;
position = "{368, 707}";
}
);
background = {
paths = (
{
closed = 1;
nodes = (
"507 -5 OFFCURVE",
"634 133 OFFCURVE",
"634 281 CURVE SMOOTH",
"634 426 OFFCURVE",
"514 571 OFFCURVE",
"330 571 CURVE SMOOTH",
"152 571 OFFCURVE",
"22 435 OFFCURVE",
"22 285 CURVE SMOOTH",
"22 138 OFFCURVE",
"145 -5 OFFCURVE",
"327 -5 CURVE SMOOTH"
);
},
{
closed = 1;
nodes = (
"195 351 OFFCURVE",
"237 420 OFFCURVE",
"328 420 CURVE SMOOTH",
"416 420 OFFCURVE",
"461 355 OFFCURVE",
"461 285 CURVE SMOOTH",
"461 217 OFFCURVE",
"420 146 OFFCURVE",
"329 146 CURVE SMOOTH",
"239 146 OFFCURVE",
"195 214 OFFCURVE",
"195 283 CURVE SMOOTH"
);
}
);
};
layerId = UUID0;
paths = (
{
closed = 1;
nodes = (
"327 -5 LINE SMOOTH",
"507 -5 OFFCURVE",
"634 133 OFFCURVE",
"634 281 CURVE SMOOTH",
"634 426 OFFCURVE",
"514 571 OFFCURVE",
"330 571 CURVE SMOOTH",
"152 571 OFFCURVE",
"22 435 OFFCURVE",
"22 285 CURVE SMOOTH",
"22 138 OFFCURVE",
"145 -5 OFFCURVE",
"327 -5 CURVE SMOOTH"
);
},
{
closed = 1;
nodes = (
"195 283 LINE SMOOTH",
"195 351 OFFCURVE",
"237 420 OFFCURVE",
"328 420 CURVE SMOOTH",
"416 420 OFFCURVE",
"461 355 OFFCURVE",
"461 285 CURVE SMOOTH",
"461 217 OFFCURVE",
"420 146 OFFCURVE",
"329 146 CURVE SMOOTH",
"239 146 OFFCURVE",
"195 214 OFFCURVE",
"195 283 CURVE SMOOTH"
);
}
);
width = 656;
}
);
leftKerningGroup = O.sc;
rightKerningGroup = O.sc;
},
{
glyphname = P.sc;
lastChange = "2016-08-18 21:45:13 +0000";
layers = (
{
background = {
paths = (
{
closed = 1;
nodes = (
"225 0 LINE",
"225 169 LINE",
"334 169 LINE SMOOTH",
"460 169 OFFCURVE",
"544 267 OFFCURVE",
"544 369 CURVE SMOOTH",
"544 467 OFFCURVE",
"454 568 OFFCURVE",
"330 568 CURVE SMOOTH",
"55 568 LINE",
"55 0 LINE"
);
},
{
closed = 1;
nodes = (
"225 420 LINE",
"319 420 LINE SMOOTH",
"342 420 OFFCURVE",
"371 412 OFFCURVE",
"371 369 CURVE SMOOTH",
"371 326 OFFCURVE",
"347 318 OFFCURVE",
"323 318 CURVE SMOOTH",
"225 318 LINE"
);
}
);
};
layerId = UUID0;
paths = (
{
closed = 1;
nodes = (
"225 0 LINE",
"225 169 LINE",
"334 169 LINE SMOOTH",
"460 169 OFFCURVE",
"544 267 OFFCURVE",
"544 369 CURVE SMOOTH",
"544 467 OFFCURVE",
"454 568 OFFCURVE",
"330 568 CURVE SMOOTH",
"55 568 LINE",
"55 0 LINE"
);
},
{
closed = 1;
nodes = (
"225 420 LINE",
"319 420 LINE SMOOTH",
"342 420 OFFCURVE",
"371 412 OFFCURVE",
"371 369 CURVE SMOOTH",
"371 326 OFFCURVE",
"347 318 OFFCURVE",
"323 318 CURVE SMOOTH",
"225 318 LINE"
);
}
);
width = 560;
}
);
leftKerningGroup = I.sc;
},
{
glyphname = Q.sc;
lastChange = "2016-08-18 21:45:13 +0000";
layers = (
{
background = {
paths = (
{
closed = 1;
nodes = (
"507 -4 OFFCURVE",
"634 133 OFFCURVE",
"634 281 CURVE SMOOTH",
"634 426 OFFCURVE",
"514 572 OFFCURVE",
"330 572 CURVE SMOOTH",
"152 572 OFFCURVE",
"22 435 OFFCURVE",
"22 285 CURVE SMOOTH",
"22 138 OFFCURVE",
"145 -4 OFFCURVE",
"327 -4 CURVE SMOOTH"
);
},
{
closed = 1;
nodes = (
"239 147 OFFCURVE",
"195 214 OFFCURVE",
"195 283 CURVE SMOOTH",
"195 351 OFFCURVE",
"237 421 OFFCURVE",
"328 421 CURVE SMOOTH",
"416 421 OFFCURVE",
"461 355 OFFCURVE",
"461 285 CURVE SMOOTH",
"461 217 OFFCURVE",
"420 147 OFFCURVE",
"329 147 CURVE SMOOTH"
);
},
{
closed = 1;
nodes = (
"507 0 LINE",
"666 0 LINE",
"422 249 LINE",
"262 249 LINE"
);
}
);
};
layerId = UUID0;
paths = (
{
closed = 1;
nodes = (
"327 -4 LINE SMOOTH",
"507 -4 OFFCURVE",
"634 133 OFFCURVE",
"634 281 CURVE SMOOTH",
"634 426 OFFCURVE",
"514 572 OFFCURVE",
"330 572 CURVE SMOOTH",
"152 572 OFFCURVE",
"22 435 OFFCURVE",
"22 285 CURVE SMOOTH",
"22 138 OFFCURVE",
"145 -4 OFFCURVE",
"327 -4 CURVE SMOOTH"
);
},
{
closed = 1;
nodes = (
"329 147 LINE SMOOTH",
"239 147 OFFCURVE",
"195 214 OFFCURVE",
"195 283 CURVE SMOOTH",
"195 351 OFFCURVE",
"237 421 OFFCURVE",
"328 421 CURVE SMOOTH",
"416 421 OFFCURVE",
"461 355 OFFCURVE",
"461 285 CURVE SMOOTH",
"461 217 OFFCURVE",
"420 147 OFFCURVE",
"329 147 CURVE SMOOTH"
);
},
{
closed = 1;
nodes = (
"507 0 LINE",
"666 0 LINE",
"422 249 LINE",
"262 249 LINE"
);
}
);
width = 658;
}
);
leftKerningGroup = O.sc;
rightKerningGroup = O.sc;
},
{
glyphname = R.sc;
lastChange = "2016-08-18 21:45:13 +0000";
layers = (
{
anchors = (
{
name = bottom;
position = "{312, 0}";
},
{
name = top;
position = "{312, 710}";
}
);
background = {
paths = (
{
closed = 1;
nodes = (
"225 0 LINE",
"225 169 LINE",
"297 169 LINE",
"419 0 LINE",
"612 0 LINE",
"467 207 LINE",
"526 246 OFFCURVE",
"561 305 OFFCURVE",
"561 369 CURVE SMOOTH",
"561 467 OFFCURVE",
"472 568 OFFCURVE",
"347 568 CURVE SMOOTH",
"55 568 LINE",
"55 0 LINE"
);
},
{
closed = 1;
nodes = (
"225 420 LINE",
"336 420 LINE SMOOTH",
"360 420 OFFCURVE",
"388 404 OFFCURVE",
"388 369 CURVE SMOOTH",
"388 334 OFFCURVE",
"365 318 OFFCURVE",
"341 318 CURVE SMOOTH",
"225 318 LINE"
);
}
);
};
layerId = UUID0;
paths = (
{
closed = 1;
nodes = (
"225 0 LINE",
"225 169 LINE",
"297 169 LINE",
"419 0 LINE",
"612 0 LINE",
"467 207 LINE",
"526 246 OFFCURVE",
"561 305 OFFCURVE",
"561 369 CURVE SMOOTH",
"561 467 OFFCURVE",
"472 568 OFFCURVE",
"347 568 CURVE SMOOTH",
"55 568 LINE",
"55 0 LINE"
);
},
{
closed = 1;
nodes = (
"225 420 LINE",
"336 420 LINE SMOOTH",
"360 420 OFFCURVE",
"388 404 OFFCURVE",
"388 369 CURVE SMOOTH",
"388 334 OFFCURVE",
"365 318 OFFCURVE",
"341 318 CURVE SMOOTH",
"225 318 LINE"
);
}
);
width = 615;
}
);
leftKerningGroup = I.sc;
},
{
glyphname = S.sc;
lastChange = "2016-08-18 21:45:13 +0000";
layers = (
{
anchors = (
{
name = bottom;
position = "{299, 0}";
},
{
name = top;
position = "{299, 729}";
}
);
background = {
paths = (
{
closed = 1;
nodes = (
"500 512 LINE",
"445 537 OFFCURVE",
"360 573 OFFCURVE",
"271 573 CURVE SMOOTH",
"150 573 OFFCURVE",
"42 506 OFFCURVE",
"42 382 CURVE SMOOTH",
"42 296 OFFCURVE",
"89 250 OFFCURVE",
"197 216 CURVE SMOOTH",
"270 193 OFFCURVE",
"332 188 OFFCURVE",
"332 161 CURVE SMOOTH",
"332 153 OFFCURVE",
"319 146 OFFCURVE",
"285 146 CURVE SMOOTH",
"191 146 OFFCURVE",
"100 193 OFFCURVE",
"89 206 CURVE",
"15 57 LINE",
"88 19 OFFCURVE",
"193 -8 OFFCURVE",
"282 -8 CURVE SMOOTH",
"396 -8 OFFCURVE",
"516 36 OFFCURVE",
"516 177 CURVE SMOOTH",
"516 284 OFFCURVE",
"444 322 OFFCURVE",
"331 355 CURVE SMOOTH",
"261 376 OFFCURVE",
"218 381 OFFCURVE",
"218 405 CURVE SMOOTH",
"218 418 OFFCURVE",
"237 422 OFFCURVE",
"266 422 CURVE SMOOTH",
"338 422 OFFCURVE",
"418 377 OFFCURVE",
"427 371 CURVE"
);
}
);
};
layerId = UUID0;
paths = (
{
closed = 1;
nodes = (
"500 512 LINE",
"445 537 OFFCURVE",
"360 573 OFFCURVE",
"271 573 CURVE SMOOTH",
"150 573 OFFCURVE",
"42 506 OFFCURVE",
"42 382 CURVE SMOOTH",
"42 296 OFFCURVE",
"89 250 OFFCURVE",
"197 216 CURVE SMOOTH",
"270 193 OFFCURVE",
"332 188 OFFCURVE",
"332 161 CURVE SMOOTH",
"332 153 OFFCURVE",
"319 146 OFFCURVE",
"285 146 CURVE SMOOTH",
"191 146 OFFCURVE",
"100 193 OFFCURVE",
"89 206 CURVE",
"15 57 LINE",
"88 19 OFFCURVE",
"193 -8 OFFCURVE",
"282 -8 CURVE SMOOTH",
"396 -8 OFFCURVE",
"516 36 OFFCURVE",
"516 177 CURVE SMOOTH",
"516 284 OFFCURVE",
"444 322 OFFCURVE",
"331 355 CURVE SMOOTH",
"261 376 OFFCURVE",
"218 381 OFFCURVE",
"218 405 CURVE SMOOTH",
"218 418 OFFCURVE",
"237 422 OFFCURVE",
"266 422 CURVE SMOOTH",
"338 422 OFFCURVE",
"418 377 OFFCURVE",
"427 371 CURVE"
);
}
);
width = 541;
}
);
},
{
glyphname = T.sc;
lastChange = "2016-08-18 21:45:13 +0000";
layers = (
{
anchors = (
{
name = bottom;
position = "{292, 0}";
},
{
name = top;
position = "{292, 707}";
}
);
background = {
paths = (
{
closed = 1;
nodes = (
"554 568 LINE",
"12 568 LINE",
"12 420 LINE",
"198 420 LINE",
"198 0 LINE",
"369 0 LINE",
"369 420 LINE",
"554 420 LINE"
);
}
);
};
layerId = UUID0;
paths = (
{
closed = 1;
nodes = (
"554 568 LINE",
"12 568 LINE",
"12 420 LINE",
"198 420 LINE",
"198 0 LINE",
"369 0 LINE",
"369 420 LINE",
"554 420 LINE"
);
}
);
width = 566;
}
);
},
{
glyphname = U.sc;
lastChange = "2016-08-18 21:45:13 +0000";
layers = (
{
anchors = (
{
name = bottom;
position = "{374, 0}";
},
{
name = top;
position = "{374, 707}";
}
);
background = {
paths = (
{
closed = 1;
nodes = (
"248 146 OFFCURVE",
"217 206 OFFCURVE",
"217 275 CURVE SMOOTH",
"217 568 LINE",
"47 568 LINE",
"47 275 LINE SMOOTH",
"47 124 OFFCURVE",
"128 -5 OFFCURVE",
"327 -5 CURVE SMOOTH",
"520 -5 OFFCURVE",
"608 116 OFFCURVE",
"608 275 CURVE SMOOTH",
"608 568 LINE",
"438 568 LINE",
"438 275 LINE SMOOTH",
"438 208 OFFCURVE",
"409 146 OFFCURVE",
"327 146 CURVE SMOOTH"
);
}
);
};
layerId = UUID0;
paths = (
{
closed = 1;
nodes = (
"327 146 LINE SMOOTH",
"248 146 OFFCURVE",
"217 206 OFFCURVE",
"217 275 CURVE SMOOTH",
"217 568 LINE",
"47 568 LINE",
"47 275 LINE SMOOTH",
"47 124 OFFCURVE",
"128 -5 OFFCURVE",
"327 -5 CURVE SMOOTH",
"520 -5 OFFCURVE",
"608 116 OFFCURVE",
"608 275 CURVE SMOOTH",
"608 568 LINE",
"438 568 LINE",
"438 275 LINE SMOOTH",
"438 208 OFFCURVE",
"409 146 OFFCURVE",
"327 146 CURVE SMOOTH"
);
}
);
width = 655;
}
);
},
{
glyphname = V.sc;
lastChange = "2016-08-18 21:45:13 +0000";
layers = (
{
background = {
paths = (
{
closed = 1;
nodes = (
"-9 568 LINE",
"230 0 LINE",
"372 0 LINE",
"608 568 LINE",
"429 568 LINE",
"301 241 LINE",
"171 568 LINE"
);
}
);
};
layerId = UUID0;
paths = (
{
closed = 1;
nodes = (
"-9 568 LINE",
"230 0 LINE",
"372 0 LINE",
"608 568 LINE",
"429 568 LINE",
"301 241 LINE",
"171 568 LINE"
);
}
);
width = 600;
}
);
},
{
glyphname = W.sc;
lastChange = "2016-08-18 21:45:13 +0000";
layers = (
{
anchors = (
{
name = top;
position = "{478, 707}";
}
);
background = {
paths = (
{
closed = 1;
nodes = (
"364 293 LINE",
"325 204 LINE",
"173 568 LINE",
"-11 568 LINE",
"240 0 LINE",
"382 0 LINE",
"474 192 LINE",
"567 0 LINE",
"708 0 LINE",
"960 568 LINE",
"774 568 LINE",
"624 204 LINE",
"583 293 LINE",
"689 568 LINE",
"532 568 LINE",
"474 397 LINE",
"416 568 LINE",
"260 568 LINE"
);
}
);
};
layerId = UUID0;
paths = (
{
closed = 1;
nodes = (
"364 293 LINE",
"325 204 LINE",
"173 568 LINE",
"-11 568 LINE",
"240 0 LINE",
"382 0 LINE",
"474 192 LINE",
"567 0 LINE",
"708 0 LINE",
"960 568 LINE",
"774 568 LINE",
"624 204 LINE",
"583 293 LINE",
"689 568 LINE",
"532 568 LINE",
"474 397 LINE",
"416 568 LINE",
"260 568 LINE"
);
}
);
width = 949;
}
);
},
{
glyphname = X.sc;
lastChange = "2016-08-18 21:45:13 +0000";
layers = (
{
background = {
paths = (
{
closed = 1;
nodes = (
"-7 568 LINE",
"208 280 LINE",
"0 0 LINE",
"185 0 LINE",
"298 161 LINE",
"411 0 LINE",
"595 0 LINE",
"387 280 LINE",
"602 568 LINE",
"418 568 LINE",
"298 399 LINE",
"177 568 LINE"
);
}
);
};
layerId = UUID0;
paths = (
{
closed = 1;
nodes = (
"-7 568 LINE",
"208 280 LINE",
"0 0 LINE",
"185 0 LINE",
"298 161 LINE",
"411 0 LINE",
"595 0 LINE",
"387 280 LINE",
"602 568 LINE",
"418 568 LINE",
"298 399 LINE",
"177 568 LINE"
);
}
);
width = 595;
}
);
},
{
glyphname = Y.sc;
lastChange = "2016-08-18 21:45:13 +0000";
layers = (
{
anchors = (
{
name = top;
position = "{272, 707}";
}
);
background = {
paths = (
{
closed = 1;
nodes = (
"-9 568 LINE",
"209 186 LINE",
"209 0 LINE",
"379 0 LINE",
"379 185 LINE",
"600 568 LINE",
"415 568 LINE",
"294 331 LINE",
"175 568 LINE"
);
}
);
};
layerId = UUID0;
paths = (
{
closed = 1;
nodes = (
"-9 568 LINE",
"209 186 LINE",
"209 0 LINE",
"379 0 LINE",
"379 185 LINE",
"600 568 LINE",
"415 568 LINE",
"294 331 LINE",
"175 568 LINE"
);
}
);
width = 589;
}
);
},
{
glyphname = Z.sc;
lastChange = "2016-08-18 21:45:13 +0000";
layers = (
{
anchors = (
{
name = top;
position = "{333, 707}";
}
);
background = {
paths = (
{
closed = 1;
nodes = (
"29 0 LINE",
"536 0 LINE",
"536 148 LINE",
"243 148 LINE",
"531 442 LINE",
"531 568 LINE",
"42 568 LINE",
"42 420 LINE",
"334 420 LINE",
"29 126 LINE"
);
}
);
};
layerId = UUID0;
paths = (
{
closed = 1;
nodes = (
"29 0 LINE",
"536 0 LINE",
"536 148 LINE",
"243 148 LINE",
"531 442 LINE",
"531 568 LINE",
"42 568 LINE",
"42 420 LINE",
"334 420 LINE",
"29 126 LINE"
);
}
);
width = 569;
}
);
},
{
glyphname = ordfeminine;
lastChange = "2016-08-18 21:45:13 +0000";
layers = (
{
anchors = (
{
name = bottom;
position = "{433, 11}";
},
{
name = top;
position = "{240, 519}";
}
);
background = {
paths = (
{
closed = 1;
nodes = (
"200 333 OFFCURVE",
"241 355 OFFCURVE",
"272 398 CURVE",
"275 384 LINE SMOOTH",
"282 350 OFFCURVE",
"305 333 OFFCURVE",
"351 333 CURVE SMOOTH",
"367 333 OFFCURVE",
"389 335 OFFCURVE",
"412 340 CURVE",
"412 452 LINE",
"389 453 OFFCURVE",
"381 462 OFFCURVE",
"381 487 CURVE SMOOTH",
"381 558 LINE SMOOTH",
"381 662 OFFCURVE",
"318 715 OFFCURVE",
"206 715 CURVE SMOOTH",
"146 715 OFFCURVE",
"95 700 OFFCURVE",
"48 668 CURVE",
"86 586 LINE",
"123 612 OFFCURVE",
"154 626 OFFCURVE",
"193 626 CURVE SMOOTH",
"235 626 OFFCURVE",
"251 609 OFFCURVE",
"251 574 CURVE SMOOTH",
"251 563 LINE",
"234 572 OFFCURVE",
"210 577 OFFCURVE",
"183 577 CURVE SMOOTH",
"95 577 OFFCURVE",
"33 525 OFFCURVE",
"33 451 CURVE SMOOTH",
"33 383 OFFCURVE",
"85 333 OFFCURVE",
"155 333 CURVE SMOOTH"
);
},
{
closed = 1;
nodes = (
"172 428 OFFCURVE",
"155 443 OFFCURVE",
"155 463 CURVE SMOOTH",
"155 487 OFFCURVE",
"177 505 OFFCURVE",
"206 505 CURVE SMOOTH",
"219 505 OFFCURVE",
"238 501 OFFCURVE",
"251 495 CURVE",
"251 468 LINE SMOOTH",
"251 459 OFFCURVE",
"245 449 OFFCURVE",
"235 442 CURVE SMOOTH",
"224 434 OFFCURVE",
"207 428 OFFCURVE",
"194 428 CURVE SMOOTH"
);
}
);
};
layerId = UUID0;
paths = (
{
closed = 1;
nodes = (
"155 333 LINE SMOOTH",
"200 333 OFFCURVE",
"241 355 OFFCURVE",
"272 398 CURVE",
"275 384 LINE SMOOTH",
"282 350 OFFCURVE",
"305 333 OFFCURVE",
"351 333 CURVE SMOOTH",
"367 333 OFFCURVE",
"389 335 OFFCURVE",
"412 340 CURVE",
"412 452 LINE",
"389 453 OFFCURVE",
"381 462 OFFCURVE",
"381 487 CURVE SMOOTH",
"381 558 LINE SMOOTH",
"381 662 OFFCURVE",
"318 715 OFFCURVE",
"206 715 CURVE SMOOTH",
"146 715 OFFCURVE",
"95 700 OFFCURVE",
"48 668 CURVE",
"86 586 LINE",
"123 612 OFFCURVE",
"154 626 OFFCURVE",
"193 626 CURVE SMOOTH",
"235 626 OFFCURVE",
"251 609 OFFCURVE",
"251 574 CURVE SMOOTH",
"251 563 LINE",
"234 572 OFFCURVE",
"210 577 OFFCURVE",
"183 577 CURVE SMOOTH",
"95 577 OFFCURVE",
"33 525 OFFCURVE",
"33 451 CURVE SMOOTH",
"33 383 OFFCURVE",
"85 333 OFFCURVE",
"155 333 CURVE SMOOTH"
);
},
{
closed = 1;
nodes = (
"194 428 LINE SMOOTH",
"172 428 OFFCURVE",
"155 443 OFFCURVE",
"155 463 CURVE SMOOTH",
"155 487 OFFCURVE",
"177 505 OFFCURVE",
"206 505 CURVE SMOOTH",
"219 505 OFFCURVE",
"238 501 OFFCURVE",
"251 495 CURVE",
"251 468 LINE SMOOTH",
"251 459 OFFCURVE",
"245 449 OFFCURVE",
"235 442 CURVE SMOOTH",
"224 434 OFFCURVE",
"207 428 OFFCURVE",
"194 428 CURVE SMOOTH"
);
}
);
width = 451;
}
);
unicode = 00AA;
},
{
glyphname = ordmasculine;
lastChange = "2016-08-18 21:45:13 +0000";
layers = (
{
anchors = (
{
name = bottom;
position = "{273, 0}";
},
{
name = top;
position = "{274, 519}";
}
);
background = {
paths = (
{
closed = 1;
nodes = (
"345 333 OFFCURVE",
"410 423 OFFCURVE",
"410 524 CURVE SMOOTH",
"410 626 OFFCURVE",
"345 715 OFFCURVE",
"219 715 CURVE SMOOTH",
"94 715 OFFCURVE",
"28 626 OFFCURVE",
"28 524 CURVE SMOOTH",
"28 423 OFFCURVE",
"94 333 OFFCURVE",
"219 333 CURVE SMOOTH"
);
},
{
closed = 1;
nodes = (
"161 573 OFFCURVE",
"185 603 OFFCURVE",
"219 603 CURVE SMOOTH",
"253 603 OFFCURVE",
"277 573 OFFCURVE",
"277 524 CURVE SMOOTH",
"277 475 OFFCURVE",
"253 445 OFFCURVE",
"219 445 CURVE SMOOTH",
"185 445 OFFCURVE",
"161 475 OFFCURVE",
"161 524 CURVE SMOOTH"
);
}
);
};
layerId = UUID0;
paths = (
{
closed = 1;
nodes = (
"219 333 LINE SMOOTH",
"345 333 OFFCURVE",
"410 423 OFFCURVE",
"410 524 CURVE SMOOTH",
"410 626 OFFCURVE",
"345 715 OFFCURVE",
"219 715 CURVE SMOOTH",
"94 715 OFFCURVE",
"28 626 OFFCURVE",
"28 524 CURVE SMOOTH",
"28 423 OFFCURVE",
"94 333 OFFCURVE",
"219 333 CURVE SMOOTH"
);
},
{
closed = 1;
nodes = (
"161 524 LINE SMOOTH",
"161 573 OFFCURVE",
"185 603 OFFCURVE",
"219 603 CURVE SMOOTH",
"253 603 OFFCURVE",
"277 573 OFFCURVE",
"277 524 CURVE SMOOTH",
"277 475 OFFCURVE",
"253 445 OFFCURVE",
"219 445 CURVE SMOOTH",
"185 445 OFFCURVE",
"161 475 OFFCURVE",
"161 524 CURVE SMOOTH"
);
}
);
width = 438;
}
);
unicode = 00BA;
},
{
glyphname = uni0411;
lastChange = "2016-08-18 21:45:13 +0000";
layers = (
{
background = {
paths = (
{
closed = 1;
nodes = (
"85 0 LINE",
"416 0 LINE SMOOTH",
"580 0 OFFCURVE",
"664 84 OFFCURVE",
"664 222 CURVE SMOOTH",
"664 354 OFFCURVE",
"575 435 OFFCURVE",
"406 435 CURVE SMOOTH",
"85 435 LINE"
);
},
{
closed = 1;
nodes = (
"260 164 LINE",
"260 283 LINE",
"388 283 LINE SMOOTH",
"438 283 OFFCURVE",
"465 256 OFFCURVE",
"465 224 CURVE SMOOTH",
"465 187 OFFCURVE",
"438 164 OFFCURVE",
"388 164 CURVE SMOOTH"
);
},
{
closed = 1;
nodes = (
"65 0 LINE",
"260 0 LINE",
"260 540 LINE",
"608 540 LINE",
"608 710 LINE",
"65 710 LINE"
);
}
);
};
layerId = UUID0;
paths = (
{
closed = 1;
nodes = (
"65 0 LINE",
"416 0 LINE SMOOTH",
"580 0 OFFCURVE",
"664 84 OFFCURVE",
"664 222 CURVE SMOOTH",
"664 354 OFFCURVE",
"575 435 OFFCURVE",
"406 435 CURVE SMOOTH",
"260 435 LINE",
"260 540 LINE",
"608 540 LINE",
"608 710 LINE",
"65 710 LINE"
);
},
{
closed = 1;
nodes = (
"260 164 LINE",
"260 283 LINE",
"388 283 LINE SMOOTH",
"438 283 OFFCURVE",
"465 256 OFFCURVE",
"465 224 CURVE SMOOTH",
"465 187 OFFCURVE",
"438 164 OFFCURVE",
"388 164 CURVE SMOOTH"
);
}
);
width = 681;
}
);
leftKerningGroup = uni0418;
unicode = 0411;
},
{
glyphname = uni0413;
lastChange = "2016-08-18 21:45:13 +0000";
layers = (
{
background = {
paths = (
{
closed = 1;
nodes = (
"65 0 LINE",
"260 0 LINE",
"260 540 LINE",
"528 540 LINE",
"528 710 LINE",
"65 710 LINE"
);
}
);
};
layerId = UUID0;
paths = (
{
closed = 1;
nodes = (
"528 710 LINE",
"65 710 LINE",
"65 0 LINE",
"260 0 LINE",
"260 540 LINE",
"528 540 LINE"
);
}
);
width = 535;
}
);
leftKerningGroup = uni0418;
rightKerningGroup = uni0413;
unicode = 0413;
},
{
glyphname = uni0490;
lastChange = "2016-08-18 21:45:13 +0000";
layers = (
{
background = {
paths = (
{
closed = 1;
nodes = (
"64 0 LINE",
"259 0 LINE",
"259 540 LINE",
"527 540 LINE",
"527 876 LINE",
"365 876 LINE",
"358 710 LINE",
"64 710 LINE"
);
}
);
};
layerId = UUID0;
paths = (
{
closed = 1;
nodes = (
"64 0 LINE",
"259 0 LINE",
"259 540 LINE",
"527 540 LINE",
"527 876 LINE",
"365 876 LINE",
"358 710 LINE",
"64 710 LINE"
);
}
);
width = 534;
}
);
leftKerningGroup = uni0418;
rightKerningGroup = uni0413;
unicode = 0490;
},
{
glyphname = uni0414;
lastChange = "2016-08-18 21:45:13 +0000";
layers = (
{
background = {
paths = (
{
closed = 1;
nodes = (
"16 170 LINE",
"16 -166 LINE",
"206 -166 LINE",
"206 0 LINE",
"598 0 LINE",
"598 -166 LINE",
"788 -166 LINE",
"788 170 LINE",
"688 170 LINE",
"688 710 LINE",
"192 710 LINE",
"173 502 LINE SMOOTH",
"150 256 OFFCURVE",
"127 170 OFFCURVE",
"60 170 CURVE SMOOTH"
);
},
{
closed = 1;
nodes = (
"367 540 LINE",
"493 540 LINE",
"493 170 LINE",
"301 170 LINE",
"328 236 OFFCURVE",
"347 325 OFFCURVE",
"358 444 CURVE SMOOTH"
);
}
);
};
layerId = UUID0;
paths = (
{
closed = 1;
nodes = (
"16 -166 LINE",
"206 -166 LINE",
"206 0 LINE",
"598 0 LINE",
"598 -166 LINE",
"788 -166 LINE",
"788 170 LINE",
"688 170 LINE",
"688 710 LINE",
"192 710 LINE",
"173 502 LINE SMOOTH",
"150 256 OFFCURVE",
"127 170 OFFCURVE",
"60 170 CURVE SMOOTH",
"16 170 LINE"
);
},
{
closed = 1;
nodes = (
"301 170 LINE",
"328 236 OFFCURVE",
"347 325 OFFCURVE",
"358 444 CURVE SMOOTH",
"367 540 LINE",
"493 540 LINE",
"493 170 LINE"
);
}
);
width = 808;
}
);
rightKerningGroup = uni0414;
unicode = 0414;
},
{
glyphname = uni0416;
lastChange = "2016-08-18 21:45:13 +0000";
layers = (
{
background = {
paths = (
{
closed = 1;
nodes = (
"626 710 LINE",
"431 710 LINE",
"431 439 LINE",
"416 439 LINE",
"220 710 LINE",
"0 710 LINE",
"257 367 LINE",
"-23 0 LINE",
"194 0 LINE",
"399 262 LINE",
"431 262 LINE",
"431 0 LINE",
"626 0 LINE",
"626 262 LINE",
"658 262 LINE",
"863 0 LINE",
"1080 0 LINE",
"800 367 LINE",
"1057 710 LINE",
"837 710 LINE",
"641 439 LINE",
"626 439 LINE"
);
}
);
};
layerId = UUID0;
paths = (
{
closed = 1;
nodes = (
"-23 0 LINE",
"194 0 LINE",
"399 262 LINE",
"431 262 LINE",
"431 0 LINE",
"626 0 LINE",
"626 262 LINE",
"658 262 LINE",
"863 0 LINE",
"1080 0 LINE",
"800 367 LINE",
"1057 710 LINE",
"837 710 LINE",
"641 439 LINE",
"626 439 LINE",
"626 710 LINE",
"431 710 LINE",
"431 439 LINE",
"416 439 LINE",
"220 710 LINE",
"0 710 LINE",
"257 367 LINE"
);
}
);
width = 1057;
}
);
unicode = 0416;
},
{
glyphname = uni0417;
lastChange = "2016-08-18 21:45:13 +0000";
layers = (
{
background = {
paths = (
{
closed = 1;
nodes = (
"444 -6 OFFCURVE",
"561 64 OFFCURVE",
"561 201 CURVE SMOOTH",
"561 283 OFFCURVE",
"519 348 OFFCURVE",
"431 373 CURVE SMOOTH",
"514 406 OFFCURVE",
"536 469 OFFCURVE",
"536 529 CURVE SMOOTH",
"536 653 OFFCURVE",
"442 717 OFFCURVE",
"299 717 CURVE SMOOTH",
"181 717 OFFCURVE",
"94 679 OFFCURVE",
"23 610 CURVE SMOOTH",
"121 489 LINE SMOOTH",
"172 531 OFFCURVE",
"220 555 OFFCURVE",
"284 555 CURVE SMOOTH",
"339 555 OFFCURVE",
"357 533 OFFCURVE",
"357 500 CURVE SMOOTH",
"357 461 OFFCURVE",
"327 439 OFFCURVE",
"261 439 CURVE SMOOTH",
"179 439 LINE",
"179 311 LINE",
"278 311 LINE SMOOTH",
"344 311 OFFCURVE",
"363 276 OFFCURVE",
"363 240 CURVE SMOOTH",
"363 189 OFFCURVE",
"327 168 OFFCURVE",
"278 168 CURVE SMOOTH",
"205 168 OFFCURVE",
"152 194 OFFCURVE",
"101 234 CURVE SMOOTH",
"12 85 LINE SMOOTH",
"99 21 OFFCURVE",
"178 -6 OFFCURVE",
"290 -6 CURVE SMOOTH"
);
}
);
};
layerId = UUID0;
paths = (
{
closed = 1;
nodes = (
"121 489 LINE SMOOTH",
"172 531 OFFCURVE",
"220 555 OFFCURVE",
"284 555 CURVE SMOOTH",
"339 555 OFFCURVE",
"357 533 OFFCURVE",
"357 500 CURVE SMOOTH",
"357 461 OFFCURVE",
"327 439 OFFCURVE",
"261 439 CURVE SMOOTH",
"179 439 LINE",
"179 311 LINE",
"278 311 LINE SMOOTH",
"344 311 OFFCURVE",
"363 276 OFFCURVE",
"363 240 CURVE SMOOTH",
"363 189 OFFCURVE",
"327 168 OFFCURVE",
"278 168 CURVE SMOOTH",
"205 168 OFFCURVE",
"152 194 OFFCURVE",
"101 234 CURVE SMOOTH",
"12 85 LINE SMOOTH",
"99 21 OFFCURVE",
"178 -6 OFFCURVE",
"290 -6 CURVE SMOOTH",
"444 -6 OFFCURVE",
"561 64 OFFCURVE",
"561 201 CURVE SMOOTH",
"561 283 OFFCURVE",
"519 348 OFFCURVE",
"431 373 CURVE SMOOTH",
"514 406 OFFCURVE",
"536 469 OFFCURVE",
"536 529 CURVE SMOOTH",
"536 653 OFFCURVE",
"442 717 OFFCURVE",
"299 717 CURVE SMOOTH",
"181 717 OFFCURVE",
"94 679 OFFCURVE",
"23 610 CURVE SMOOTH"
);
}
);
width = 586;
}
);
unicode = 0417;
},
{
glyphname = uni0418;
lastChange = "2016-08-18 21:45:13 +0000";
layers = (
{
background = {
paths = (
{
closed = 1;
nodes = (
"498 710 LINE",
"498 448 LINE",
"260 448 LINE",
"260 710 LINE",
"65 710 LINE",
"65 0 LINE",
"260 0 LINE",
"260 278 LINE",
"498 278 LINE",
"498 0 LINE",
"693 0 LINE",
"693 710 LINE"
);
}
);
};
layerId = UUID0;
paths = (
{
closed = 1;
nodes = (
"260 710 LINE",
"65 710 LINE",
"65 0 LINE",
"210 0 LINE",
"509 394 LINE",
"509 0 LINE",
"704 0 LINE",
"704 710 LINE",
"562 710 LINE",
"260 304 LINE"
);
}
);
width = 769;
}
);
leftKerningGroup = uni0418;
rightKerningGroup = uni0418;
unicode = 0418;
},
{
glyphname = uni0419;
lastChange = "2016-08-18 21:45:13 +0000";
layers = (
{
background = {
paths = (
{
closed = 1;
nodes = (
"525 754 OFFCURVE",
"610 821 OFFCURVE",
"610 916 CURVE",
"492 916 LINE",
"486 881 OFFCURVE",
"447 855 OFFCURVE",
"401 855 CURVE SMOOTH",
"353 855 OFFCURVE",
"310 882 OFFCURVE",
"310 916 CURVE",
"192 916 LINE",
"192 821 OFFCURVE",
"277 754 OFFCURVE",
"401 754 CURVE SMOOTH"
);
}
);
};
components = (
{
name = uni0418;
}
);
layerId = UUID0;
paths = (
{
closed = 1;
nodes = (
"492 916 LINE",
"486 881 OFFCURVE",
"447 855 OFFCURVE",
"401 855 CURVE SMOOTH",
"353 855 OFFCURVE",
"310 882 OFFCURVE",
"310 916 CURVE",
"192 916 LINE",
"192 821 OFFCURVE",
"277 754 OFFCURVE",
"401 754 CURVE SMOOTH",
"525 754 OFFCURVE",
"610 821 OFFCURVE",
"610 916 CURVE"
);
}
);
width = 769;
}
);
leftKerningGroup = uni0418;
rightKerningGroup = uni0418;
unicode = 0419;
},
{
glyphname = uni041A;
lastChange = "2016-08-18 21:45:13 +0000";
layers = (
{
background = {
paths = (
{
closed = 1;
nodes = (
"259 710 LINE",
"65 710 LINE",
"65 0 LINE",
"259 0 LINE",
"259 262 LINE",
"291 262 LINE",
"496 0 LINE",
"713 0 LINE",
"433 367 LINE",
"690 710 LINE",
"470 710 LINE",
"274 439 LINE",
"259 439 LINE"
);
}
);
};
layerId = UUID0;
paths = (
{
closed = 1;
nodes = (
"259 710 LINE",
"65 710 LINE",
"65 0 LINE",
"259 0 LINE",
"259 262 LINE",
"291 262 LINE",
"496 0 LINE",
"713 0 LINE",
"433 367 LINE",
"690 710 LINE",
"470 710 LINE",
"274 439 LINE",
"259 439 LINE"
);
}
);
width = 690;
}
);
leftKerningGroup = uni0418;
rightKerningGroup = uni041A;
unicode = 041A;
},
{
glyphname = uni041B;
lastChange = "2016-08-18 21:45:13 +0000";
layers = (
{
background = {
paths = (
{
closed = 1;
nodes = (
"479 540 LINE",
"479 0 LINE",
"674 0 LINE",
"674 710 LINE",
"178 710 LINE",
"159 502 LINE SMOOTH",
"132 209 OFFCURVE",
"115 173 OFFCURVE",
"13 161 CURVE",
"13 -7 LINE",
"250 -6 OFFCURVE",
"310 84 OFFCURVE",
"344 444 CURVE SMOOTH",
"353 540 LINE"
);
}
);
};
layerId = UUID0;
paths = (
{
closed = 1;
nodes = (
"353 540 LINE",
"479 540 LINE",
"479 0 LINE",
"674 0 LINE",
"674 710 LINE",
"178 710 LINE",
"159 502 LINE SMOOTH",
"132 209 OFFCURVE",
"115 173 OFFCURVE",
"13 161 CURVE",
"13 -7 LINE",
"250 -6 OFFCURVE",
"310 84 OFFCURVE",
"344 444 CURVE SMOOTH"
);
}
);
width = 738;
}
);
leftKerningGroup = uni041B;
rightKerningGroup = uni0418;
unicode = 041B;
},
{
glyphname = uni041F;
lastChange = "2016-08-18 21:45:13 +0000";
layers = (
{
background = {
paths = (
{
closed = 1;
nodes = (
"65 0 LINE",
"260 0 LINE",
"260 540 LINE",
"479 540 LINE",
"479 0 LINE",
"674 0 LINE",
"674 710 LINE",
"65 710 LINE"
);
}
);
};
layerId = UUID0;
paths = (
{
closed = 1;
nodes = (
"65 0 LINE",
"260 0 LINE",
"260 540 LINE",
"479 540 LINE",
"479 0 LINE",
"674 0 LINE",
"674 710 LINE",
"65 710 LINE"
);
}
);
width = 739;
}
);
leftKerningGroup = uni0418;
rightKerningGroup = uni0418;
unicode = 041F;
},
{
glyphname = uni0423;
lastChange = "2016-08-18 21:45:13 +0000";
layers = (
{
background = {
paths = (
{
closed = 1;
nodes = (
"316 -7 OFFCURVE",
"361 43 OFFCURVE",
"420 170 CURVE SMOOTH",
"670 710 LINE",
"465 710 LINE",
"341 393 LINE",
"206 710 LINE",
"-9 710 LINE",
"254 204 LINE",
"249 178 OFFCURVE",
"227 162 OFFCURVE",
"198 162 CURVE SMOOTH",
"164 162 OFFCURVE",
"136 186 OFFCURVE",
"132 192 CURVE",
"91 33 LINE",
"126 4 OFFCURVE",
"187 -7 OFFCURVE",
"218 -7 CURVE SMOOTH"
);
}
);
};
layerId = UUID0;
paths = (
{
closed = 1;
nodes = (
"218 -7 LINE SMOOTH",
"316 -7 OFFCURVE",
"361 43 OFFCURVE",
"420 170 CURVE SMOOTH",
"670 710 LINE",
"465 710 LINE",
"341 393 LINE",
"206 710 LINE",
"-9 710 LINE",
"254 204 LINE",
"249 178 OFFCURVE",
"227 162 OFFCURVE",
"198 162 CURVE SMOOTH",
"164 162 OFFCURVE",
"136 186 OFFCURVE",
"132 192 CURVE",
"91 33 LINE",
"126 4 OFFCURVE",
"187 -7 OFFCURVE",
"218 -7 CURVE SMOOTH"
);
}
);
width = 651;
}
);
leftKerningGroup = uni0423;
rightKerningGroup = uni0423;
unicode = 0423;
},
{
glyphname = uni040E;
lastChange = "2016-08-18 21:45:13 +0000";
layers = (
{
background = {
paths = (
{
closed = 1;
nodes = (
"460 754 OFFCURVE",
"545 821 OFFCURVE",
"545 916 CURVE",
"427 916 LINE",
"421 881 OFFCURVE",
"382 855 OFFCURVE",
"336 855 CURVE SMOOTH",
"288 855 OFFCURVE",
"245 882 OFFCURVE",
"245 916 CURVE",
"127 916 LINE",
"127 821 OFFCURVE",
"212 754 OFFCURVE",
"336 754 CURVE SMOOTH"
);
}
);
};
layerId = UUID0;
paths = (
{
closed = 1;
nodes = (
"218 -7 LINE SMOOTH",
"316 -7 OFFCURVE",
"361 43 OFFCURVE",
"420 170 CURVE SMOOTH",
"670 710 LINE",
"465 710 LINE",
"341 393 LINE",
"206 710 LINE",
"-9 710 LINE",
"254 204 LINE",
"249 178 OFFCURVE",
"227 162 OFFCURVE",
"198 162 CURVE SMOOTH",
"164 162 OFFCURVE",
"136 186 OFFCURVE",
"132 192 CURVE",
"91 33 LINE",
"126 4 OFFCURVE",
"187 -7 OFFCURVE",
"218 -7 CURVE SMOOTH"
);
},
{
closed = 1;
nodes = (
"336 754 LINE SMOOTH",
"460 754 OFFCURVE",
"545 821 OFFCURVE",
"545 916 CURVE",
"427 916 LINE",
"421 881 OFFCURVE",
"382 855 OFFCURVE",
"336 855 CURVE SMOOTH",
"288 855 OFFCURVE",
"245 882 OFFCURVE",
"245 916 CURVE",
"127 916 LINE",
"127 821 OFFCURVE",
"212 754 OFFCURVE",
"336 754 CURVE SMOOTH"
);
}
);
width = 651;
}
);
leftKerningGroup = uni0423;
rightKerningGroup = uni0423;
unicode = 040E;
},
{
glyphname = uni0424;
lastChange = "2016-08-18 21:45:13 +0000";
layers = (
{
background = {
paths = (
{
closed = 1;
nodes = (
"322 -30 LINE",
"506 -30 LINE",
"506 53 LINE",
"718 81 OFFCURVE",
"812 201 OFFCURVE",
"812 366 CURVE SMOOTH",
"812 523 OFFCURVE",
"725 652 OFFCURVE",
"506 681 CURVE",
"506 780 LINE",
"322 780 LINE",
"322 681 LINE",
"102 652 OFFCURVE",
"16 523 OFFCURVE",
"16 366 CURVE SMOOTH",
"16 201 OFFCURVE",
"110 79 OFFCURVE",
"322 52 CURVE"
);
},
{
closed = 1;
nodes = (
"625 300 OFFCURVE",
"595 251 OFFCURVE",
"506 232 CURVE",
"506 501 LINE",
"593 483 OFFCURVE",
"625 438 OFFCURVE",
"625 367 CURVE SMOOTH"
);
},
{
closed = 1;
nodes = (
"202 438 OFFCURVE",
"234 483 OFFCURVE",
"322 501 CURVE",
"322 232 LINE",
"233 251 OFFCURVE",
"202 300 OFFCURVE",
"202 367 CURVE SMOOTH"
);
}
);
};
layerId = UUID0;
paths = (
{
closed = 1;
nodes = (
"322 -30 LINE",
"506 -30 LINE",
"506 53 LINE",
"718 81 OFFCURVE",
"812 201 OFFCURVE",
"812 366 CURVE SMOOTH",
"812 523 OFFCURVE",
"725 652 OFFCURVE",
"506 681 CURVE",
"506 780 LINE",
"322 780 LINE",
"322 681 LINE",
"102 652 OFFCURVE",
"16 523 OFFCURVE",
"16 366 CURVE SMOOTH",
"16 201 OFFCURVE",
"110 79 OFFCURVE",
"322 52 CURVE"
);
},
{
closed = 1;
nodes = (
"506 232 LINE",
"506 501 LINE",
"593 483 OFFCURVE",
"625 438 OFFCURVE",
"625 367 CURVE SMOOTH",
"625 300 OFFCURVE",
"595 251 OFFCURVE",
"506 232 CURVE"
);
},
{
closed = 1;
nodes = (
"322 232 LINE",
"233 251 OFFCURVE",
"202 300 OFFCURVE",
"202 367 CURVE SMOOTH",
"202 438 OFFCURVE",
"234 483 OFFCURVE",
"322 501 CURVE"
);
}
);
width = 828;
}
);
unicode = 0424;
},
{
glyphname = uni0427;
lastChange = "2016-08-18 21:45:13 +0000";
layers = (
{
background = {
paths = (
{
closed = 1;
nodes = (
"404 417 LINE",
"384 408 OFFCURVE",
"357 403 OFFCURVE",
"329 403 CURVE SMOOTH",
"249 403 OFFCURVE",
"220 450 OFFCURVE",
"220 532 CURVE SMOOTH",
"220 710 LINE",
"30 710 LINE",
"30 468 LINE SMOOTH",
"30 329 OFFCURVE",
"89 224 OFFCURVE",
"258 224 CURVE SMOOTH",
"328 224 OFFCURVE",
"367 233 OFFCURVE",
"404 250 CURVE",
"404 0 LINE",
"594 0 LINE",
"594 710 LINE",
"404 710 LINE"
);
}
);
};
layerId = UUID0;
paths = (
{
closed = 1;
nodes = (
"404 417 LINE",
"384 408 OFFCURVE",
"357 403 OFFCURVE",
"329 403 CURVE SMOOTH",
"249 403 OFFCURVE",
"220 450 OFFCURVE",
"220 532 CURVE SMOOTH",
"220 710 LINE",
"30 710 LINE",
"30 468 LINE SMOOTH",
"30 329 OFFCURVE",
"89 224 OFFCURVE",
"258 224 CURVE SMOOTH",
"328 224 OFFCURVE",
"367 233 OFFCURVE",
"404 250 CURVE",
"404 0 LINE",
"594 0 LINE",
"594 710 LINE",
"404 710 LINE"
);
}
);
width = 659;
}
);
rightKerningGroup = uni0418;
unicode = 0427;
},
{
glyphname = uni0426;
lastChange = "2016-08-18 21:45:13 +0000";
layers = (
{
background = {
paths = (
{
closed = 1;
nodes = (
"459 710 LINE",
"459 170 LINE",
"260 170 LINE",
"260 710 LINE",
"65 710 LINE",
"65 0 LINE",
"654 0 LINE",
"654 710 LINE"
);
},
{
closed = 1;
nodes = (
"564 -166 LINE",
"754 -166 LINE",
"754 170 LINE",
"514 170 LINE",
"514 47 LINE",
"564 47 LINE"
);
}
);
};
layerId = UUID0;
paths = (
{
closed = 1;
nodes = (
"459 710 LINE",
"459 170 LINE",
"260 170 LINE",
"260 710 LINE",
"65 710 LINE",
"65 0 LINE",
"654 0 LINE",
"654 710 LINE"
);
},
{
closed = 1;
nodes = (
"564 -166 LINE",
"754 -166 LINE",
"754 170 LINE",
"514 170 LINE",
"514 0 LINE",
"564 0 LINE"
);
}
);
width = 774;
}
);
leftKerningGroup = uni0418;
rightKerningGroup = uni0414;
unicode = 0426;
},
{
glyphname = uni0428;
lastChange = "2016-08-18 21:45:13 +0000";
layers = (
{
background = {
paths = (
{
closed = 1;
nodes = (
"773 710 LINE",
"773 170 LINE",
"614 170 LINE",
"614 710 LINE",
"419 710 LINE",
"419 170 LINE",
"260 170 LINE",
"260 710 LINE",
"65 710 LINE",
"65 0 LINE",
"968 0 LINE",
"968 710 LINE"
);
}
);
};
layerId = UUID0;
paths = (
{
closed = 1;
nodes = (
"773 710 LINE",
"773 170 LINE",
"614 170 LINE",
"614 710 LINE",
"419 710 LINE",
"419 170 LINE",
"260 170 LINE",
"260 710 LINE",
"65 710 LINE",
"65 0 LINE",
"968 0 LINE",
"968 710 LINE"
);
}
);
width = 1033;
}
);
leftKerningGroup = uni0418;
rightKerningGroup = uni0418;
unicode = 0428;
},
{
glyphname = uni0429;
lastChange = "2016-08-18 21:45:13 +0000";
layers = (
{
background = {
paths = (
{
closed = 1;
nodes = (
"773 710 LINE",
"773 170 LINE",
"614 170 LINE",
"614 710 LINE",
"419 710 LINE",
"419 170 LINE",
"260 170 LINE",
"260 710 LINE",
"65 710 LINE",
"65 0 LINE",
"968 0 LINE",
"968 710 LINE"
);
},
{
closed = 1;
nodes = (
"878 -166 LINE",
"1068 -166 LINE",
"1068 170 LINE",
"798 170 LINE",
"798 37 LINE",
"878 37 LINE"
);
}
);
};
layerId = UUID0;
paths = (
{
closed = 1;
nodes = (
"773 710 LINE",
"773 170 LINE",
"614 170 LINE",
"614 710 LINE",
"419 710 LINE",
"419 170 LINE",
"260 170 LINE",
"260 710 LINE",
"65 710 LINE",
"65 0 LINE",
"968 0 LINE",
"968 710 LINE"
);
},
{
closed = 1;
nodes = (
"878 -166 LINE",
"1068 -166 LINE",
"1068 170 LINE",
"798 170 LINE",
"798 0 LINE",
"878 0 LINE"
);
}
);
width = 1088;
}
);
leftKerningGroup = uni0418;
rightKerningGroup = uni0414;
unicode = 0429;
},
{
glyphname = uni040F;
lastChange = "2016-08-18 21:45:13 +0000";
layers = (
{
background = {
paths = (
{
closed = 1;
nodes = (
"64 0 LINE",
"663 0 LINE",
"663 710 LINE",
"468 710 LINE",
"468 170 LINE",
"259 170 LINE",
"259 710 LINE",
"64 710 LINE"
);
},
{
closed = 1;
nodes = (
"273 -166 LINE",
"453 -166 LINE",
"453 29 LINE",
"273 29 LINE"
);
}
);
};
layerId = UUID0;
paths = (
{
closed = 1;
nodes = (
"64 0 LINE",
"663 0 LINE",
"663 710 LINE",
"468 710 LINE",
"468 170 LINE",
"259 170 LINE",
"259 710 LINE",
"64 710 LINE"
);
},
{
closed = 1;
nodes = (
"273 -166 LINE",
"453 -166 LINE",
"453 29 LINE",
"273 29 LINE"
);
}
);
width = 727;
}
);
leftKerningGroup = uni0418;
rightKerningGroup = uni0418;
unicode = 040F;
},
{
glyphname = uni042C;
lastChange = "2016-08-18 21:45:13 +0000";
layers = (
{
background = {
paths = (
{
closed = 1;
nodes = (
"260 0 LINE",
"260 710 LINE",
"65 710 LINE",
"65 0 LINE"
);
},
{
closed = 1;
nodes = (
"85 0 LINE",
"386 0 LINE SMOOTH",
"540 0 OFFCURVE",
"634 92 OFFCURVE",
"634 242 CURVE SMOOTH",
"634 386 OFFCURVE",
"535 475 OFFCURVE",
"376 475 CURVE SMOOTH",
"85 475 LINE"
);
},
{
closed = 1;
nodes = (
"260 323 LINE",
"358 323 LINE SMOOTH",
"408 323 OFFCURVE",
"435 286 OFFCURVE",
"435 244 CURVE SMOOTH",
"435 195 OFFCURVE",
"409 164 OFFCURVE",
"358 164 CURVE SMOOTH",
"260 164 LINE"
);
}
);
};
layerId = UUID0;
paths = (
{
closed = 1;
nodes = (
"260 0 LINE",
"260 710 LINE",
"65 710 LINE",
"65 0 LINE"
);
},
{
closed = 1;
nodes = (
"85 0 LINE",
"386 0 LINE SMOOTH",
"540 0 OFFCURVE",
"634 92 OFFCURVE",
"634 242 CURVE SMOOTH",
"634 386 OFFCURVE",
"535 475 OFFCURVE",
"376 475 CURVE SMOOTH",
"85 475 LINE"
);
},
{
closed = 1;
nodes = (
"260 323 LINE",
"358 323 LINE SMOOTH",
"408 323 OFFCURVE",
"435 286 OFFCURVE",
"435 244 CURVE SMOOTH",
"435 195 OFFCURVE",
"409 164 OFFCURVE",
"358 164 CURVE SMOOTH",
"260 164 LINE"
);
}
);
width = 653;
}
);
leftKerningGroup = uni0418;
rightKerningGroup = uni042C;
unicode = 042C;
},
{
glyphname = uni042A;
lastChange = "2016-08-18 21:45:13 +0000";
layers = (
{
background = {
paths = (
{
closed = 1;
nodes = (
"379 0 LINE",
"379 710 LINE",
"184 710 LINE",
"184 0 LINE"
);
},
{
closed = 1;
nodes = (
"204 0 LINE",
"505 0 LINE SMOOTH",
"659 0 OFFCURVE",
"753 92 OFFCURVE",
"753 242 CURVE SMOOTH",
"753 386 OFFCURVE",
"654 475 OFFCURVE",
"495 475 CURVE SMOOTH",
"204 475 LINE"
);
},
{
closed = 1;
nodes = (
"379 323 LINE",
"477 323 LINE SMOOTH",
"527 323 OFFCURVE",
"554 286 OFFCURVE",
"554 244 CURVE SMOOTH",
"554 195 OFFCURVE",
"527 164 OFFCURVE",
"477 164 CURVE SMOOTH",
"379 164 LINE"
);
},
{
closed = 1;
nodes = (
"8 550 LINE",
"305 550 LINE",
"305 710 LINE",
"8 710 LINE"
);
}
);
};
layerId = UUID0;
paths = (
{
closed = 1;
nodes = (
"379 0 LINE",
"379 710 LINE",
"184 710 LINE",
"184 0 LINE"
);
},
{
closed = 1;
nodes = (
"204 0 LINE",
"505 0 LINE SMOOTH",
"659 0 OFFCURVE",
"753 92 OFFCURVE",
"753 242 CURVE SMOOTH",
"753 386 OFFCURVE",
"654 475 OFFCURVE",
"495 475 CURVE SMOOTH",
"204 475 LINE"
);
},
{
closed = 1;
nodes = (
"379 323 LINE",
"477 323 LINE SMOOTH",
"527 323 OFFCURVE",
"554 286 OFFCURVE",
"554 244 CURVE SMOOTH",
"554 195 OFFCURVE",
"527 164 OFFCURVE",
"477 164 CURVE SMOOTH",
"379 164 LINE"
);
},
{
closed = 1;
nodes = (
"8 550 LINE",
"305 550 LINE",
"305 710 LINE",
"8 710 LINE"
);
}
);
width = 772;
}
);
rightKerningGroup = uni042C;
unicode = 042A;
},
{
glyphname = uni042B;
lastChange = "2016-08-18 21:45:13 +0000";
layers = (
{
background = {
paths = (
{
closed = 1;
nodes = (
"260 0 LINE",
"260 710 LINE",
"65 710 LINE",
"65 0 LINE"
);
},
{
closed = 1;
nodes = (
"85 0 LINE",
"386 0 LINE SMOOTH",
"540 0 OFFCURVE",
"634 92 OFFCURVE",
"634 242 CURVE SMOOTH",
"634 386 OFFCURVE",
"535 475 OFFCURVE",
"376 475 CURVE SMOOTH",
"85 475 LINE"
);
},
{
closed = 1;
nodes = (
"260 323 LINE",
"358 323 LINE SMOOTH",
"408 323 OFFCURVE",
"435 286 OFFCURVE",
"435 244 CURVE SMOOTH",
"435 195 OFFCURVE",
"409 164 OFFCURVE",
"358 164 CURVE SMOOTH",
"260 164 LINE"
);
},
{
closed = 1;
nodes = (
"920 0 LINE",
"920 710 LINE",
"725 710 LINE",
"725 0 LINE"
);
}
);
};
layerId = UUID0;
paths = (
{
closed = 1;
nodes = (
"920 0 LINE",
"920 710 LINE",
"725 710 LINE",
"725 0 LINE"
);
},
{
closed = 1;
nodes = (
"260 0 LINE",
"260 710 LINE",
"65 710 LINE",
"65 0 LINE"
);
},
{
closed = 1;
nodes = (
"85 0 LINE",
"386 0 LINE SMOOTH",
"540 0 OFFCURVE",
"634 92 OFFCURVE",
"634 242 CURVE SMOOTH",
"634 386 OFFCURVE",
"535 475 OFFCURVE",
"376 475 CURVE SMOOTH",
"85 475 LINE"
);
},
{
closed = 1;
nodes = (
"260 323 LINE",
"358 323 LINE SMOOTH",
"408 323 OFFCURVE",
"435 286 OFFCURVE",
"435 244 CURVE SMOOTH",
"435 195 OFFCURVE",
"409 164 OFFCURVE",
"358 164 CURVE SMOOTH",
"260 164 LINE"
);
}
);
width = 985;
}
);
leftKerningGroup = uni0418;
rightKerningGroup = uni0418;
unicode = 042B;
},
{
glyphname = uni0409;
lastChange = "2016-08-18 21:45:13 +0000";
layers = (
{
background = {
paths = (
{
closed = 1;
nodes = (
"674 455 LINE",
"674 710 LINE",
"178 710 LINE",
"159 502 LINE SMOOTH",
"132 209 OFFCURVE",
"115 173 OFFCURVE",
"13 161 CURVE",
"13 -7 LINE",
"250 -6 OFFCURVE",
"310 84 OFFCURVE",
"344 444 CURVE SMOOTH",
"353 540 LINE",
"479 540 LINE",
"479 0 LINE",
"830 0 LINE SMOOTH",
"984 0 OFFCURVE",
"1078 88 OFFCURVE",
"1078 232 CURVE SMOOTH",
"1078 370 OFFCURVE",
"979 455 OFFCURVE",
"820 455 CURVE SMOOTH"
);
},
{
closed = 1;
nodes = (
"674 164 LINE",
"674 303 LINE",
"802 303 LINE SMOOTH",
"852 303 OFFCURVE",
"879 271 OFFCURVE",
"879 234 CURVE SMOOTH",
"879 191 OFFCURVE",
"852 164 OFFCURVE",
"802 164 CURVE"
);
}
);
};
layerId = UUID0;
paths = (
{
closed = 1;
nodes = (
"13 -7 LINE",
"250 -6 OFFCURVE",
"310 84 OFFCURVE",
"344 444 CURVE SMOOTH",
"353 540 LINE",
"479 540 LINE",
"479 0 LINE",
"830 0 LINE SMOOTH",
"984 0 OFFCURVE",
"1078 88 OFFCURVE",
"1078 232 CURVE SMOOTH",
"1078 370 OFFCURVE",
"979 455 OFFCURVE",
"820 455 CURVE SMOOTH",
"674 455 LINE",
"674 710 LINE",
"178 710 LINE",
"159 502 LINE SMOOTH",
"132 209 OFFCURVE",
"115 173 OFFCURVE",
"13 161 CURVE"
);
},
{
closed = 1;
nodes = (
"674 164 LINE",
"674 303 LINE",
"802 303 LINE SMOOTH",
"852 303 OFFCURVE",
"879 271 OFFCURVE",
"879 234 CURVE SMOOTH",
"879 191 OFFCURVE",
"852 164 OFFCURVE",
"802 164 CURVE"
);
}
);
width = 1096;
}
);
leftKerningGroup = uni041B;
rightKerningGroup = uni042C;
unicode = 0409;
},
{
glyphname = uni040A;
lastChange = "2016-08-18 21:45:13 +0000";
layers = (
{
background = {
paths = (
{
closed = 1;
nodes = (
"65 0 LINE",
"260 0 LINE",
"260 278 LINE",
"498 278 LINE",
"498 0 LINE",
"693 0 LINE",
"693 710 LINE",
"498 710 LINE",
"498 448 LINE",
"260 448 LINE",
"260 710 LINE",
"65 710 LINE"
);
},
{
closed = 1;
nodes = (
"518 0 LINE",
"849 0 LINE SMOOTH",
"1003 0 OFFCURVE",
"1097 88 OFFCURVE",
"1097 232 CURVE SMOOTH",
"1097 370 OFFCURVE",
"998 455 OFFCURVE",
"839 455 CURVE SMOOTH",
"518 455 LINE"
);
},
{
closed = 1;
nodes = (
"693 164 LINE",
"693 283 LINE",
"821 283 LINE SMOOTH",
"871 283 OFFCURVE",
"898 265 OFFCURVE",
"898 224 CURVE SMOOTH",
"898 177 OFFCURVE",
"871 164 OFFCURVE",
"821 164 CURVE SMOOTH"
);
}
);
};
layerId = UUID0;
paths = (
{
closed = 1;
nodes = (
"65 0 LINE",
"260 0 LINE",
"260 278 LINE",
"498 278 LINE",
"498 0 LINE",
"693 0 LINE",
"693 710 LINE",
"498 710 LINE",
"498 448 LINE",
"260 448 LINE",
"260 710 LINE",
"65 710 LINE"
);
},
{
closed = 1;
nodes = (
"518 0 LINE",
"849 0 LINE SMOOTH",
"1003 0 OFFCURVE",
"1097 88 OFFCURVE",
"1097 232 CURVE SMOOTH",
"1097 370 OFFCURVE",
"998 455 OFFCURVE",
"839 455 CURVE SMOOTH",
"518 455 LINE"
);
},
{
closed = 1;
nodes = (
"693 164 LINE",
"693 283 LINE",
"821 283 LINE SMOOTH",
"871 283 OFFCURVE",
"898 265 OFFCURVE",
"898 224 CURVE SMOOTH",
"898 177 OFFCURVE",
"871 164 OFFCURVE",
"821 164 CURVE SMOOTH"
);
}
);
width = 1115;
}
);
leftKerningGroup = uni0418;
rightKerningGroup = uni042C;
unicode = 040A;
},
{
glyphname = uni0404;
lastChange = "2016-08-18 21:45:13 +0000";
layers = (
{
background = {
paths = (
{
closed = 1;
nodes = (
"500 -6 OFFCURVE",
"641 54 OFFCURVE",
"683 159 CURVE",
"524 254 LINE",
"500 190 OFFCURVE",
"436 167 OFFCURVE",
"383 167 CURVE SMOOTH",
"306 167 OFFCURVE",
"252 217 OFFCURVE",
"230 285 CURVE",
"437 285 LINE",
"437 440 LINE",
"235 440 LINE",
"258 496 OFFCURVE",
"305 541 OFFCURVE",
"381 541 CURVE SMOOTH",
"434 541 OFFCURVE",
"500 522 OFFCURVE",
"527 453 CURVE",
"676 559 LINE",
"627 652 OFFCURVE",
"521 714 OFFCURVE",
"385 714 CURVE SMOOTH",
"157 714 OFFCURVE",
"22 534 OFFCURVE",
"22 361 CURVE SMOOTH",
"22 179 OFFCURVE",
"169 -6 OFFCURVE",
"379 -6 CURVE SMOOTH"
);
}
);
};
layerId = UUID0;
paths = (
{
closed = 1;
nodes = (
"524 254 LINE",
"500 190 OFFCURVE",
"436 167 OFFCURVE",
"383 167 CURVE SMOOTH",
"306 167 OFFCURVE",
"252 217 OFFCURVE",
"230 285 CURVE",
"437 285 LINE",
"437 440 LINE",
"235 440 LINE",
"258 496 OFFCURVE",
"305 541 OFFCURVE",
"381 541 CURVE SMOOTH",
"434 541 OFFCURVE",
"500 522 OFFCURVE",
"527 453 CURVE",
"676 559 LINE",
"627 652 OFFCURVE",
"521 714 OFFCURVE",
"385 714 CURVE SMOOTH",
"157 714 OFFCURVE",
"22 534 OFFCURVE",
"22 361 CURVE SMOOTH",
"22 179 OFFCURVE",
"169 -6 OFFCURVE",
"379 -6 CURVE SMOOTH",
"500 -6 OFFCURVE",
"641 54 OFFCURVE",
"683 159 CURVE"
);
}
);
width = 694;
}
);
leftKerningGroup = uni041E;
unicode = 0404;
},
{
glyphname = uni042D;
lastChange = "2016-08-18 21:45:13 +0000";
layers = (
{
background = {
paths = (
{
closed = 1;
nodes = (
"525 -6 OFFCURVE",
"672 179 OFFCURVE",
"672 361 CURVE SMOOTH",
"672 534 OFFCURVE",
"537 714 OFFCURVE",
"309 714 CURVE SMOOTH",
"173 714 OFFCURVE",
"67 652 OFFCURVE",
"18 559 CURVE",
"167 453 LINE",
"194 522 OFFCURVE",
"260 541 OFFCURVE",
"313 541 CURVE SMOOTH",
"389 541 OFFCURVE",
"436 496 OFFCURVE",
"459 440 CURVE",
"257 440 LINE",
"257 285 LINE",
"464 285 LINE",
"442 217 OFFCURVE",
"388 167 OFFCURVE",
"311 167 CURVE SMOOTH",
"258 167 OFFCURVE",
"194 190 OFFCURVE",
"170 254 CURVE",
"11 159 LINE",
"53 54 OFFCURVE",
"194 -6 OFFCURVE",
"315 -6 CURVE SMOOTH"
);
}
);
};
layerId = UUID0;
paths = (
{
closed = 1;
nodes = (
"315 -6 LINE SMOOTH",
"525 -6 OFFCURVE",
"672 179 OFFCURVE",
"672 361 CURVE SMOOTH",
"672 534 OFFCURVE",
"537 714 OFFCURVE",
"309 714 CURVE SMOOTH",
"173 714 OFFCURVE",
"67 652 OFFCURVE",
"18 559 CURVE",
"167 453 LINE",
"194 522 OFFCURVE",
"260 541 OFFCURVE",
"313 541 CURVE SMOOTH",
"389 541 OFFCURVE",
"436 496 OFFCURVE",
"459 440 CURVE",
"257 440 LINE",
"257 285 LINE",
"464 285 LINE",
"442 217 OFFCURVE",
"388 167 OFFCURVE",
"311 167 CURVE SMOOTH",
"258 167 OFFCURVE",
"194 190 OFFCURVE",
"170 254 CURVE",
"11 159 LINE",
"53 54 OFFCURVE",
"194 -6 OFFCURVE",
"315 -6 CURVE SMOOTH"
);
}
);
width = 694;
}
);
rightKerningGroup = uni041E;
unicode = 042D;
},
{
glyphname = uni040B;
lastChange = "2016-08-18 21:45:13 +0000";
layers = (
{
background = {
paths = (
{
closed = 1;
nodes = (
"131 0 LINE",
"321 0 LINE",
"321 545 LINE",
"574 545 LINE",
"574 710 LINE",
"10 710 LINE",
"10 545 LINE",
"131 545 LINE"
);
},
{
closed = 1;
nodes = (
"534 0 LINE",
"725 0 LINE",
"725 219 LINE SMOOTH",
"725 390 OFFCURVE",
"629 466 OFFCURVE",
"477 466 CURVE SMOOTH",
"400 466 OFFCURVE",
"335 453 OFFCURVE",
"293 425 CURVE",
"293 237 LINE",
"326 267 OFFCURVE",
"373 285 OFFCURVE",
"424 285 CURVE SMOOTH",
"503 285 OFFCURVE",
"534 230 OFFCURVE",
"534 135 CURVE SMOOTH"
);
}
);
};
layerId = UUID0;
paths = (
{
closed = 1;
nodes = (
"131 0 LINE",
"321 0 LINE",
"321 545 LINE",
"574 545 LINE",
"574 710 LINE",
"10 710 LINE",
"10 545 LINE",
"131 545 LINE"
);
},
{
closed = 1;
nodes = (
"534 0 LINE",
"725 0 LINE",
"725 219 LINE SMOOTH",
"725 390 OFFCURVE",
"629 466 OFFCURVE",
"477 466 CURVE SMOOTH",
"400 466 OFFCURVE",
"335 453 OFFCURVE",
"293 425 CURVE",
"293 237 LINE",
"326 267 OFFCURVE",
"373 285 OFFCURVE",
"424 285 CURVE SMOOTH",
"503 285 OFFCURVE",
"534 230 OFFCURVE",
"534 135 CURVE SMOOTH"
);
}
);
width = 754;
}
);
leftKerningGroup = uni0402;
unicode = 040B;
},
{
glyphname = uni042E;
lastChange = "2016-08-18 21:45:13 +0000";
layers = (
{
background = {
paths = (
{
closed = 1;
nodes = (
"408 444 LINE",
"260 444 LINE",
"260 710 LINE",
"65 710 LINE",
"65 0 LINE",
"260 0 LINE",
"260 274 LINE",
"408 274 LINE"
);
},
{
closed = 1;
nodes = (
"868 -6 OFFCURVE",
"1008 136 OFFCURVE",
"1008 352 CURVE SMOOTH",
"1008 553 OFFCURVE",
"876 714 OFFCURVE",
"675 714 CURVE SMOOTH",
"479 714 OFFCURVE",
"337 564 OFFCURVE",
"337 356 CURVE SMOOTH",
"337 153 OFFCURVE",
"471 -6 OFFCURVE",
"671 -6 CURVE SMOOTH"
);
},
{
closed = 1;
nodes = (
"535 467 OFFCURVE",
"577 541 OFFCURVE",
"672 541 CURVE SMOOTH",
"765 541 OFFCURVE",
"810 472 OFFCURVE",
"810 356 CURVE SMOOTH",
"810 243 OFFCURVE",
"769 167 OFFCURVE",
"673 167 CURVE SMOOTH",
"579 167 OFFCURVE",
"535 239 OFFCURVE",
"535 354 CURVE SMOOTH"
);
}
);
};
layerId = UUID0;
paths = (
{
closed = 1;
nodes = (
"408 444 LINE",
"260 444 LINE",
"260 710 LINE",
"65 710 LINE",
"65 0 LINE",
"260 0 LINE",
"260 274 LINE",
"408 274 LINE"
);
},
{
closed = 1;
nodes = (
"671 -6 LINE SMOOTH",
"868 -6 OFFCURVE",
"1008 136 OFFCURVE",
"1008 352 CURVE SMOOTH",
"1008 553 OFFCURVE",
"876 714 OFFCURVE",
"675 714 CURVE SMOOTH",
"479 714 OFFCURVE",
"337 564 OFFCURVE",
"337 356 CURVE SMOOTH",
"337 153 OFFCURVE",
"471 -6 OFFCURVE",
"671 -6 CURVE SMOOTH"
);
},
{
closed = 1;
nodes = (
"535 354 LINE SMOOTH",
"535 467 OFFCURVE",
"577 541 OFFCURVE",
"672 541 CURVE SMOOTH",
"765 541 OFFCURVE",
"810 472 OFFCURVE",
"810 356 CURVE SMOOTH",
"810 243 OFFCURVE",
"769 167 OFFCURVE",
"673 167 CURVE SMOOTH",
"579 167 OFFCURVE",
"535 239 OFFCURVE",
"535 354 CURVE SMOOTH"
);
}
);
width = 1032;
}
);
leftKerningGroup = uni0418;
rightKerningGroup = uni041E;
unicode = 042E;
},
{
glyphname = uni042F;
lastChange = "2016-08-18 21:45:13 +0000";
layers = (
{
background = {
paths = (
{
closed = 1;
nodes = (
"624 0 LINE",
"624 710 LINE",
"298 710 LINE SMOOTH",
"159 710 OFFCURVE",
"59 614 OFFCURVE",
"59 479 CURVE SMOOTH",
"59 340 OFFCURVE",
"153 248 OFFCURVE",
"293 248 CURVE SMOOTH",
"429 248 LINE",
"429 0 LINE"
);
},
{
closed = 1;
nodes = (
"429 413 LINE",
"326 413 LINE SMOOTH",
"292 413 OFFCURVE",
"257 427 OFFCURVE",
"257 479 CURVE SMOOTH",
"257 531 OFFCURVE",
"294 545 OFFCURVE",
"326 545 CURVE SMOOTH",
"429 545 LINE"
);
},
{
closed = 1;
nodes = (
"187 277 LINE",
"12 0 LINE",
"221 0 LINE",
"395 277 LINE"
);
}
);
};
layerId = UUID0;
paths = (
{
closed = 1;
nodes = (
"624 0 LINE",
"624 710 LINE",
"298 710 LINE SMOOTH",
"159 710 OFFCURVE",
"59 614 OFFCURVE",
"59 479 CURVE SMOOTH",
"59 340 OFFCURVE",
"153 248 OFFCURVE",
"293 248 CURVE SMOOTH",
"429 248 LINE",
"429 0 LINE"
);
},
{
closed = 1;
nodes = (
"429 413 LINE",
"326 413 LINE SMOOTH",
"292 413 OFFCURVE",
"257 427 OFFCURVE",
"257 479 CURVE SMOOTH",
"257 531 OFFCURVE",
"294 545 OFFCURVE",
"326 545 CURVE SMOOTH",
"429 545 LINE"
);
},
{
closed = 1;
nodes = (
"187 277 LINE",
"12 0 LINE",
"221 0 LINE",
"395 277 LINE"
);
}
);
width = 689;
}
);
rightKerningGroup = uni0418;
unicode = 042F;
},
{
glyphname = uni0402;
lastChange = "2016-08-18 21:45:13 +0000";
layers = (
{
background = {
paths = (
{
closed = 1;
nodes = (
"131 0 LINE",
"321 0 LINE",
"321 545 LINE",
"594 545 LINE",
"594 710 LINE",
"10 710 LINE",
"10 545 LINE",
"131 545 LINE"
);
},
{
closed = 1;
nodes = (
"366 12 LINE",
"410 -3 OFFCURVE",
"455 -10 OFFCURVE",
"500 -10 CURVE SMOOTH",
"663 -10 OFFCURVE",
"760 80 OFFCURVE",
"760 230 CURVE SMOOTH",
"760 371 OFFCURVE",
"658 469 OFFCURVE",
"491 469 CURVE SMOOTH",
"411 469 OFFCURVE",
"339 440 OFFCURVE",
"293 389 CURVE",
"293 221 LINE",
"350 281 OFFCURVE",
"411 309 OFFCURVE",
"479 309 CURVE SMOOTH",
"532 309 OFFCURVE",
"570 279 OFFCURVE",
"570 230 CURVE SMOOTH",
"570 171 OFFCURVE",
"528 151 OFFCURVE",
"482 151 CURVE SMOOTH",
"459 151 OFFCURVE",
"435 159 OFFCURVE",
"417 169 CURVE"
);
}
);
};
layerId = UUID0;
paths = (
{
closed = 1;
nodes = (
"131 0 LINE",
"321 0 LINE",
"321 247 LINE",
"370 289 OFFCURVE",
"422 309 OFFCURVE",
"479 309 CURVE SMOOTH",
"532 309 OFFCURVE",
"570 279 OFFCURVE",
"570 230 CURVE SMOOTH",
"570 171 OFFCURVE",
"528 151 OFFCURVE",
"482 151 CURVE SMOOTH",
"459 151 OFFCURVE",
"435 159 OFFCURVE",
"417 169 CURVE",
"366 12 LINE",
"410 -3 OFFCURVE",
"455 -10 OFFCURVE",
"500 -10 CURVE SMOOTH",
"663 -10 OFFCURVE",
"760 80 OFFCURVE",
"760 230 CURVE SMOOTH",
"760 371 OFFCURVE",
"658 469 OFFCURVE",
"491 469 CURVE SMOOTH",
"426 469 OFFCURVE",
"366 450 OFFCURVE",
"321 415 CURVE",
"321 545 LINE",
"594 545 LINE",
"594 710 LINE",
"10 710 LINE",
"10 545 LINE",
"131 545 LINE"
);
}
);
width = 764;
}
);
leftKerningGroup = uni0402;
unicode = 0402;
},
{
glyphname = uni04B0;
lastChange = "2016-08-18 21:45:13 +0000";
layers = (
{
background = {
paths = (
{
closed = 1;
nodes = (
"665 710 LINE",
"453 710 LINE",
"323 403 LINE",
"196 710 LINE",
"-15 710 LINE",
"226 237 LINE",
"226 229 LINE",
"57 229 LINE",
"57 109 LINE",
"226 109 LINE",
"226 0 LINE",
"420 0 LINE",
"420 109 LINE",
"590 109 LINE",
"590 229 LINE",
"420 229 LINE",
"420 235 LINE"
);
}
);
};
layerId = UUID0;
paths = (
{
closed = 1;
nodes = (
"420 229 LINE",
"420 235 LINE",
"665 710 LINE",
"453 710 LINE",
"323 403 LINE",
"196 710 LINE",
"-15 710 LINE",
"226 237 LINE",
"226 229 LINE",
"57 229 LINE",
"57 109 LINE",
"226 109 LINE",
"226 0 LINE",
"420 0 LINE",
"420 109 LINE",
"590 109 LINE",
"590 229 LINE"
);
}
);
width = 648;
}
);
unicode = 04B0;
},
{
glyphname = uni0431;
lastChange = "2016-08-18 21:45:13 +0000";
layers = (
{
background = {
paths = (
{
closed = 1;
nodes = (
"547 577 LINE",
"547 740 LINE",
"318 695 LINE SMOOTH",
"123 657 OFFCURVE",
"32 561 OFFCURVE",
"32 300 CURVE SMOOTH",
"32 98 OFFCURVE",
"132 -10 OFFCURVE",
"320 -10 CURVE SMOOTH",
"508 -10 OFFCURVE",
"608 114 OFFCURVE",
"608 253 CURVE SMOOTH",
"608 378 OFFCURVE",
"497 483 OFFCURVE",
"376 483 CURVE SMOOTH",
"298 483 OFFCURVE",
"241 455 OFFCURVE",
"207 412 CURVE",
"220 484 OFFCURVE",
"256 519 OFFCURVE",
"315 531 CURVE SMOOTH"
);
},
{
closed = 1;
nodes = (
"227 299 OFFCURVE",
"266 333 OFFCURVE",
"320 333 CURVE SMOOTH",
"374 333 OFFCURVE",
"413 299 OFFCURVE",
"413 253 CURVE SMOOTH",
"413 191 OFFCURVE",
"374 150 OFFCURVE",
"320 150 CURVE SMOOTH",
"266 150 OFFCURVE",
"227 189 OFFCURVE",
"227 253 CURVE SMOOTH"
);
}
);
};
layerId = UUID0;
paths = (
{
closed = 1;
nodes = (
"547 577 LINE",
"547 740 LINE",
"318 695 LINE SMOOTH",
"123 657 OFFCURVE",
"32 561 OFFCURVE",
"32 300 CURVE SMOOTH",
"32 98 OFFCURVE",
"132 -10 OFFCURVE",
"320 -10 CURVE SMOOTH",
"508 -10 OFFCURVE",
"608 114 OFFCURVE",
"608 253 CURVE SMOOTH",
"608 378 OFFCURVE",
"497 483 OFFCURVE",
"376 483 CURVE SMOOTH",
"298 483 OFFCURVE",
"241 455 OFFCURVE",
"207 412 CURVE",
"220 484 OFFCURVE",
"256 519 OFFCURVE",
"315 531 CURVE SMOOTH"
);
},
{
closed = 1;
nodes = (
"227 253 LINE SMOOTH",
"227 299 OFFCURVE",
"266 333 OFFCURVE",
"320 333 CURVE SMOOTH",
"374 333 OFFCURVE",
"413 299 OFFCURVE",
"413 253 CURVE SMOOTH",
"413 191 OFFCURVE",
"374 150 OFFCURVE",
"320 150 CURVE SMOOTH",
"266 150 OFFCURVE",
"227 189 OFFCURVE",
"227 253 CURVE SMOOTH"
);
}
);
width = 629;
}
);
unicode = 0431;
},
{
glyphname = uni0432;
lastChange = "2016-08-18 21:45:13 +0000";
layers = (
{
background = {
paths = (
{
closed = 1;
nodes = (
"50 0 LINE",
"353 0 LINE SMOOTH",
"493 0 OFFCURVE",
"572 32 OFFCURVE",
"572 135 CURVE SMOOTH",
"572 214 OFFCURVE",
"531 253 OFFCURVE",
"466 271 CURVE",
"522 293 OFFCURVE",
"548 343 OFFCURVE",
"548 390 CURVE SMOOTH",
"548 457 OFFCURVE",
"498 526 OFFCURVE",
"418 526 CURVE SMOOTH",
"50 526 LINE"
);
},
{
closed = 1;
nodes = (
"240 136 LINE",
"240 218 LINE",
"343 218 LINE SMOOTH",
"362 218 OFFCURVE",
"379 203 OFFCURVE",
"379 175 CURVE SMOOTH",
"379 152 OFFCURVE",
"362 136 OFFCURVE",
"343 136 CURVE SMOOTH"
);
},
{
closed = 1;
nodes = (
"240 313 LINE",
"240 390 LINE",
"321 390 LINE SMOOTH",
"343 390 OFFCURVE",
"360 374 OFFCURVE",
"360 351 CURVE SMOOTH",
"360 324 OFFCURVE",
"343 313 OFFCURVE",
"321 313 CURVE SMOOTH"
);
}
);
};
layerId = UUID0;
paths = (
{
closed = 1;
nodes = (
"50 526 LINE",
"50 0 LINE",
"353 0 LINE SMOOTH",
"493 0 OFFCURVE",
"572 32 OFFCURVE",
"572 135 CURVE SMOOTH",
"572 214 OFFCURVE",
"531 253 OFFCURVE",
"466 271 CURVE",
"522 293 OFFCURVE",
"548 343 OFFCURVE",
"548 390 CURVE SMOOTH",
"548 457 OFFCURVE",
"498 526 OFFCURVE",
"418 526 CURVE SMOOTH"
);
},
{
closed = 1;
nodes = (
"240 313 LINE",
"240 390 LINE",
"321 390 LINE SMOOTH",
"343 390 OFFCURVE",
"360 374 OFFCURVE",
"360 351 CURVE SMOOTH",
"360 324 OFFCURVE",
"343 313 OFFCURVE",
"321 313 CURVE SMOOTH"
);
},
{
closed = 1;
nodes = (
"240 136 LINE",
"240 218 LINE",
"343 218 LINE SMOOTH",
"362 218 OFFCURVE",
"379 203 OFFCURVE",
"379 175 CURVE SMOOTH",
"379 152 OFFCURVE",
"362 136 OFFCURVE",
"343 136 CURVE SMOOTH"
);
}
);
width = 593;
}
);
leftKerningGroup = uni0438;
unicode = 0432;
},
{
glyphname = uni0433;
lastChange = "2016-08-18 21:45:13 +0000";
layers = (
{
background = {
paths = (
{
closed = 1;
nodes = (
"50 0 LINE",
"240 0 LINE",
"240 361 LINE",
"428 361 LINE",
"428 526 LINE",
"50 526 LINE"
);
}
);
};
layerId = UUID0;
paths = (
{
closed = 1;
nodes = (
"428 526 LINE",
"50 526 LINE",
"50 0 LINE",
"240 0 LINE",
"240 361 LINE",
"428 361 LINE"
);
}
);
width = 440;
}
);
leftKerningGroup = uni0438;
rightKerningGroup = uni0433;
unicode = 0433;
},
{
glyphname = uni0491;
lastChange = "2016-08-18 21:45:13 +0000";
layers = (
{
background = {
paths = (
{
closed = 1;
nodes = (
"50 526 LINE",
"50 0 LINE",
"240 0 LINE",
"240 361 LINE",
"428 361 LINE",
"428 658 LINE",
"267 658 LINE",
"257 526 LINE"
);
}
);
};
layerId = UUID0;
paths = (
{
closed = 1;
nodes = (
"50 526 LINE",
"50 0 LINE",
"240 0 LINE",
"240 361 LINE",
"428 361 LINE",
"428 658 LINE",
"267 658 LINE",
"257 526 LINE"
);
}
);
width = 440;
}
);
leftKerningGroup = uni0438;
rightKerningGroup = uni0433;
unicode = 0491;
},
{
glyphname = uni0434;
lastChange = "2016-08-18 21:45:13 +0000";
layers = (
{
background = {
paths = (
{
closed = 1;
nodes = (
"12 165 LINE",
"12 -132 LINE",
"177 -132 LINE",
"177 0 LINE",
"477 0 LINE",
"477 -132 LINE",
"648 -132 LINE",
"648 165 LINE",
"568 165 LINE",
"568 526 LINE",
"150 526 LINE",
"130 345 LINE SMOOTH",
"114 198 OFFCURVE",
"99 166 OFFCURVE",
"38 165 CURVE"
);
},
{
closed = 1;
nodes = (
"311 361 LINE",
"378 361 LINE",
"378 165 LINE",
"262 165 LINE",
"284 213 OFFCURVE",
"300 263 OFFCURVE",
"307 325 CURVE SMOOTH"
);
}
);
};
layerId = UUID0;
paths = (
{
closed = 1;
nodes = (
"12 -132 LINE",
"177 -132 LINE",
"177 0 LINE",
"477 0 LINE",
"477 -132 LINE",
"648 -132 LINE",
"648 165 LINE",
"568 165 LINE",
"568 526 LINE",
"150 526 LINE",
"130 345 LINE SMOOTH",
"114 198 OFFCURVE",
"99 166 OFFCURVE",
"38 165 CURVE",
"12 165 LINE"
);
},
{
closed = 1;
nodes = (
"262 165 LINE",
"284 213 OFFCURVE",
"300 263 OFFCURVE",
"307 325 CURVE SMOOTH",
"311 361 LINE",
"378 361 LINE",
"378 165 LINE"
);
}
);
width = 674;
}
);
rightKerningGroup = uni0434;
unicode = 0434;
},
{
glyphname = uni0436;
lastChange = "2016-08-18 21:45:13 +0000";
layers = (
{
background = {
paths = (
{
closed = 1;
nodes = (
"-14 0 LINE",
"215 0 LINE",
"348 185 LINE",
"363 185 LINE",
"363 0 LINE",
"557 0 LINE",
"557 185 LINE",
"572 185 LINE",
"706 0 LINE",
"934 0 LINE",
"728 274 LINE",
"916 526 LINE",
"701 526 LINE",
"572 350 LINE",
"558 350 LINE",
"558 526 LINE",
"362 526 LINE",
"362 350 LINE",
"349 350 LINE",
"219 526 LINE",
"4 526 LINE",
"191 274 LINE"
);
}
);
};
layerId = UUID0;
paths = (
{
closed = 1;
nodes = (
"4 526 LINE",
"191 274 LINE",
"-14 0 LINE",
"215 0 LINE",
"348 185 LINE",
"363 185 LINE",
"363 0 LINE",
"557 0 LINE",
"557 185 LINE",
"572 185 LINE",
"706 0 LINE",
"934 0 LINE",
"728 274 LINE",
"916 526 LINE",
"701 526 LINE",
"572 350 LINE",
"558 350 LINE",
"558 526 LINE",
"362 526 LINE",
"362 350 LINE",
"349 350 LINE",
"219 526 LINE"
);
}
);
width = 919;
}
);
unicode = 0436;
},
{
glyphname = uni0437;
lastChange = "2016-08-18 21:45:13 +0000";
layers = (
{
background = {
paths = (
{
closed = 1;
nodes = (
"360 -10 OFFCURVE",
"460 53 OFFCURVE",
"460 146 CURVE SMOOTH",
"460 208 OFFCURVE",
"426 259 OFFCURVE",
"352 280 CURVE",
"405 293 OFFCURVE",
"433 343 OFFCURVE",
"433 391 CURVE SMOOTH",
"433 495 OFFCURVE",
"337 536 OFFCURVE",
"240 536 CURVE SMOOTH",
"169 536 OFFCURVE",
"91 515 OFFCURVE",
"25 466 CURVE",
"98 361 LINE",
"130 389 OFFCURVE",
"182 406 OFFCURVE",
"217 406 CURVE SMOOTH",
"247 406 OFFCURVE",
"269 396 OFFCURVE",
"269 372 CURVE SMOOTH",
"269 344 OFFCURVE",
"240 321 OFFCURVE",
"180 321 CURVE SMOOTH",
"134 321 LINE",
"134 231 LINE",
"182 231 LINE SMOOTH",
"262 231 OFFCURVE",
"277 215 OFFCURVE",
"277 187 CURVE SMOOTH",
"277 158 OFFCURVE",
"245 145 OFFCURVE",
"202 145 CURVE SMOOTH",
"157 145 OFFCURVE",
"110 161 OFFCURVE",
"91 183 CURVE",
"7 65 LINE",
"48 21 OFFCURVE",
"139 -10 OFFCURVE",
"235 -10 CURVE SMOOTH"
);
}
);
};
layerId = UUID0;
paths = (
{
closed = 1;
nodes = (
"98 361 LINE",
"130 389 OFFCURVE",
"182 406 OFFCURVE",
"217 406 CURVE SMOOTH",
"247 406 OFFCURVE",
"269 396 OFFCURVE",
"269 372 CURVE SMOOTH",
"269 344 OFFCURVE",
"240 321 OFFCURVE",
"180 321 CURVE SMOOTH",
"134 321 LINE",
"134 231 LINE",
"182 231 LINE SMOOTH",
"262 231 OFFCURVE",
"277 215 OFFCURVE",
"277 187 CURVE SMOOTH",
"277 158 OFFCURVE",
"245 145 OFFCURVE",
"202 145 CURVE SMOOTH",
"157 145 OFFCURVE",
"110 161 OFFCURVE",
"91 183 CURVE",
"7 65 LINE",
"48 21 OFFCURVE",
"139 -10 OFFCURVE",
"235 -10 CURVE SMOOTH",
"360 -10 OFFCURVE",
"460 53 OFFCURVE",
"460 146 CURVE SMOOTH",
"460 208 OFFCURVE",
"426 259 OFFCURVE",
"352 280 CURVE",
"405 293 OFFCURVE",
"433 343 OFFCURVE",
"433 391 CURVE SMOOTH",
"433 495 OFFCURVE",
"337 536 OFFCURVE",
"240 536 CURVE SMOOTH",
"169 536 OFFCURVE",
"91 515 OFFCURVE",
"25 466 CURVE"
);
}
);
width = 477;
}
);
unicode = 0437;
},
{
glyphname = uni0438;
lastChange = "2016-08-18 21:45:13 +0000";
layers = (
{
background = {
paths = (
{
closed = 1;
nodes = (
"50 0 LINE",
"240 0 LINE",
"240 187 LINE",
"380 187 LINE",
"380 0 LINE",
"570 0 LINE",
"570 526 LINE",
"380 526 LINE",
"380 352 LINE",
"240 352 LINE",
"240 526 LINE",
"50 526 LINE"
);
}
);
};
layerId = UUID0;
paths = (
{
closed = 1;
nodes = (
"240 526 LINE",
"50 526 LINE",
"50 0 LINE",
"184 0 LINE",
"389 244 LINE",
"389 0 LINE",
"579 0 LINE",
"579 526 LINE",
"446 526 LINE",
"240 273 LINE"
);
}
);
width = 629;
}
);
leftKerningGroup = uni0438;
rightKerningGroup = uni0438;
unicode = 0438;
},
{
glyphname = uni0439;
lastChange = "2016-08-18 21:45:13 +0000";
layers = (
{
background = {
paths = (
{
closed = 1;
nodes = (
"269 649 OFFCURVE",
"242 686 OFFCURVE",
"242 730 CURVE",
"144 730 LINE",
"144 635 OFFCURVE",
"217 568 OFFCURVE",
"323 568 CURVE SMOOTH",
"429 568 OFFCURVE",
"502 635 OFFCURVE",
"502 730 CURVE",
"404 730 LINE",
"399 683 OFFCURVE",
"374 649 OFFCURVE",
"323 649 CURVE SMOOTH"
);
}
);
};
components = (
{
name = uni0438;
}
);
layerId = UUID0;
paths = (
{
closed = 1;
nodes = (
"404 730 LINE",
"399 683 OFFCURVE",
"374 649 OFFCURVE",
"323 649 CURVE SMOOTH",
"269 649 OFFCURVE",
"242 686 OFFCURVE",
"242 730 CURVE",
"144 730 LINE",
"144 635 OFFCURVE",
"217 568 OFFCURVE",
"323 568 CURVE SMOOTH",
"429 568 OFFCURVE",
"502 635 OFFCURVE",
"502 730 CURVE"
);
}
);
width = 629;
}
);
leftKerningGroup = uni0438;
rightKerningGroup = uni0438;
unicode = 0439;
},
{
glyphname = uni043A;
lastChange = "2016-08-18 21:45:13 +0000";
layers = (
{
background = {
paths = (
{
closed = 1;
nodes = (
"239 526 LINE",
"50 526 LINE",
"50 0 LINE",
"239 0 LINE",
"239 169 LINE",
"243 169 LINE",
"383 0 LINE",
"603 0 LINE",
"381 272 LINE",
"585 526 LINE",
"384 526 LINE",
"243 342 LINE",
"239 342 LINE"
);
}
);
};
layerId = UUID0;
paths = (
{
closed = 1;
nodes = (
"243 342 LINE",
"239 342 LINE",
"239 526 LINE",
"50 526 LINE",
"50 0 LINE",
"239 0 LINE",
"239 169 LINE",
"243 169 LINE",
"383 0 LINE",
"603 0 LINE",
"381 272 LINE",
"585 526 LINE",
"384 526 LINE"
);
}
);
width = 587;
}
);
leftKerningGroup = uni0438;
rightKerningGroup = uni043A;
unicode = 043A;
},
{
glyphname = uni043B;
lastChange = "2016-08-18 21:45:13 +0000";
layers = (
{
background = {
paths = (
{
closed = 1;
nodes = (
"358 361 LINE",
"358 0 LINE",
"548 0 LINE",
"548 526 LINE",
"129 526 LINE",
"109 345 LINE SMOOTH",
"92 195 OFFCURVE",
"78 167 OFFCURVE",
"12 165 CURVE",
"12 -3 LINE",
"199 -1 OFFCURVE",
"258 69 OFFCURVE",
"287 325 CURVE SMOOTH",
"291 361 LINE"
);
}
);
};
layerId = UUID0;
paths = (
{
closed = 1;
nodes = (
"12 -3 LINE",
"199 -1 OFFCURVE",
"258 69 OFFCURVE",
"287 325 CURVE SMOOTH",
"291 361 LINE",
"358 361 LINE",
"358 0 LINE",
"548 0 LINE",
"548 526 LINE",
"129 526 LINE",
"109 345 LINE SMOOTH",
"92 195 OFFCURVE",
"78 167 OFFCURVE",
"12 165 CURVE"
);
}
);
width = 598;
}
);
leftKerningGroup = uni043B;
rightKerningGroup = uni0438;
unicode = 043B;
},
{
glyphname = uni043C;
lastChange = "2016-08-18 21:45:13 +0000";
layers = (
{
background = {
paths = (
{
closed = 1;
nodes = (
"50 0 LINE",
"230 0 LINE",
"230 251 LINE",
"337 72 LINE",
"417 72 LINE",
"524 251 LINE",
"524 0 LINE",
"704 0 LINE",
"704 526 LINE",
"506 526 LINE",
"377 311 LINE",
"249 526 LINE",
"50 526 LINE"
);
}
);
};
layerId = UUID0;
paths = (
{
closed = 1;
nodes = (
"249 526 LINE",
"50 526 LINE",
"50 0 LINE",
"230 0 LINE",
"230 251 LINE",
"337 72 LINE",
"417 72 LINE",
"524 251 LINE",
"524 0 LINE",
"704 0 LINE",
"704 526 LINE",
"506 526 LINE",
"377 311 LINE"
);
}
);
width = 754;
}
);
leftKerningGroup = uni0438;
rightKerningGroup = uni0438;
unicode = 043C;
},
{
glyphname = uni043D;
lastChange = "2016-08-18 21:45:13 +0000";
layers = (
{
background = {
paths = (
{
closed = 1;
nodes = (
"50 0 LINE",
"184 0 LINE",
"389 244 LINE",
"389 0 LINE",
"579 0 LINE",
"579 526 LINE",
"446 526 LINE",
"240 273 LINE",
"240 526 LINE",
"50 526 LINE"
);
}
);
};
layerId = UUID0;
paths = (
{
closed = 1;
nodes = (
"240 526 LINE",
"50 526 LINE",
"50 0 LINE",
"240 0 LINE",
"240 187 LINE",
"380 187 LINE",
"380 0 LINE",
"570 0 LINE",
"570 526 LINE",
"380 526 LINE",
"380 352 LINE",
"240 352 LINE"
);
}
);
width = 620;
}
);
leftKerningGroup = uni0438;
rightKerningGroup = uni0438;
unicode = 043D;
},
{
glyphname = uni043F;
lastChange = "2016-08-18 21:45:13 +0000";
layers = (
{
background = {
paths = (
{
closed = 1;
nodes = (
"50 0 LINE",
"240 0 LINE",
"240 361 LINE",
"365 361 LINE",
"365 0 LINE",
"555 0 LINE",
"555 526 LINE",
"50 526 LINE"
);
}
);
};
layerId = UUID0;
paths = (
{
closed = 1;
nodes = (
"555 526 LINE",
"50 526 LINE",
"50 0 LINE",
"240 0 LINE",
"240 361 LINE",
"365 361 LINE",
"365 0 LINE",
"555 0 LINE"
);
}
);
width = 605;
}
);
leftKerningGroup = uni0438;
rightKerningGroup = uni0438;
unicode = 043F;
},
{
glyphname = uni0442;
lastChange = "2016-08-18 21:45:13 +0000";
layers = (
{
background = {
paths = (
{
closed = 1;
nodes = (
"502 526 LINE",
"12 526 LINE",
"12 361 LINE",
"163 361 LINE",
"163 0 LINE",
"353 0 LINE",
"353 361 LINE",
"502 361 LINE"
);
}
);
};
layerId = UUID0;
paths = (
{
closed = 1;
nodes = (
"353 361 LINE",
"502 361 LINE",
"502 526 LINE",
"12 526 LINE",
"12 361 LINE",
"163 361 LINE",
"163 0 LINE",
"353 0 LINE"
);
}
);
width = 514;
}
);
unicode = 0442;
},
{
glyphname = uni0443;
lastChange = "2016-08-18 21:45:13 +0000";
layers = (
{
background = {
paths = (
{
closed = 1;
nodes = (
"84 -225 LINE",
"109 -231 OFFCURVE",
"137 -234 OFFCURVE",
"160 -234 CURVE SMOOTH",
"262 -234 OFFCURVE",
"339 -174 OFFCURVE",
"373 -63 CURVE SMOOTH",
"551 526 LINE",
"374 526 LINE",
"293 161 LINE",
"193 526 LINE",
"-2 526 LINE",
"189 0 LINE",
"185 -54 OFFCURVE",
"169 -70 OFFCURVE",
"139 -70 CURVE SMOOTH",
"128 -70 OFFCURVE",
"106 -68 OFFCURVE",
"84 -63 CURVE"
);
}
);
};
layerId = UUID0;
paths = (
{
closed = 1;
nodes = (
"84 -225 LINE",
"109 -231 OFFCURVE",
"137 -234 OFFCURVE",
"160 -234 CURVE SMOOTH",
"262 -234 OFFCURVE",
"339 -174 OFFCURVE",
"373 -63 CURVE SMOOTH",
"551 526 LINE",
"374 526 LINE",
"293 161 LINE",
"193 526 LINE",
"-2 526 LINE",
"189 0 LINE",
"185 -54 OFFCURVE",
"169 -70 OFFCURVE",
"139 -70 CURVE SMOOTH",
"128 -70 OFFCURVE",
"106 -68 OFFCURVE",
"84 -63 CURVE"
);
}
);
width = 555;
}
);
leftKerningGroup = uni0443;
rightKerningGroup = uni0443;
unicode = 0443;
},
{
glyphname = uni045E;
lastChange = "2016-08-18 21:45:13 +0000";
layers = (
{
background = {
paths = (
{
closed = 1;
nodes = (
"238 649 OFFCURVE",
"211 686 OFFCURVE",
"211 730 CURVE",
"113 730 LINE",
"113 635 OFFCURVE",
"186 568 OFFCURVE",
"292 568 CURVE SMOOTH",
"398 568 OFFCURVE",
"471 635 OFFCURVE",
"471 730 CURVE",
"373 730 LINE",
"368 683 OFFCURVE",
"343 649 OFFCURVE",
"292 649 CURVE SMOOTH"
);
}
);
};
layerId = UUID0;
paths = (
{
closed = 1;
nodes = (
"292 649 LINE SMOOTH",
"238 649 OFFCURVE",
"211 686 OFFCURVE",
"211 730 CURVE",
"113 730 LINE",
"113 635 OFFCURVE",
"186 568 OFFCURVE",
"292 568 CURVE SMOOTH",
"398 568 OFFCURVE",
"471 635 OFFCURVE",
"471 730 CURVE",
"373 730 LINE",
"368 683 OFFCURVE",
"343 649 OFFCURVE",
"292 649 CURVE SMOOTH"
);
},
{
closed = 1;
nodes = (
"84 -225 LINE",
"109 -231 OFFCURVE",
"137 -234 OFFCURVE",
"160 -234 CURVE SMOOTH",
"262 -234 OFFCURVE",
"339 -174 OFFCURVE",
"373 -63 CURVE SMOOTH",
"551 526 LINE",
"374 526 LINE",
"293 161 LINE",
"193 526 LINE",
"-2 526 LINE",
"189 0 LINE",
"185 -54 OFFCURVE",
"169 -70 OFFCURVE",
"139 -70 CURVE SMOOTH",
"128 -70 OFFCURVE",
"106 -68 OFFCURVE",
"84 -63 CURVE"
);
}
);
width = 555;
}
);
leftKerningGroup = uni0443;
rightKerningGroup = uni0443;
unicode = 045E;
},
{
glyphname = uni0444;
lastChange = "2016-08-18 21:45:13 +0000";
layers = (
{
background = {
paths = (
{
closed = 1;
nodes = (
"290 -213 LINE",
"480 -213 LINE",
"480 730 LINE",
"290 730 LINE"
);
},
{
closed = 1;
nodes = (
"617 -10 OFFCURVE",
"745 91 OFFCURVE",
"745 262 CURVE SMOOTH",
"745 424 OFFCURVE",
"625 536 OFFCURVE",
"382 536 CURVE SMOOTH",
"139 536 OFFCURVE",
"19 424 OFFCURVE",
"19 262 CURVE SMOOTH",
"19 91 OFFCURVE",
"145 -10 OFFCURVE",
"380 -10 CURVE SMOOTH"
);
},
{
closed = 1;
nodes = (
"523 395 OFFCURVE",
"565 348 OFFCURVE",
"565 263 CURVE SMOOTH",
"565 181 OFFCURVE",
"528 131 OFFCURVE",
"381 131 CURVE SMOOTH",
"230 131 OFFCURVE",
"199 181 OFFCURVE",
"199 263 CURVE SMOOTH",
"199 348 OFFCURVE",
"241 395 OFFCURVE",
"381 395 CURVE SMOOTH"
);
}
);
};
layerId = UUID0;
paths = (
{
closed = 1;
nodes = (
"480 730 LINE",
"290 730 LINE",
"290 530 LINE",
"108 504 OFFCURVE",
"19 402 OFFCURVE",
"19 262 CURVE SMOOTH",
"19 114 OFFCURVE",
"113 19 OFFCURVE",
"290 -4 CURVE",
"290 -213 LINE",
"480 -213 LINE",
"480 -3 LINE",
"652 22 OFFCURVE",
"745 117 OFFCURVE",
"745 262 CURVE SMOOTH",
"745 400 OFFCURVE",
"657 502 OFFCURVE",
"480 529 CURVE"
);
},
{
closed = 1;
nodes = (
"290 140 LINE",
"217 158 OFFCURVE",
"199 201 OFFCURVE",
"199 263 CURVE SMOOTH",
"199 325 OFFCURVE",
"222 368 OFFCURVE",
"290 385 CURVE"
);
},
{
closed = 1;
nodes = (
"480 383 LINE",
"543 365 OFFCURVE",
"565 323 OFFCURVE",
"565 263 CURVE SMOOTH",
"565 204 OFFCURVE",
"546 161 OFFCURVE",
"480 142 CURVE"
);
}
);
width = 764;
}
);
leftKerningGroup = uni043E;
rightKerningGroup = uni043E;
unicode = 0444;
},
{
glyphname = uni0447;
lastChange = "2016-08-18 21:45:13 +0000";
layers = (
{
background = {
paths = (
{
closed = 1;
nodes = (
"315 298 LINE",
"296 288 OFFCURVE",
"279 284 OFFCURVE",
"265 284 CURVE SMOOTH",
"222 284 OFFCURVE",
"204 307 OFFCURVE",
"204 349 CURVE SMOOTH",
"204 526 LINE",
"24 526 LINE",
"24 324 LINE SMOOTH",
"24 219 OFFCURVE",
"105 142 OFFCURVE",
"215 142 CURVE SMOOTH",
"247 142 OFFCURVE",
"280 149 OFFCURVE",
"315 162 CURVE",
"315 0 LINE",
"499 0 LINE",
"499 526 LINE",
"315 526 LINE"
);
}
);
};
layerId = UUID0;
paths = (
{
closed = 1;
nodes = (
"499 526 LINE",
"315 526 LINE",
"315 298 LINE",
"296 288 OFFCURVE",
"279 284 OFFCURVE",
"265 284 CURVE SMOOTH",
"222 284 OFFCURVE",
"204 307 OFFCURVE",
"204 349 CURVE SMOOTH",
"204 526 LINE",
"24 526 LINE",
"24 324 LINE SMOOTH",
"24 219 OFFCURVE",
"105 142 OFFCURVE",
"215 142 CURVE SMOOTH",
"247 142 OFFCURVE",
"280 149 OFFCURVE",
"315 162 CURVE",
"315 0 LINE",
"499 0 LINE"
);
}
);
width = 549;
}
);
rightKerningGroup = uni0438;
unicode = 0447;
},
{
glyphname = uni0446;
lastChange = "2016-08-18 21:45:13 +0000";
layers = (
{
background = {
paths = (
{
closed = 1;
nodes = (
"448 0 LINE",
"448 -132 LINE",
"619 -132 LINE",
"619 165 LINE",
"543 165 LINE",
"543 526 LINE",
"353 526 LINE",
"353 165 LINE",
"240 165 LINE",
"240 526 LINE",
"50 526 LINE",
"50 0 LINE"
);
}
);
};
layerId = UUID0;
paths = (
{
closed = 1;
nodes = (
"50 0 LINE",
"448 0 LINE",
"448 -132 LINE",
"619 -132 LINE",
"619 165 LINE",
"543 165 LINE",
"543 526 LINE",
"353 526 LINE",
"353 165 LINE",
"240 165 LINE",
"240 526 LINE",
"50 526 LINE"
);
}
);
width = 645;
}
);
leftKerningGroup = uni0438;
rightKerningGroup = uni0434;
unicode = 0446;
},
